<svg xmlns="http://www.w3.org/2000/svg" id="fasthosts" version="1.1" viewBox="0 0 1140 200">
	<path fill="#031a4a" stroke-width="4.768" d="M1069.726 110.48c-15.02-3.767-24.508-6.103-24.508-13.828 0-7.724 5.15-10.68 18.405-10.68 13.78.095 27.274 4.148 38.813 11.73l23.459-28.37a105.795 105.795 0 0 0-58.648-16.308c-36.38 0-61.366 12.922-61.366 49.016 0 25.939 23.46 32.471 43.152 37.049 13.589 3.385 25.7 5.864 25.7 14.066 0 10.68-7.057 11.73-19.836 11.73-17.308-.764-33.996-6.676-47.967-16.88l-23.459 25.939a104.967 104.967 0 0 0 67.23 21.837c37.049 0 62.034-10.918 62.034-46.918 0-26.177-22.077-32.47-43.39-38.002M968.023 55.837l8.582-40.815s-35.904 2.48-40.243 15.115c-.715 2.337-2.24 8.821-5.96 25.7h-22.744l-7.057 32.471h22.506l-11.73 57.933c-6.341 30.611 0 46.918 38.002 46.918 6.819 0 15.83 0 21.361-.572l6.819-31.66h-14.21c-16.163 0-16.64-5.865-14.304-16.546l11.73-56.55a43.533 43.533 0 0 0 17.499-1.86c7.867-9.488 14.829-19.74 20.646-30.61l-30.85.476Zm-133.27 30.135c13.78.095 27.274 4.196 38.813 11.73l23.46-28.37a105.795 105.795 0 0 0-58.648-16.308c-36.381 0-61.366 12.922-61.366 49.016 0 25.939 23.46 32.471 43.151 37.049 13.59 3.385 25.7 5.864 25.7 14.066 0 10.68-7.056 11.73-19.835 11.73a88.925 88.925 0 0 1-48.11-16.88l-23.46 25.939a104.728 104.728 0 0 0 67.231 21.36c37.192 0 62.176-10.918 62.176-46.918 0-26.176-22.076-32.47-43.39-38.001-15.114-3.767-24.507-6.104-24.507-13.828 0-7.724 5.054-10.68 18.404-10.68m-114.577 42.579c-4.816 23.459-14.066 35.188-36.143 35.188-22.076 0-27.94-9.965-27.94-24.508 0-5.483.62-10.966 1.764-16.307 4.815-23.459 14.065-35.188 36.38-35.188 22.315 0 27.703 10.204 27.703 24.985a83.222 83.222 0 0 1-2.003 16.068M760.848 107c0-32.47-18.548-54.07-64.512-54.07-41.292 0-66.992 18.166-76.958 64.274-1.525 7.963-2.336 16.069-2.336 24.174 0 32.71 18.405 54.548 64.417 54.548 41.53 0 66.992-18.405 76.719-64.513a136.578 136.578 0 0 0 2.956-24.508M560.492 52.69a52.976 52.976 0 0 0-35.188 11.157L537.748 5.2s-35.904 2.48-40.243 15.115c-1.62 5.054-37.668 173.035-37.668 173.035h38.145l16.403-77.291c3.147-15.497 8.82-27.226 29.323-27.226 26.988 0 24.27 13.16 20.885 30.134l-15.735 74.383h38.24l17.022-78.579c7.057-34.14 7.486-61.794-43.39-61.794m-121.062 2.86 8.44-40.815s-35.904 2.48-40.1 15.115c-.81 2.337-2.336 8.821-6.103 25.7H379.16l-7.057 32.471h22.506l-12.302 57.933c-6.342 30.611 0 46.918 38.002 46.918 6.818 0 15.83 0 21.36-.572l6.82-31.66h-13.828c-16.307 0-16.784-5.865-14.448-16.546l11.73-56.55a43.998 43.998 0 0 0 17.594-1.86 194.027 194.027 0 0 0 20.55-30.61l-30.372.476zm-133.46 30.135c13.78.095 27.275 4.148 38.813 11.73l23.46-28.37a105.795 105.795 0 0 0-58.648-16.308c-36.381 0-61.366 12.922-61.366 49.016 0 25.939 23.46 32.471 43.152 37.049 13.97 3.051 25.7 5.53 25.7 13.97 0 10.68-7.057 11.73-19.836 11.73-17.308-.763-33.996-6.676-47.967-16.88l-23.459 25.94c19.406 14.828 43.39 22.457 67.803 21.456 37.048 0 62.033-10.92 62.033-46.919 0-26.176-22.077-32.47-43.39-38.001-15.02-3.767-24.508-6.104-24.508-13.828 0-7.724 5.054-10.68 18.405-10.68M176.564 136.18c-4.911 22.506-11.73 28.609-32.28 28.609s-23.46-4.911-23.46-12.922c0-17.69 11.73-20.884 39.528-20.884h17.5l-1.288 5.15zm33.901 12.779 7.725-37.049c7.962-38.574 4.577-58.647-53.117-58.647-19.597-.477-39.003 3.957-56.407 12.921l13.828 28.275c11.062-5.006 23.03-7.677 35.188-7.963 21.838 0 26.75 3.624 26.75 10.92 0 2.622-.334 5.244-1.05 7.724h-17.499c-49.97-.239-83.155 9.965-83.155 50.923 0 23.46 10.537 39.29 50.923 39.29 15.687 1.573 31.327-3.624 42.913-14.305 2.718 10.442 7.629 12.683 20.408 12.683a69.356 69.356 0 0 0 16.306-1.049l6.819-30.945c-11.73 0-11.73-2.956-9.25-12.683M82.727 86.449a181.61 181.61 0 0 0 20.17-30.612H70.998l1.764-7.295c2.241-10.919 6.58-16.402 22.506-16.402h12.778l6.58-31.565H94.457c-37.906 0-51.83 12.922-58.648 44.105L33.33 56.41H7.63L.573 88.308h25.939L3.052 199.262s32.71-7.629 36.62-8.916c2.288-.858 3.91-2.861 4.339-5.293l20.646-96.792c6.103.62 12.254 0 18.07-1.86"/>
</svg>
