<svg xmlns="http://www.w3.org/2000/svg" viewBox="0 0 1457 275">
  <path fill="#252525" d="M708.9 201c-8.4 0-19-1.1-30.5-5.8v-21.6c12.2 4.4 19.8 6.3 30.6 6.3 9.1 0 15.8-2.9 20-7V168l-29.9-4.7c-8.6-1.3-23.2-5.8-23.2-20v-7c0-20.6 26.5-27 41.1-27 8.5 0 19 1.1 30.6 5.9v21.6c-12.2-4.4-19.8-6.3-30.5-6.3-9.3 0-15.8 2.9-20 7v4.7l29.9 4.7c8.6 1.3 23.2 5.9 23.2 20v7.2c-.2 20.6-26.8 26.9-41.3 26.9zm98.3 0c-14.6 0-41.3-6.3-41.3-27v-37.7c0-20.6 26.7-27 41.3-27 14.6 0 41.1 6.3 41.1 27V174c0 20.7-26.6 27-41.1 27zm20-63.5c-4.2-4.1-10.7-7-20-7s-15.8 2.9-20 7v35.4c4.2 4.1 10.7 7 20 7s15.8-2.9 20-7v-35.4zm40.6 62.2v-79.8c0-5.8 4.9-10.6 10.7-10.6s10.6 4.7 10.6 10.6v58.7H940v21.1h-72.2zm124 1.3c-14.6 0-41.3-6.3-41.3-27v-63.4h21.3v62.3c4.2 4.1 10.7 7 20 7s15.8-2.9 20-7v-62.2h21.1v63.4c.1 20.6-26.4 26.9-41.1 26.9zm104.9-69.2v58.7c0 5.9-4.7 10.6-10.6 10.6-5.8 0-10.7-4.7-10.7-10.6v-58.7h-31v-21.1h83.2v21.1h-30.9zm44.6 67.9v-79.8c0-5.8 4.7-10.6 10.6-10.6s10.7 4.7 10.7 10.6v79.8h-21.3zm84.6 1.3c-14.6 0-41.3-6.3-41.3-27v-37.7c0-20.6 26.7-27 41.3-27 14.6 0 41.1 6.3 41.1 27V174c0 20.7-26.7 27-41.1 27zm19.9-63.5c-4.2-4.1-10.7-7-20-7s-15.8 2.9-20 7v35.4c4.2 4.1 10.7 7 20 7s15.8-2.9 20-7v-35.4zm105.5 63.5c-3.2 0-6.3-1.3-8.4-4.1l-35.1-45.8v39.3c0 5.9-4.9 10.6-10.7 10.6-5.8 0-10.6-4.7-10.6-10.6v-70.5c0-9.7 12.7-14.6 19-6.5l35.3 46v-48.8h21.1v79.8c0 5.9-4.7 10.6-10.6 10.6zm60.3 0c-8.4 0-19-1.1-30.6-5.8v-21.6c12.2 4.4 19.8 6.3 30.6 6.3 9.1 0 15.8-2.9 20-7V168l-29.9-4.7c-8.6-1.3-23.2-5.8-23.2-20v-7c0-20.6 26.5-27 41.1-27 8.5 0 19 1.1 30.6 5.9v21.6c-12.2-4.4-19.8-6.3-30.5-6.3-9.3 0-15.8 2.9-20 7v4.7l29.9 4.7c8.6 1.3 23.2 5.9 23.2 20v7.2c-.1 20.6-26.7 26.9-41.2 26.9zm-1217.1 0c-8.3 0-19.7-1.9-27-6v37.4c0 2.9-2.4 5.4-5.4 5.4-2.9 0-5.2-2.4-5.2-5.4V131.1c0-15.3 20.5-21.8 35.9-21.8 15.3 0 35.9 6.5 35.9 21.8v48.1c.1 15.3-18.9 21.8-34.2 21.8zm23.6-71c-5.2-6.2-13.8-10.1-25.2-10.1-11.5 0-20 3.9-25.3 10.1v50.4c5.4 6 15.4 10.1 27 10.1 11.4 0 18.4-4.1 23.6-10.1V130zm43.7-38.1c-4.4 0-8-3.6-8-8s3.6-8 8-8 7.8 3.6 7.8 8c0 4.5-3.4 8-7.8 8zm-5.3 107.8v-85.2c0-2.9 2.3-5.2 5.2-5.2 2.9 0 5.4 2.3 5.4 5.2v85.2h-10.6zm48.7-39.2v19.8c5.4 6 13.8 10.1 25.4 10.1 13 0 20-2.3 25.2-4.1 2.8-1 5.7.5 6.7 3.3s-.5 5.7-3.2 6.7c-8.8 3.3-16.4 4.7-28.6 4.7-15.4 0-35.9-6.5-35.9-21.8v-48.1c0-15.3 20.5-21.8 35.9-21.8 15.3 0 35.9 6.5 35.9 21.8v29.4h-61.4zm25.4-40.6c-11.5 0-20 3.9-25.3 10.1v19.8h50.5V130c-5.2-6.2-13.9-10.1-25.2-10.1zm120.6 79.8V130c-5.2-6.2-13.8-10.1-25.2-10.1-11.5 0-20 3.9-25.3 10.1v69.7h-10.6v-68.6c0-15.3 20.5-21.8 35.9-21.8 15.3 0 35.8 6.5 35.8 21.8v68.6h-10.6zm60.7 1.3c-8.1 0-17.9-1.1-25.2-4.1v-10.6c5.5 2 13.7 4.1 25.2 4.1 11.4 0 19.8-4.1 25.2-10.1v-13.2c-1.5-2.4-5.2-3.1-21.6-6.8l-1.6-.3c-14.3-3.1-29.9-5.2-29.9-17.1V131c0-15.3 20.6-21.8 35.9-21.8 8 0 17.9 1.1 25.2 4.1v10.6c-5.5-1.9-13.6-4.1-25.2-4.1-11.4 0-20 3.9-25.2 10.1v13c1.5 2.4 5.2 3.1 21.5 6.8l1.6.3c14.5 3.1 29.9 5.2 29.9 17.1v12c0 15.4-20.5 21.9-35.8 21.9zm95.6 0c-17.2 0-39.8-3.7-39.8-18.4v-15.3c0-12 15.6-14.1 29.9-17.5l31.2-7.3V130c-5.4-6.2-13.8-10.1-25.3-10.1s-24.2 3.4-27.8 4.6v-11c6.2-2.8 19.8-4.1 27.8-4.1 15.4 0 35.9 6.5 35.9 21.8v65.2c-7.9 2-20.2 4.6-31.9 4.6zm21.3-47.5-28.9 6.7c-16.4 3.7-20.1 4.4-21.6 6.8v15.9c5.4 6.2 14.6 7.5 29.3 7.5 5.7 0 14-1.5 21.3-2.9v-34z"/>
  <path fill="#EA5B0C" d="M40.8 170.5v28.3h-31v-17.5s.5-10.7 11-10.7c7-.1 20-.1 20-.1zM122 74.3v18.4h-20.2V81.3s.3-7 7.2-7h13zm-44.4 41.1H38.1V72h24.5s15 .7 15 15.4v28z"/>
  <path fill="#252525" d="M2.6 219.2H22v21.3H10s-7.4-.3-7.4-7.6v-13.7zM73 164.3H51.3v-23.8h13.5s8.3.4 8.3 8.5c-.1 5.3-.1 15.3-.1 15.3zm31.8-109H85V33.5h12.3s7.5.4 7.5 7.7v14.1z"/>
  <path fill="#252525" d="M104.7 54.8H85.1V33.3h12.1s7.5.4 7.5 7.6v13.9zm-80.9 90.7H37v-14.4h-8.2s-5 .2-5 5.1v9.3zM166.5 13.8H136v33.5h18.9s11.6-.5 11.6-11.9V13.8zm27.3-.8h-11.2V.7h6.9s4.3.2 4.3 4.4V13zM13.5 275.3H.1v-14.8h8.3s5.1.2 5.1 5.2v9.6z"/>
</svg>
