<svg xmlns="http://www.w3.org/2000/svg" id="svg3" version="1.1" viewBox="0 0 1480 200">
	<path id="path1" fill="#0f396d" stroke-width="4.579" d="M1396.004 130.634c7.052 2.747 17.446 5.495 28.299 5.495 6.181 0 12.226-.916 12.226-6.41 0-13.418-42.906-3.939-42.906-32.604 0-18.316 19.781-25.78 37.182-25.78 10.394 0 20.972 1.053 30.634 4.58l-2.336 19.048c-6.364-3.526-15.935-5.357-23.49-5.357-6.502 0-13.92 1.053-13.92 5.494 0 12.364 44.92 2.61 44.92 32.787 0 21.2-20.926 26.512-40.708 26.512-13.554 0-22.804-1.236-31.687-3.8l1.694-19.965zm-39.792 19.827v-40.158c0-9.525-2.519-16.302-14.424-16.302-11.906 0-14.424 6.777-14.424 16.302v40.158h-28.894v-45.287c0-24.772 18.911-32.42 43.318-32.42 24.406 0 43.318 7.648 43.318 32.42v45.287zM1251.9 77.38h28.482v73.678H1251.9z" class="united-domains-blue"/>
	<ellipse id="ellipse1" cx="1265.134" cy="55.4" fill="#0f396d" stroke-width="4.579" class="united-domains-blue" rx="15.157" ry="12.638"/>
	<path id="path2" fill="#0f396d" stroke-width="4.579" d="M1197.043 72.938c-15.568 0-31.412 4.12-42.264 12.363l15.797 13.005a35.282 35.282 0 0 1 24.086-9.204c10.257 0 18.958 5.403 18.958 13.829-24.682 0-64.977.503-64.977 27.108 0 15.569 16.21 23.81 34.16 23.81 12.042 0 23.856-3.342 30.404-11.584h.413v9.662h27.245V112.73c0-25.689-9.25-39.792-43.822-39.792zm16.622 50.278c0 9.524-10.852 14.424-22.529 14.424-6.502 0-14.012-2.702-14.012-8.426 0-10.486 20.148-11.08 29.215-11.08h7.326zM1097.128 73.12c-10.898 0-20.606 1.694-27.932 5.861-7.327-4.213-17.034-5.861-27.933-5.861-23.49 0-41.67 7.601-41.67 32.282v45.104h27.796v-39.975c0-9.479 2.473-16.21 13.92-16.21 11.448 0 13.92 6.731 13.92 16.21v39.975h28.116v-39.975c0-9.479 2.427-16.21 13.875-16.21 11.447 0 13.92 6.731 13.92 16.21v39.975h27.795v-45.104c0-24.68-18.179-32.282-41.715-32.282zM978.759 85.668c-8.38-7.098-20.285-10.624-35.67-10.624-15.387 0-27.017 3.526-35.489 10.578-8.517 7.051-12.73 16.713-12.73 29.077 0 12.363 4.213 21.934 12.685 28.985 8.47 7.052 20.285 10.624 35.579 10.624s27.154-3.572 35.58-10.624c8.425-7.051 12.683-16.713 12.683-28.985 0-12.272-4.212-21.934-12.592-29.031zm-18.27 40.295c-.916 2.702-2.29 4.992-4.076 6.915-1.602 1.74-3.571 2.976-5.861 3.709-2.29.732-4.716 1.099-7.235 1.099-2.93 0-5.586-.412-7.876-1.19a14.606 14.606 0 0 1-5.953-3.801c-1.694-1.832-3.022-4.213-3.892-7.235-.87-2.977-1.328-6.548-1.328-10.624 0-4.579.504-8.38 1.511-11.402 1.008-3.022 2.336-5.403 4.076-7.143 1.923-1.877 3.892-3.114 5.998-3.71a27.2 27.2 0 0 1 7.19-.96c2.564 0 5.082.366 7.509 1.144 2.29.733 4.35 2.06 5.953 3.846 1.648 1.786 2.976 4.167 3.892 7.144.916 2.976 1.42 6.685 1.42 11.081 0 4.762-.458 8.471-1.374 11.173zM857.872 48.76v35.81c-3.068-3.526-7.052-6.32-11.997-8.289-4.946-2.014-10.532-3.022-16.897-3.022-13.737 0-24.727 3.755-32.97 11.219-8.196 7.464-12.317 17.721-12.317 30.726 0 11.31 4.167 20.56 12.5 27.749 8.335 7.189 18.637 10.806 30.818 10.806 7.418 0 13.6-1.007 18.59-3.068 4.992-2.014 9.434-5.266 13.372-9.753v10.257h25.963V48.714H857.78Zm-5.266 82.149c-4.03 4.258-9.891 6.365-17.63 6.365-7.738 0-13.462-2.107-17.263-6.411-3.8-4.259-5.678-9.982-5.678-17.08 0-6.594 1.878-12.135 5.632-16.622 3.71-4.442 9.57-6.685 17.538-6.685 5.22 0 9.845 1.236 13.783 3.663 6.457 4.03 9.662 10.806 9.662 20.24 0 6.73-2.015 12.225-6.044 16.484zM654.286 1.596c-54.262 0-98.404 44.142-98.404 98.404 0 54.262 44.142 98.404 98.404 98.404 54.262 0 98.404-44.142 98.404-98.404 0-54.262-44.142-98.404-98.404-98.404zm52.934 18.408-.229.183-.412-.23-.183-.503zm-4.67-2.93c.091.228.274.778-.687-.184l-.458-.458c.412.229.778.458 1.145.687zM677.502 6.861Zm-66.58 7.555s-.137.367-.137.55l-.87.412v-.32h-.183c.412-.23.824-.413 1.236-.642zm128.993 128.901c-15.89 31.183-48.264 52.66-85.629 52.66a96.558 96.558 0 0 1-24.818-3.252l1.648.275s2.06.183 2.381.275c.412.137.87.183 1.282.137.596 0 1.328.092 2.015.092s.687.183.916-.092l.595-.778c.367-.504.87-1.008.916-1.145.046-.183-.32-.412-.366-.595-.046-.138-.32-.413-.32-.687 0-.275 0-.55.09-.687.092-.183.688-.824.688-.824s-1.832-.779.32-1.374c2.152-.595 2.565-.916 2.565-.916s.55-.275.824-.32l2.518-.55s8.38-1.282 8.884-1.603c.503-.274 2.93-.503 3.526-.64.595-.184 7.692-3.343 8.608-4.03.916-.733 2.793-1.511 3.16-1.924.366-.412 1.373-1.144 1.373-1.144s.825-.87.962-1.053c.32-.321.641-.596.962-.87.274-.23.274-.55.55-.825a5.83 5.83 0 0 0 .594-.87l-1.465-.137-.366.229-.87.091-.87.092-.87.229-.87.092-.962-.092-.275.137-.64-.137s0-.504-.642-.412c-.32 0-.595.091-.87.229l-.732.229-.962.091-.595-.229-.733-.229s-.229 0-1.007.138c-.779.137-.412.458-1.008.229-.595-.23-1.465-.641-1.465-.641s-.137-.275-.366-.596l-.504-.778-1.099-.458 1.145-.366s.274-.275.274-.596c0-.32-.091-.457-.091-.64 0-.23-.092-.23-.366-.642a17.027 17.027 0 0 1-.87-1.557 4.213 4.213 0 0 0-.87-1.144c-.275-.275-.458-.596-.733-.825-.275-.228-1.008-.595-1.19-.778-.138-.229.274.778-.413-.412-.732-1.236-.64-1.511-.64-1.878v-1.602s.228-.962.09-1.237c-.137-.274-.274-.64-.595-.961-.274-.275.23-.23-.64-.779-.87-.595-1.237-.961-1.1-1.19a5.41 5.41 0 0 0 .367-1.42c.091-.503.503-1.42.64-1.74.184-.64.321-1.282.367-1.969.092-.595.23-.64.092-1.007-.138-.366-.641-1.236-.641-1.236l-.962-.962.412-.778s.275-.962.275-1.191c0-.229-.092-1.328-.137-1.511l-.275-1.236-.23-3.114s-.045-.779-.137-1.1c-.091-.274-.229-.64-.091-1.098.137-.412.275-.595.275-.87s-.092-.275-.367-.733a2.418 2.418 0 0 1-.503-1.099c0-.229-.092-1.603-.092-1.831 0-.23.137-.55.137-.55l.23-.733c.137-.732.228-1.51.274-2.243l-1.465-1.695h-.641l-1.328-.137s.503.275-1.008.137c-1.51-.137-.87.825-1.694-.274a10.99 10.99 0 0 0-1.74-1.832l-3.251-2.106-.366-.504c-.458-.504-.916-1.053-1.374-1.511l-.733-.366-.961-1.008-.092-.64s-.275-1.008-.366-1.237c-.092-.23-2.84-2.565-5.22-.504 0 0-.367.458-.367.733 0 .274-.503.961-.503.961s-1.74.825-2.107.641c-.366-.137-1.145-1.282-1.145-1.282s-.274-1.602-.458-1.831c-.137-.23-2.243-.367-3.205-2.427-.961-2.015.412-2.152.092-3.023-.367-.87-1.282-1.74-1.282-1.74s-.825-1.099-1.008-1.236c-.229-.137-1.236-.87-1.465-1.374-.183-.458-.412-.87-.641-1.282a5.358 5.358 0 0 1-.275-1.099s-.137-.64-.229-.87c-.091-.229-.733-1.373-.733-1.373s2.977.64 3.343-1.145c.367-1.832.275-2.381.275-2.381s.229-.23.504-.23c.274 0 1.144-.137 1.144-.137s-.87-.366-.961-.595c-.092-.229-.092-.595-.092-.778 0-.184-2.106-1.283-2.106-1.283s-1.008-.32-1.237-.503c-.228-.23-.732-.962-.732-.962L615.318 94s-1.602-.732-1.74-1.007c-.137-.275-.366-.962-.595-1.236-.229-.275-.458-.596-.733-.87l-2.564-1.328s-1.831-1.511-2.381-1.328c-.595.229-.641.275-.962-.092-.274-.366.23-.732-1.282-.824-1.51-.092-1.694.458-1.831-.092-.092-.412-.275-.778-.412-1.144-.092-.23-.275-.458-.413-.641l-1.099-1.145s-.595-2.335-.274-2.473c.274-.137-.367-.595-.367-.595l-.87.733-1.831.732-1.466.138s-1.007-.367-1.328-.413c-.366-.091-.778-.137-1.144-.229l-.962.367s-2.518 1.007-2.518 1.236c0 .23-.733.962-.962 1.237-.229.274-1.007.961-1.236.961-.23 0-.367.092-1.1-.229-.732-.275-1.602 0-2.014-.504-.458-.503-.641-.732-1.007-.732-.367 0-.87.275-1.237.412-.366.137-.595.504-.961.504-.367 0-1.466 0-2.748 1.236 0 0-2.564-.137-3.984 1.465 0 0-.366.092-.595-.274-.229-.367-.962 1.465-.962 1.74 0 .274-2.701 7.326-5.311 7.463l-.458-.274s.504 1.328.229 1.786c-.275.503-.55 1.51-.55 1.51l.825 1.924-1.237-1.74-.275 1.099.458 1.099-.458.229.596 1.282.55 1.969-1.054-.916s.504 4.167.412 4.396c-.046.229-.366 1.786-.412 2.06-.046.275-.229.916-.183 1.145.046.23.87 4.442.916 4.763.045.274.229 1.74.32 1.969.092.228 1.42 5.128 1.511 5.357.092.229.046.366.596.962.55.595-.046-.138 1.373 1.51 1.42 1.695 1.374 1.787 1.786 2.336.412.55.824 1.145.824 1.145l.458-.504.138 1.008s-.275 1.007.366 1.556c.641.596.595.641 1.236 1.145s2.107 1.19 2.93 1.694c.825.504 1.924.825 2.611 1.557.733.779 2.839 2.656 2.839 2.656s.595 3.71.641 4.259c.046.55.916 1.648 1.42 2.014l1.969 1.512.274-.55.275.962.504.55v.686s1.007.824 1.007 1.053v.779l-.32 1.236-.55.458-.55.229.321.87-.824.137.962 1.328-1.145-.687h-.367l-.549.092s-.092.229.046.733c.183.503 1.099 2.93 1.465 3.48.366.55 1.145 2.06 1.145 2.06l.961 2.519.321 1.007s.641 1.511.687 1.832c.046.32.64 1.465.275 1.42-.367-.046-.55 0-.55 0s1.511 2.197.824 2.655c-.687.504-1.144-.091-1.144-.091h-.504l-.962.778v.916l.183.183c-20.102-17.63-32.786-43.41-32.786-72.166 0-36.404 20.377-68.137 50.278-84.392v.32l-.228.32v.459l.137.55.641-.138.55-.32.412-.23s1.19-.961 1.19-1.328c0-.366.32-.229.32-.229l1.191-.412s.412-.137.779-.229c.32-.091.412-.55.412-.55l.458-.228s.412.091.64.091h.87s.78-1.099.78-1.42c0-.32.09-.64.09-.64h-.045l.87-.367.366.458.32.092-.228.778s-.779.641-1.19 1.1l-.962.961c-.32.32-.092.412-.092.412l.23.641 1.098.87 1.832-.55.55-.228 1.098-.641.641-.458h.779l.64-.55.55-.64 1.42-.642.87-.64c.87-.642.961-.138.961-.138l.55-.138c.55-.091 2.747-.778 2.747-.778s.641-.32 4.58-.55c3.937-.229.549-.412.549-.412l-1.328-.229c-1.282-.229-.32 0-.641 0-.32 0-.32 0-.779-.229-.457-.229-.091-.32-.091-.64 0-.321.55-.321.55-.321s.32-.23.87-.32c.549-.138 1.74 0 1.74 0s.961-.138 2.518-.321c1.511-.23.32 0 1.19-.092.87-.137 1.74-.229 2.061-.458.32-.229.412-.229 1.42-.64.32-.138.503-.23.595-.23l.504-.64s-1.191.136-1.512.136h-1.648c-.412 0-.641 0-.962-.137-.32-.091-.412-.091-.412-.091l-1.648-.092-1.19.092-.413.091-.778.229-.32.137c-.321.092-.642 0-.642 0h-.55l-.412-.137c6.549-1.465 13.234-2.29 19.92-2.381l.64.412.23.458.64.32-2.38-.412-1.1-.229h-.55l-1.281.092v.32l-1.649.321.779.092 1.282.229h2.747c2.29 0 .412.229.412.229l.321.229s.458.228.778.457l.55.413 3.068.091.641.23v.457l.229.778-1.97-.091h-1.74c-1.098 0-.96.229-.96.229s-1.74-.138-2.52-.23c-.778-.09-.549 0-.549 0s-.412-.09-.961-.228l-.962-.32-.87-.642.55-.64-1.1.09-.778.23h-.32l-.32.32-.87.55h-.413l-.55-.092h-.778L640 8.74l-.55.09-1.19.642-.23.55.779-.23 2.381-1.42.092.55-.55.32h-.32l-1.19.642h1.83l1.97-.092.32-.091.962-.23.778-.137.412.321-.228.458-.321.091-.412.23s-.412 0-.779.091a2.285 2.285 0 0 1-.55.092h-.96l1.098.412.779.137h.64l1.42-.229.962-.32.641-.321 2.06.137 2.931.092h2.29l2.747-.87h1.19l.962-.641.23-.458h2.197l1.511.092c1.511.091 1.19 0 1.19 0l-.228-.321-.092-.412-3.938-1.328.458.092s.32 0 2.29.137h.64c1.146.092.642 0 .642 0l.55-.32-.87-.23-.642-.228-.32-.092-.412-.137-1.1-.092-.32-.32h.779l1.648-.092.458-.32.183-.367 1.145.137-.092.641v.55l.55.32.87.55.55.229s0 .091.549.229c.55.137.091 0 .55.137.274.092.595.092.87.092v.32s-.138.092-.459.092h-1.007s-.412-.183-.595-.229l-.962-.32h-1.74l.641 1.098.32.32h.413l1.51-.411.321.32-1.282.55s.32 0-.32.091a22.99 22.99 0 0 0-1.282.321h-.32l.136.32 1.283.642h.32l.824.274c.23.183.458.458.825.779 3.48 3.388 1.327 1.51 1.327 1.51l-3.16-.32-.64.23-.55-.23-.412-.091-.32.55s-.23.32-.55.411l-1.19.458-2.61.641-2.153.32-.549-.228-1.649-.32-.778-.092-.87-.138-.32.23-.458.32-.779.55h-1.099l-1.282.091.412-.229.32-.32.413-.413-.138-.32-.64-.092-.962.32-.641.642-1.649.32-1.19-.64-.412-.23h-.962l-.412.092h-.962l-1.648-.32-1.649.64-2.518.779-1.878.137-1.74.55s0 .32-.55.778c-.549.412-1.19.32-1.19.32l-.87.642-.091.412s2.93-1.97-1.008.778c-3.938 2.702-.778 1.42-.778 1.42l2.198.32 1.74-.412 2.61-.32c1.648.412 2.518.64 2.518.64l1.832-.549h.458l1.099.641-.092.55.32.641c.413.32.78.55.78.55l1.968.32h2.519s.137.229.137.55c0 .32.779 1.74.779 1.74.961.778.961.87 1.42.961.411.138.64.23 1.327.32l.641.092s.55 1.328.458 0l-.137-1.282v-.64s.137-.321.458-.321c.32 0 .87-.092.87-.092s.091.092.457.092c.367 0 .23 0 .962-.321.779-.32.962 0 .87.32a3.037 3.037 0 0 1-.412.87c-.229.321.641-.87-.229.321-.87 1.19-4.121.962-.87 1.19 3.251.23 3.8 0 3.8 0s-.64-.64-.64-.961c0-.32.091-.778.091-.778s-.229.091.32-.413l.55-.549s.092-.778.32-.229c.138.366.184.778.092 1.19 0 0 .092-.137.55.23.55.412.961.64.961.64h.458l.641-.549h.779s-.092-.091.32.23l.412.32 1.191-.458.32-.32 2.52-.55.09-.32 2.382-.962.55.412s.09.137.64.32c.55.23.779.55.779.55s-1.74-.32-2.06.32l-.321.641 2.61.641.64.32.78.413s.137-.092.32.32l.55 1.1.411 1.098.779.458s.32.092.64-.091a2.335 2.335 0 0 1 .78-.32h2.61l.64.09.962-.32 1.328.779 1.923.916.504.503c.962 1.008 1.42 1.008 1.42 1.008l.549-.138.412-.229.962-.458h.55l.87-.549.96.55 1.1.549c.64 1.282.229.87.64 1.282.459.412 0 .32.459.412l.412.092.87-.412s.412-.092 1.831.64c1.42.78 1.512.321 1.42.78-.137.411-.412.549-.412.549s.091.229 0 .55c-.138.32-.23.778-.23.778l1.1-.779.32.092 1.328 1.328 1.1.32s.64.23.228-.32c-.412-.55-1.282-1.511-1.282-1.511l.641-.23s-.32.78.32 0l.642-.778s.412-.55.55-.229c.09.32-.23 0 0 .779.228.778 0-.092.228.778.23.87.55 1.328.55 1.328s.091.229.55.458c.411.229 1.419.412 1.419.412l-.23-.641-.228-.458s0-.092-.23-.55c-.228-.412-.09-.091-.32-.87-.183-.64.596-.686.825-.64 0 0 .137.137 1.144.549l1.511.641.642.641 1.419 1.42s.87.229.87.55c0 .32.55 1.098.55 1.098l.457-.091.458-.321.87.229.412.092.23.549s-.092-.32.32.32l.641.962.55.32.32-.228.458-1.1v-.32s-.137-.55.412-.091c.55.458.229.229.779.778l.549.55.229-.458s.55.55-.092-.55l-.64-1.099-.87-1.328-.642-.961-.091-.779.64.55s.321.32.642.412c.32.137.091.458.32.137.092-.137.275 0 .32 0l-.549-.687c-.961-1.282-.778-.412-.961-1.282-.23-.87-.32-1.19-.32-1.19s.09-.32 0-.641a24.377 24.377 0 0 1-.459-1.74l.458-.092 2.107-.733c-.23-.274-.413-.595-.596-.87-.87-1.42-1.328-1.74-1.328-1.74l-.32-.412-.779-.641-.87-1.42c.412-.228 1.42 0 1.42 0h.55V25.5a123.036 123.036 0 0 1 3.846 3.296l.091.23h-.778l.55.778.32.32.229.779s.091.32.091.64c0 .321.23.87.23.87s.64.871.64 1.191c0 .321-.64.092.23.962s.64.55.87.87c.228.32-.23-.412.228.32.458.78.962 1.512.962 1.512l-.32.412s-.138.091 0 .412c.091.32.32.641.32.641s.32.55 0 .641c-.32.092-.641.092-.641.092l-1.099-.87-1.099-.458-.229-.092s.32 1.1.32 1.42c0 .32-.228.64-.228.64l-.55.55-.55.55-.32 2.06v.779c0 .64.092 1.328.092 1.648 0 .32-.87-.64-.87-.64l-.138-.413c-.091-.458-.412-1.19-.412-1.19l-.229-.55a5.586 5.586 0 0 0-.32-.778l-.412-.092.137 2.93-.55-.549s.23.32-.32-.32c-.55-.642-1.007-1.191-1.007-1.191l-.641-.55s-.458.413-.779-.412l-.32-.87-.321.458-.55.092s-.091.32-.32.733c-.229.412-.366.87-.458 1.327 0 .321-.412.458 0 1.008.458.55.229.32.55.87.32.55.091-.23.32.55.229.778.55.32.229.778l-.32.412-.962.458-.55.64.23.78.411.32s-.228-.23.55.229c.778.412 1.19.961 1.19.961s-.091-.229.23.321c.32.55 0-.092.32.55.32.64.962 1.51.962 1.51s-1.054-.366.091.458l.458.321.55.366 1.282.825s-3.343-1.786-3.48-2.336a2.322 2.322 0 0 0-.779-1.374 6.402 6.402 0 0 1-.778-.64l-.87-.23-.412-.32h-.779s0 .229.138.641l.229.87.228.32.458.962-.458.55s-.228-.092-.228.64c0 .733-.413-.228 0 .78l.457.96s-.229.23.413.23h.64l2.153.87s0 .32.137.778c.092.412.641.962.641.962s-.091.091.55.55c.64.411.961.778.961.778l-1.969-1.1-1.099-1.419-.55-.458s-.457-.229-.549.138c-.091.32-.229.732-.229.732l.321 1.19.55.55-.458.962s.091.87-.321.962c-.458.091-1.511-.092-1.511-.092l.32-.55s.092-.32.092-.64c0-.321.092-1.1.092-1.1l-.23-.778s-.228-.32-.32-.641c-.091-.32-.229-.412-.32-.87-.092-.412-.32-.32-.641-1.099-.321-.778-.321-.87-.413-1.19l-.778-2.382-.87-1.969-.87-.778h-.32s-.23.229-.23.64v1.1s.092 0 0 .458c-.091.412-.091.961-.091.961l.229.641.778 1.74v.642s-1.282-.962.23.32c1.51 1.328 1.419.55 1.51 1.328l.092.779-1.007.228-3.48-2.29-.458-.32-2.519-1.648.641 1.511.32.641.413.779-.092.457s.641 0-.32.092l-1.008.092h-1.969l-.64.091-1.1-1.42-.64.642s-.321.32-.642.458c-.32.091-.87.32-.87.32l-1.74 1.19s.229.55-.55.459c-.778-.092-.549 1.74-1.19-.092l-.641-1.877.778-.458h.55v-.412s-.23-.458-.55-.55c-.32-.091-1.099-.412-1.099-.412l-.091.55-.092.549s-.229.32-.229.641c0 .32.23.55.23.87 0 .32-.092 1.007-.092 1.007l-.413.55s-.091.229-.64.137c-.55-.137-1.008-.137-1.008-.137l-1.099.229-.137.32-.275-.32v.778l-.32.55-.321.87h-.412l-.55-.55-.412-.091-.32-.55a2.812 2.812 0 0 0-.779-.87s-.092 0-.092.32c0 .321-.137-.64 0 .321.092.962.413 2.29.413 2.29s.32.458-.092.32c-.641-.229-1.328-.412-1.969-.64l-.229-.87s-.137-1.191-.137-1.512v-.87c0-.32.137-.55.32-.87.23-.32 0-.412-.137-1.099l.137-.64 2.381 1.648c.641.412.55.229.55.229s.55 0 1.007-.092q.412-.092 1.74-.641c1.328-.55.32-1.282.32-1.282l-.411-.779-.641-.778-.32-.32s-.093-.413-.413-.78c-.32-.32-.55-.64-.55-.64l-.32-.32c-.32-.321-.32-.55-.32-.55l-.55-.641-1.19-1.1s-.55.138-1.283-.32c-.778-.458 0 0-.32-.458-.32-.412.091-.64.091-.64l.138-.321c.091-.32-.23-.32-.55-.55-.32-.229-.32-.32-.64-.64-.321-.321-.321-.092-.321-.092s-.321-.23-.779-.641l-.778-.779-1.1-.229-.778.55s1.1 1.328-3.25.091c-1.283-.366-2.016-.55-2.428-.687-.412.23-1.74 1.054-1.969 1.328-.229.32-.137.32-.458.641-.32.32-1.74-.091-1.74-.091l-1.099.412c-1.099.458 0 0-.32.32-.32.321-.092.458-.092.458s-2.06.641-2.839.87c-.778.23-.458 0-.778 0s-.55.32-.55.32l-.778.321s-.23.321-.779.458c-.55.092-2.29.23-2.29.23l-.228-.321-.32-.32-1.1.32-1.74-.32-.961.64-.641.779s-.55-.092-.87-.092c-.321 0-.413.641-.413.641l-.091.641c-.092.458-.046.55 0 .55a6.28 6.28 0 0 0-1.282.55l-.32.87-1.1.228s.092.412.092.87.778 1.19.778 1.19l.32.413s.78.229 1.74.229h1.42l.55-.092.87-.32v.778c0 .412-.23.55-.55.962-.32.412-.64 1.74-.87 2.06-.229.32-.229.641-.229.641l-.229 1.1-.412 1.007-.229.412-.778.641-.412.412 1.007.962.32.32h.321s.32-.091 1.282-.778l.779.091h.55l1.19-.412s.55-.458 1.282-1.19c.778-.779 0 0 .229-.32.229-.321.55-.413.962-.87.457-.413 1.19-.321 1.19-.321s.32.137.641.137c.32 0 .779-.55.779-.55l1.19-1.19v-1.511l.23-1.1c.09-.411.09-.549.09-.549s.413-.457 1.1-.87c.64-.412.458-.229.961-.64l1.008-.642s.412-.091 1.282-.229c.87-.091 0 0 .961-.091.962-.092.413-.092.779-.32.32-.23 1.099-.87 1.099-.87s1.007-.413 1.511-.642c.229-.091.458-.183.641-.32l.55.091 1.19.87v.87l-.32.779-1.832.55c-1.877.549 0 0-.458.09-.412.138-.55.138-1.099.321-.55.23-.778 0-.778 0l-1.19.779s-.642.412-1.008.961c-.32.55 0 0-.092.55s-.229.778-.229.778-.229.412-.55.87c-.32.412-.32.55-.32.55v1.19l.137.87.779.23h.32l.413.228s.32.23 1.51.55c1.191.32 0 0 1.74.137 1.74.092 1.97.779 1.97.779l.091.549c.092.55.55.412.55.412s.55.779.778 1.328c.23.55.32.092.32.092s.23-.412.321-.779c.092-.32.092-.412.092-1.099v-1.099c0-.32.32 0 .32 0l.779.092.32.32.32.32.505.276v.686l-.504.962-.641.32-.641.23-.916.183c-.183-.367-.412-.275-.412-.275l-.412-.412c-.412-.412-.275-.275-.641-.275h-1.511c-1.283 0-.138.275-.138.275l-.412.733-.412.64-.229.321v.32l.092.367-.412.275s-.23-.138-.413-.504c-.229-.366 0-.275.092-.733.046-.458 0 0 .046-.229.091-.229.275-.274.64-.732.367-.412.276-.367.596-.412.275-.092-.137-.275-.137-.275s-.138-.092-.641-.504c-.504-.412-.367-.137-1.145-.732-.824-.596 0 0-.229-.138-.229-.137-.962-.229-1.328-.275-.366-.091-.275.092-.595.092-.32 0-.275.366-.275.366l-.641.23v.64c0 .367.183.367.183.367l.458.274-.229.504s-.275.366-.733.87c-.457.504-.091.367-.091.595 0 .23-.412.413-1.1.23-.64-.23 0 0-.045-.23-.092-.228-.137-.228-.229-.412-.092-.229-.092-.274-.137-.87-.092-.595-.138-.595-.138-.595l-1.236.366-.87.641-.458.23s.458-.23-.275.366c-.732.595-.274.503-.274.503s-.23.733-.23 1.1c0 .366.138.64.138.64l-1.282.596s-.138-.092-.504-.23c-.366-.137-.275-.09-.504-.274-.228-.229-.228-.137-.503-.137s0 0 0 .274c0 .275 0 .367.091.596a.356.356 0 0 1-.091.366l-1.1-.366c-1.098-.367 0 0-.594-.23-.596-.228 0 0-.092-.274-.092-.275-.092-.229-.229-.733-.137-.503-.092-.229-.092-.412v-.229H653.6c-.732 0 0 0-.64-.137-.642-.137-.459-.275-.962-.412-.504-.138-1.237-.092-1.466-.092h-.64s-.23 0-.596.275l-.137.641-.092.229s-.046.229 0 .366l-.366-.091.091-.504-.137-1.099s-.046-.366-.092-.55c0-.366 0-.274.092-.87 0-.137 0-.32.046-.457l-.138-.275-.64.091-1.008-.091h-.229c-.366-.412-.962-.779-.962-.779l-.229-.87c-.229-.87-.091-.55-.091-.55s.091-.549.229-1.19c.091-.64 0 0 .55-.458a.738.738 0 0 1 .32-.183v.092l.137.55.138.32h.412c.229-.412.229-.87.229-.87l-.184-.183a3.938 3.938 0 0 0 .825-.916c.412-.641 0 0 .778 0 .779 0 0 0 0-.32 0-.321 0-.321.092-.642.091-.32.32-.32.32-.32l.641-.641c.32-.32-.229-.55-.229-.55l-.64.32-.321-.09-.412-.55-.55-.138-.55.458.642.092.229.458-.23.412-.457.229-.55-.32-.55-.138-.228.32-.229.413-.641.457-.229.413v.412l-.092.412-.32.778-.092.55c-.091.55-.961.412-.961.412l-.275.412s-.183 0-.962.275c-.824.274 0 0-.32-.367-.32-.366 0 0-.32-.778-.321-.733 0 0-.825.641-.824.641-.229.137-.504.046-.274-.092-.091-.275-.32-1.145-.23-.87-.138-.275-.824-.183-.687.091-.046.229-1.145 1.145-1.1.915-.367.137-.824.045-.458-.091 0 0 .137-.595.091-.595.275-.595.229-.87-.046-.275-.366.229-1.008.595-.595.367-.229.138-.64.32-.459.184-.23.138-.504.413-.275.32-.092.275-.23.824-.09.55-.366 0-.549-.046-.137-.045 0-.457 0-.457s-.503-.184-.87-.184c-.366 0-.275 0-.961-.274-.733-.275-.184-.046-.779-.458-.595-.367-.275 0-.595.32-.32.32-.366.092-.916.641-.55.55-.55 0-1.236.046-.733.046 0 0-.367-.366-.366-.367 0 0-.366-.046s-.183.275-.275.595c-.091.32-.183.046-.87-.32-.732-.367-.274-.138-.64-.87-.367-.687 0-.138.045-.779.046-.595-.137-.32-.55-.458-.366-.091-.228.32-.366.87-.183.55-.046.138-.64.55-.596.366-.138 0-.321-.092-.138-.137-.55-.274-1.145-.778s-.092-.32-.23-.824c-.09-.504-.365-.23-.915-.412-.55-.23-.229-.321-.55-.504-.32-.138-.137.275-.503.732-.32.458-.137.55-.046.687.046.184.183.367.32.55.23.275 0 0 .367.55.366.549.046.182.046 1.51v.596s-.046 0-.092.045c-.366.275-.091.23-.595.825s0 .55.046.916c.045.366.137.32-.092.824-.275.503-.366.275-.595.687-.23.412 0 .32-.275.87s-.32-.23-.641-.092c-.32.092-.183.046-.412.229-.275.137-.275.504-.412.824-.183.32.137.412-1.695.779-1.877.32-.183.366-.87.687-.686.32-.366-.275-1.053-.825-.64-.55-.137-.595-.137-.595h-.55c-.32 0-.366-.412-.55-.778-.182-.32-.274-.504-.274-.825 0-.32-.229-.229-1.19-1.648-.962-1.42-.641-.87-.825-1.19-.137-.321-.686-.825-.961-1.145-.275-.321-.412 0-.733-.092-.275-.046-.275 0-.687-.275-.458-.274-.229-.091-.366 0-.137.092-.137.596-.778 1.42-.596.824-.504.229-.504.229s-.504.366-.641.595c-.183.229-.87 1.282-.87 1.282s-.916.641-1.42 1.008c-.503.366-.732.32-.916.503-.229.138-.686.23-1.42.504-.732.275-.32.55-.32.778 0 .23.138.367.138.779 0 .412-.641.778-1.145 1.374-.504.595-.229.503-.32.778-.092.275-.23.412 0 .687.228.275 0 0 .824.64.824.642.137.138.091 2.245-.046 2.06-.229.595-.32.961-.092.367 0 .504 0 .504l1.694.458.366.32s.275.504.687 1.1c.412.595.779.778.962.87.229.137.412.274.824.503.366.229.595-.091.595-.091l.55-.23c.55-.228.87.275.87.275s.229.504.64 0c.413-.503 1.97-.55 1.97-.55h.366s.092-.137.138-.87c.045-.686.183-.228.274-.411.138-.23.55-.367.87-.504.32-.137.504-.32 1.145-.366.641-.046.412-.275.595-.32.138-.047.596-.138.916-.321.32-.184.275 0 .595.183.321.137.367.137.687.229.32.045.641.045.87.229.23.183.412 0 1.649 0 1.236 0 .504-.23.87-.504.366-.275.458-.641.732-1.374.275-.732.092-.229.321-.229s.87.092 1.19.183c.321.046.321.092.687.275.367.183.458.458.458.458l.092.366h.504s.045.184.045.504.092.504.184.687c.045.275.183.504.32.778.23.413.046.184.55.275.503.138.229-.091 1.144-.366.916-.275.23.046 1.145.55.916.503.366.045 1.511 0 1.145-.138.275-.138.596-.138.32 0 .549.229.549.229l.412.916s.23.64.366 1.19c.184.55 0 .275-.183.687-.183.412-.091.412-.229.824-.091.367-.091.32-.32.779-.23.458.046.458.046.916s.091.55.183.824c.046.275.046.55.091.87.046.32.046.458.138.641.137.229-.092.778-.092.778v.184s.32.824.412.961c.183.23.367.412.55.595.366.367.275.23.458.55.137.32.137.366.137.778 0 .412.046.458.229.87.183.413.229 0 .229 0l.183.367s.046.366.046.595c0 .229-.137.275-.183.55-.046.274 0 .228.137.457.183.23.138.23.32.367.23.137-.045.64-.045.87 0 .229-.092.64-.092.824 0 .183-.183.275-.458.595-.274.32-.183.23-.412.32-.275.092-.183.23-.32.367-.138.137-.092.275-.367.55-.274.274 0 0-.32.137-.32.183 0 0-.138.183-.091.183.184.504.184.504h.55s.32-.366.778-.366c.457 0 .778-.55.778-.55l.962-.641c.32-.229 0-.778 0-.778s.412-.413.64-.779c.23-.32.321-.229.642-.229h.458l.55.32-.092.642c-.092.64 0 0 .091.55.092.549 0 0 .412 0s.412-.459.412-.459v-.778l-.229-.641c-.091-.32-.229-.32-.229-.32l-.32-.55-.32-.55-.23-.32-.457-.779-.184-.961.55-.458-.32-.23c-.321-.228-.413-.228-.413-.228s-.32 0-.64-.55c-.321-.55 0 0-.321-.32-.32-.32-.092-.412-.23-.87-.137-.412-.137-.55-.137-.962 0-.412.138-.778.23-1.19.09-.458.32-.641.32-.962 0-.32-.092-.641-.092-.641s-.229-.32-.32-.641c-.138-.32-.138-.458-.138-1.099s.23-.641.32-1.099c.092-.458.092-.55.642-.778.55-.23.137-.55.137-.55h1.466s.503.137.961.137c.458 0 0 0 .138.367.137.366-.367.366-.733.824-.366.412 0 0-.366.962-.367.961.137.274.412.091.274-.229.366-.137.961-.366.55-.23.367 0 .367 0l.366.504-.366.87c-.367.87-.138.274-.046.595.046.458 0 .916-.138 1.374-.137.503 0 .412 0 1.099 0 .686.092.274.367.961.274.641.091.23.503.595.413.367.367.596.733.733s0 .229.137.733c.138.503.23.458.413.595.229.137.412.778.412.778s.137 1.1.137 1.603c0 .504 0 .23.366.824.367.596.092.275 0 .504-.091.229-.412.366-.412.366l-.137.641h-.412l-.092.779s-.229.137-.64.229c-.459.046-.092.458-.092.64 0 .184.091.276.228.963.138.64.138.778.138.778l.091 1.007.092.596.275.778-.23.092h-.457l-.275.137s.092.366.275.641l.595.779.275.229s.137.137.595.137c.458 0 .23.137.641.275.458.137.367.274.641.503.275.23.23.504.23.504l1.007.824.366-.732v-.413s1.603.779-.595-1.144c-2.152-1.97 0-.733 0-.733s.229-.092.366-.412c.137-.366 0-.641 0-.87 0-.229.23-.137.23-.366 0-.23.09-.275.136-.641.092-.367.23-.138.641.091.413.23 0 .275 0 .275l1.283.733s.229-.367.229-.642c0-.274.274-.366.274-.366h.412l.596.23s.229.09.412.228c.229.137.504-.046.504-.046l.228-.091.23.229.137.366.824.092s.137.228.275.778c.137.595.137.366.137.366l.824.641.367-.412h.274l.138-.503s.137.137.366.228c.23.046 1.328 1.1 1.832 1.649.183.183.366.32.595.412h-.137l-.183.092-.275.229s-.87.137-1.008-.138c-.137-.275-.274-.229-.503-.595l-.23-.366s-.137.274-.137.503v.23l-.595-.504-.412-.23-.504-.366-.503-.091s-.23-.092-.275.229l-.092.274-1.007.413-.138.412s-.366.091-.366.274c0 .184-.366.596.138.641l.503.092s.23-.824.367-.275c.137.504.229.641.229.87 0 .23-.138.962-.138.962l-.778-.32s-.23-.092-.23.137.367.961.367.961.229.55.137.779l-.091.412v.595s.366.824.412 1.008c.092.229-.092.229.137.503.23.275.275.367.458.641.183.367.412.733.641 1.1.138.228.23.961.825 1.236.595.274.732.503 1.007.412.275-.092-.412-.367.641-.367s.641-.503 1.465 0c.779.504.504.23 1.237.962.732.733 1.831 2.06 2.38 2.335.596.275-.411.458.825.092s1.877-.824 1.877-.824.275-.092.596 0c.274.091 1.602 1.007 1.602 1.007l-.274.504s-.138-.092-.23.366c-.09.412-.411 2.748-.64 2.977-.23.229-.367.229-.596.366-.229.137-.595.275-.87.595-.274.275-.87.412-1.236.779-.366.366-.275.366-.87.87-.595.503-.595.274-1.007.87-.413.595-1.008 1.19-1.008 1.19s-.366.641-.64.87c-.276.23-.642.367-.642.367s0 .229-.733.091c-.732-.137-.137-.137-1.007-.458-.87-.274-.962-.503-1.145-.412-.229.046-.137-.137-.366.412q-.23.596-.275.87c-.091.275-.137.138-.091.641.091.504.091.641.091.87 0 .23.137.504.137 1.237 0 .732-.091.732.092 1.099.137.366-.229-.275.137.732.367 1.008.23.962.367 1.237.137.274-.641.732.366.412 1.008-.275 1.694-.412 1.694-.87s-.778.137.23-.87l1.007-1.008s.503.23.137.504c-.366.275-.733 1.145-.962 1.649-.228.503-.457.091-.274.64.137.596.274.962.274.962s.87 1.603.87 1.832c0 .229-.137.137 0 1.007.138.87.413 2.015.504 2.565.092.503.138.503.138.778s.045.458-.138.733c-.229.274-.64.229-.229.64.412.413 1.008 1.237 1.008 1.237s-.23-1.465.274.504.641 2.38.641 2.793c0 .412.413-.366 0 .595-.412.916-.595.916-.595 1.282v.825s-.137 0 .138.595c.274.595.229.595.412.916.229.366-.596-1.237.595.595q1.145 1.786 1.145 2.198c0 .366-.092.366 0 .733.091.366.137.503.229.732.091.23-.138-.137.274.687.413.779.504 1.1.504 1.1s.137-.505.275.411c.137.962.504-.64.091 1.466-.412 2.106-.778 2.976-.778 2.976s-.137-.046-.137.412c0 .458-.092 1.328-.138 1.603-.091.274-.961.137-.091.778s-1.878.87 1.144.87c3.023 0 .23 0 3.435-.229 3.205-.183 1.831-.275 3.709-.275 1.877 0 2.976.138 3.617 0 .641-.137-.366.596 1.008-.274 1.373-.87 2.472-1.832 2.472-1.832s-.366-.091.412-.091c.779 0 2.244.183 2.61.183.367 0 .046.229.367 0l1.374-.916s.274-.23 1.373-.366c1.1-.184.733-.092 1.603-.184.87-.045-.137.641 2.015-.137 2.198-.778.961-1.145.961-1.145s-.458-.183.412-.366q.87-.229 1.145-.366c.275-.138-.275-.138.641-.458.962-.275.367-.138 1.237-.504.87-.366.961-.366 1.236-.595.275-.183.595-.504.733-.779a5.81 5.81 0 0 0 .274-.732l.367-.55.595-.64s.412.09.641.09c.229 0-.504.962 1.236-.961 1.74-1.877 1.374-1.603 1.74-1.877.367-.32.596-.23.596-.596s-.596-.87-.596-.87l-.228-.55a5.537 5.537 0 0 1-.825-.228c-1.236-.366-3.617-1.42-3.068-3.572.596-2.106.367-1.74.367-1.74l-.504.458s-.229.092-.595.641c-.275.458-.641 1.19-.779 1.42l-.183.091c-.412.183-.824.367-1.236.504l-.504.275-.733.458a2.375 2.375 0 0 1-1.373.137c-.23-.092.64-.092-.458-.092h-1.511c-.641 0-.412.32-.962-.045-.504-.367.366-.092-.641-.458-1.007-.367-1.603 0-1.007-.367.595-.366.457-.229.778-.595.366-.366.595-.641.733-.87.137-.229 0 .458.137-.229s.229-1.236.229-1.465c0-.23-.87 0-.87 0s-.092.275-.229.503l-.641 1.008s-.366.366-.504-.138c-.137-.503-.137-.228-.137-.503v-.504c0-.275-.092-.458.091-.641.138-.229.367-.504.367-.733 0-.229-.412-.32-.504-.595-.092-.275-.229-.504-.366-.778a8.016 8.016 0 0 1-.275-.641s-.275-.23-.504-.779c-.229-.595.046-.504 0-.824-.091-.275.23.137-.137-.595-.366-.733-.412-.87-.504-1.1-.091-.228-.503-.732-.503-.96 0-.23-.779.182 0-.23.824-.458.961-.595 1.19-.733.183-.091.366-.183.595-.274l1.603-.641.412.137s.275-.366.824.595c.504.962.504.641.733 1.466.229.778.275.64.275 1.144 0 .504.091 1.328.137 1.557.092.183 0 .138.138.367.137.229 0 .137.412.503.732.596 1.51 1.19 2.335 1.74.275.138-1.877-.458.504.458 2.38.87 1.373.55 1.877.504.504-.046.504 0 .824-.229a2.606 2.606 0 0 1 1.328-.504c.733-.137.23-.137 1.008-.366.778-.229.732-.824.87 0 .137.778.229 1.282.229 1.511 0 .183-.87.137.091.504.962.366-2.106-.367.962.366 3.068.733 2.106.641 3.572.824 1.465.138 2.472.183 2.884.275.412.092.138.137.825 0 .64-.137.961-.366 1.282-.366.32 0 2.427-.275 2.61-.367.229-.091.366.367 1.602-.229.596-.274.916-.412 1.145-.503l-.091.824.412.137.55.092v1.19l.09.321.55-.32 1.1-.55 1.648-.55c.778-.549 0-.228.778-.549.779-.32.138 0 .779-.32.64-.321.961-.55.961-.55s.412.55.138.87c-.32.366-.87 1.099-.87 1.099s.229 0-.32.229l-.55.229c-.55.229-.87.229-.87.229l-.642-.23-.549.413s-.32-.092-.55.229c-.137.229-.228.504-.32.778l.778.321s-.64.641.55.092c1.19-.55.87-.092 1.19-.55.321-.412.87-.778.642-.32-.23.412-.779 1.099-.779 1.099s-.32.32-.733.549c-.457.229-1.099.458-1.099.458s-.32 0 0 .458c.321.412-.229 0 .321.412.55.458.87.641.87.641h.55s.778 0 1.327-.412l.55-.412.87-1.1.55-.64s.64.87.549 1.19c-.137.32-.412.412-.55.87-.091.458-.091.32-.32.87-.23.55-.23 1.19-.32 1.511-.092.321-.23.321-.321.779v.137c0-.046.046-.183-.092.87-.229 1.511-.229 2.06-.229 2.06v1.191c0 .32-.091.458 0 1.191.092.778.23.87.23 1.74 0 .55-.321.55-.55.458.183.916.274 1.786.32 2.702 0 0-.229.229-.229.64 0 .459.092.78.092.78s-.55.87.32.09c.87-.778.55-.09.87-.778.321-.64.321-.87.779-1.19.458-.32.87-.55 1.099-.87.229-.32.091-.184.778-.87l1.19-1.19c.459-.459.642-.78.962-1.191.321-.458.779-1.649.779-1.649s-.092-.412.229-.87c.32-.412-.87.87.64-1.42 1.512-2.289.78-1.51 1.512-2.289.778-.778-.641.32 1.328-1.42s1.099-.64 1.511-1.282c.412-.64.229-.87.962-1.648.778-.779 1.51-1.649 1.969-2.06l2.747-2.748s.23-.641.412-1.19c.23-.55.32-.23.55-1.329.137-.824.503-1.602.961-2.29l.32-.457s.321-.412.642-.55c.32-.091.87-.412.87-.412l.55-.55c.412-.411.87-1.098.87-1.098l.64-.87s.138.32.138.778.091.87.091.87l.458.458.413.412v.916zM668.665 11.44s-.23-.138-.55-.412c.275.137.504.274.55.412zm21.659 97.855s-.321 0 .32.32l.641.32.458 1.1v1.19l.779.779.412.091.412.87-.55 1.42-.091.412.32.778s.23.779-.091 1.1c-.32.32 0-.78-.32.32-.321 1.099 1.098 1.831 1.098 1.831 0 .87-.32 1.1-.32 1.1v.411l.412.642s-.092.228-.092.549c0 .32-.092.641-.229.962l-.229 1.099v.87l-.229.32-.229.641-.64.183s-.23.138-.55.23c-.32.091.32.091-.87.091-.779 0-1.557 0-2.336-.092-.137-.274-.274-.55-.412-.778l-.412-.641s0 .229-.778-.55l-.779-.778s-.64-.87-.64-1.328c0-.458-.138-.32 0-.778.09-.413.549-1.328.549-1.328l.87-.55.091-1.099.55-.55c.32-.32.32-.411.778-.411h.458s.641-.092.229-.458a2.546 2.546 0 0 0-.778-.412l-.321-.55c-.229-.32-.092-.32-.229-.778-.092-.458-.32-.779-.412-1.191-.092-.412-.412-.962-.412-.962s-.87-.64-.962-1.42c-.091-.778-.091-.32-.091-.778 0-.457-.138-1.098-.138-1.098s-.32-.23.138-.458c.412-.23.778-.641.778-.641l-.229-.184h-.091l-.321-.274-.641-.412-.092-.55.23-.32.778-.642s.32.641.64-.229l.321-.87.32-1.099.55.458.87.092.458-.55.412-.457.962-.092s-1.282-.229.229-.32l1.511-.092 2.381.091s0-.32.092.55c.091.87.229.32 0 1.42-.23 1.098.64 1.51-.32 1.51h-1.008l-.962.23s-.32-.23-.32.412v.64l-.412.87c-.321-.64-.23-.87-.321-.64-.092.229-1.19-.412-1.19-.412l.137.64zm-9.662 13.37-.32-.32v-.092l.32.367zm-6.457-22.62-.64-.092.09.87s.642.779-.09.779h-1.65l-.411-.138-.641.138.549.87-.092.55s-.091.32.138.64.229.55.412.87c.229.32.55.55.55.55s.091.458.411.64c.321.23.779.87.87 1.191.092.32.23.55.321.87.092.321.32.23.55.55.228.32-.458-.412.228.32.642.779.413.321.779 1.191.32.87.32 1.877.32 1.877l-.412.641s-.32.321-.64.413c-.321.137-.78.32-.78.32l-.778.32-.55.138-1.006-.778s-.733-1.374-.596.274l-.229-.091-.732-.32s-.138-.138-.596-.413c-.412-.275-.274-.733-.732-.733-.458 0-.275-.137-.87-.457-.596-.275-.596 0-1.008-.733-.458-.733.275-.137-.458-.733-.732-.595-.87-.732-1.328-.87-.412-.137-1.007-.458-1.007-.458l-1.282-.595h-.595c-.412 0-.412-.137-1.145-.137h-.733s.23-.138-1.007.137l-1.237.275s-1.236-.504-1.694-.641c-.412-.138-.503-.504-.778-.641-.275-.138-.275-.367-.596-.596a6.99 6.99 0 0 0-.732-.503c-.23-.138-.138-.275-.138-.275l-.274-.366-.23-.367-.09-.412v-.32l.09-.641-.09-.23-.138-.412.137-.366.412-.275.412-.229.23-.412s.228-.137.411-.229l.413-.137.64-.137.23-.641.274-.413.092-.412.458-.595.275-.229.366-.091s.275.137.733.274l.366.138.366-.138v-.412l-.366-.504.595-.595v-.366l.504-.23s.229-.136.595-.136.641.137.641.137l.412-.504.23-.275h1.144l.458-.503.778 1.74.413-.55.32.55v.55l.137.32.092.458.778.64.321.138.32-.137.55-.23.55-.09h.32l.779.09c.549-.09.87-.228 1.19-.228.32 0-.229.091.32 0 .55-.092.23-.23 1.191 0l1.008.229 1.282.32s.091.092.412.092h.32s1.74-.641 1.19 0c-.549.641-.64.962-.64.962h-.779s.32 0-.32-.092zm-18.408 22.666.55.092h1.19l.413-.55.961-.412H657.4l-.962-.32-1.648-.092.137.778.87.55zm4.58-57.421-.092.137c.183-.092.091-.137.091-.137zm3.892 1.969c.091-.32.091-.641.091-.641l-.87-.23-.412.413-.458.229 1.1.137s.457.412.549.092zm52.522-35.442h-.092zM643.068 6.816s.183-.046 0 0zm52.521 147.492zm19.233 11.402.229.137c-.138-.687-.23-.137-.23-.137zm-45.379-95.886s-.137.183 0 0zm1.053-23.674.138-.091s-1.008-.23-.138.091zm-6.868 16.073-.138-.458-.55-.092-.09.641.411.458.32-.55zm-37.366 26.146h.23l.87-.55s.411-.549.549-.778l.366-.824h-.275c-.274 0-.274-.046-.503-.137-.23-.092-.275-.184-.458-.046-.138.091-.32.32-.32.32s-.138.367-.23.641c-.091.275-.274.55-.366.916-.137.367.092.412.092.412zm1.97 11.448c-.321-.32-.55-.458-.642-.641-.137-.23-.137-.596-.32-.596s-.596-.228-.596-.228c-.137-.092-.64-.138-.64-.138v1.145s.274.229.366.366c.091.183.183.412.274.641.046.183.23.23.275.504.046.275.32.55.641.87.32.32.275.824.275.962 0 .137.137.412.137.412l.458-.412s.367.229.412-.184c.046-.366.046-.457.184-.595.091-.137-.687.046.32-.32l1.053-.367.275-.503s-1.603-.825-1.74-.825-.366.23-.687-.091zm-3.069-10.898s-.55-.092-.686-.184c-.138-.045-.367-.412-.367-.412l-.412 1.054s-.046.686-.091.87a2.427 2.427 0 0 1-.367.686c-.229.275-.366.55-.824.825-.412.274-.229.458-.229.458l.366.503s.23-.274.367-.366c.183-.092.412.504.412.641l.595-.32 1.236-1.512c.275-.32.596-.595.596-.595s.091-.687.137-.87c.046-.183-.092-.55-.092-.55l-.64-.137zm15.89 22.07c.275-.228.229-.274.275-.503l.228-.824c.138-.595.596.275 1.008 0 .229-.138.412-.366.504-.641l-1.97-1.282s-.412-.504-.64-.733c-.23-.229-.504-.137-.504-.137h-.595s-.23.412-.23.64c0 .23.138.275 0 1.1-.137.778-.274.366-.457.64-.138.275.091.367.091.367l.733.137s-.092.413-.137 1.008c-.092.595.091-.138.503-.23.458-.09.275.092.458.367.138.275.138.779.138.779s.274-.504.595-.733zm26.833-9.89-.229-.32c-.229-.321 0-.458 0-.87 0-.413-.32-.55-.32-.55l-1.19.092s-.55-.092-1.1-.092h-.641c-.32 0-.137.32-.137.32s.458.413.778.321c.32-.092.412.778.412.778l-.55.87s0 .55.55.962c.55.458 0 0 .32 0l.962.458 1.328-.32s.55 0 1.19-.092c.642-.092 0 0 .78-.412.228-.138.366-.23.457-.23l-1.007-.274-1.649-.55zm-23.72 15.202-.274-.274s-.138-.23-.412-.275c-.275-.092-.596-.412-.596-.412l-.229-.137s-.274-.275-.366-.413l-1.007-.366-.779-.458s-.091.23.092.504c.275.366.595.64.961.87.138.091.275.229.367.366l.366.367.412.732 1.237.138.503.137s.138-.229.092-.412c-.092-.23-.275-.275-.275-.275zm26.422-14.332s.091-.092-.092 0zm-39.151-45.195-.412-.23-.641-.411-.321.228v.55l-.458.55h-.87c-.32 0-.412-.23-.412-.23l-.641.321.229.32.091.413.458.64.55.23c.55.229.229.55.229.55h-.87l-1.1-.321s-.411-.23-.778-.32c-.32-.092-.55 0-.55 0h-.32l-1.42.457 1.1.641.961.641.32-.137 1.512.778.32.32.642.55.64.779.413.458c.412.412.778.55.778.55l.779-.23-.138-.64-.091-.413c4.579.641 2.747-1.877 2.747-1.877l-.458-.55.32-.641v-.55l.413-.549.641-.641.229-.641s-.32-.23-.32-.55c0-.32.32-.64.32-.64l.412-.321c.412-.32.092-.412.229-1.19 0-.138 0-.276.046-.413l.504-.778.32-.32.55-.321.778-.23c.778-.228 0 0 .641-.411.641-.413.32-.962.32-.962l-.228-.32c-.23-.321-.092-.413-.092-.413l.229-.412.32-.091h.321l.87-.413-.092-.64s-1.74.228-2.06.32l-.641.229-.412-.23-.55.23-.137.32-.55.23-.87.228-.64.32.96.092-.182.413-.32.32-1.191.779.64.32-.32.641-.55.092c-.549.137-.64.32-.64.32l-.138.32.779.23.229.55-.32.228c-.321.23-.23.32-.23.32v1.008l-.55.641h-.87c-.503 0-.549.046-.457.138zm9.845-24.178c.091.32.091.412.229.779.091.32.32.778.32.778l.55.641 1.877.229.412.092.641.55 1.282-.23h.458l.32-.412c.321-.412.138-.32.321-.641.23-.32.23-.412.23-.778 0-.367 0-.321-.092-.642-.092-.32-.412-.229-.641-.64-.23-.413 0 0-1.19-.87-1.191-.87-.413-.413-.78-.87-.32-.413 0 0 0-.321 0-.32-.09-.687-.228-1.008-.092-.32-.641.23-.641.23v.32c0 .32-.23.55-.23.55l-.87.09h-.411s0 .413-.413.55c-.412.092-.32.23-1.19.642-.87.412 0 .64.092.961zm54.49 18.729c.321.549-.64-.23.642.961l1.328 1.19s.091.321.412.459c.32.091 1.51.091 1.51.091l-.09-.458-.642-.778-.229-.32s-.32-.321-.412-.87c-.137-.55-.229-.413-.229-.962v-1.1s-.091-.549.092-.87c.183-.274.32-.549.412-.87l.458-.778.091-.64 1.191-1.65c.778-.32.962-.228 1.099-.549.092-.32.32-.55.32-.87 0-.32.23-.64-.137-.64-.32 0-.412-.093-.641.228-.229.32.092-.229-.229.32-.32.55.229.55-.32.55-.55 0 .137.092-.55 0l-.641-.092-.55.55-.32.55-.458.412-.55.64s-.091.23-.228.642c-.092.458 0 .64-.23 1.007l-.411.641s-.23.87-.413 1.42c-.229.55-.55.778-.55.778s-.457.092-.136.55c.32.412 0-.092.32.412zM649.02 64.603l-.55.412-.228.458-.137.778-.779.092-.092-.32-.457-.321v.55l.64.549h.413l.55-.23.64-.411s.412-.32.733-.641l.32-.32.23-.321-.962-.23h-.458zm-39.563-43.685.779-.412.412-.32s.137-.32.55-.87c.411-.55.778.091.778.091l.778-.091c.779-.138.55-.779.55-.779l.64-.32c.642-.32.78-.55.78-.55s.411-.137 1.419-.55c.961-.411-.32 0-.32 0s-.321 0-1.191.138c-.87.092 0 0-1.97-.32-1.968-.32 0 0-1.098 0h-.321s-1.648 1.969-1.969 2.518l-.32.55-.642.778-.549.32-.092.55s.32-.137.779-.137l1.099-.55zm16.256 33.657.32.32 1.191.412.641-.137 1.328-.87c.32-.23.32-.412.32-.412l.55-.092.412-.137.87-.092.412-.961v-1.42l-.229-.64-1.648.411-1.603-.412c-1.648-.458-.87 0-.87 0l-.32.779v.32l-.092.55-.412.412-.55-.092h-.412l-.412-.092-.55.23-.411.412-.321.549.55.778 1.327.23zm33.015 12.088.32-.091s.642 0 .962-.641c.137-.275.183-.412.23-.504-.138.092-.321.137-.459.183l-.778.23-.641.32-.87.64v.321l-.092.367.87-.641s.092 0 .412-.092zM482.388 48.76v35.81c-3.068-3.526-7.052-6.32-11.997-8.289-4.946-2.014-10.532-3.022-16.851-3.022-13.737 0-24.727 3.755-32.97 11.219-8.196 7.464-12.317 17.721-12.317 30.726 0 11.31 4.167 20.56 12.5 27.749 8.335 7.189 18.638 10.806 30.818 10.806 7.418 0 13.6-1.007 18.59-3.068 4.992-2.014 9.434-5.266 13.326-9.753v10.257h25.963V48.714h-27.154zm-5.266 82.149c-4.03 4.258-9.89 6.365-17.63 6.365-7.738 0-13.462-2.107-17.262-6.411-3.801-4.259-5.678-9.982-5.678-17.08 0-6.594 1.877-12.135 5.586-16.622 3.71-4.442 9.57-6.685 17.584-6.685 5.22 0 9.845 1.236 13.783 3.663 6.456 4.03 9.661 10.806 9.661 20.24 0 6.73-2.014 12.225-6.044 16.484zm-77.57-14.516c0-22.895-11.722-43.18-44.05-43.18-27.154 0-46.752 14.79-46.752 40.204 0 25.413 21.933 40.341 50.782 40.341 11.218 0 22.3-1.465 32.007-4.854V130.13c-9.066 4.259-18.408 5.907-26.65 5.907-14.744 0-23.948-4.12-25.643-14.79h60.307zm-60.672-10.211c.687-8.884 5.861-16.119 16.76-16.119 12.088 0 16.759 7.235 16.759 16.119zm-34.16-14.516v-16.85h-26.467V47.66H266.76l-16.943 10.624V74.86h-11.585v16.85h11.585v36.496c0 9.525 2.702 16.302 8.06 20.194 5.403 3.938 13.6 5.953 24.635 5.953 4.945 0 9.112-.23 12.546-.596a87.697 87.697 0 0 0 9.708-1.648v-17.126h-2.381c-.962.504-2.61 1.007-4.991 1.603-2.381.595-4.305.87-5.77.87-3.572 0-6.273-.458-8.105-1.42-1.877-.961-3.16-2.243-3.892-3.846a12.83 12.83 0 0 1-1.236-5.495c-.046-2.06-.092-4.442-.092-7.19V91.759h26.467zM196.93 75.594h28.482v75.142H196.93Z" class="united-domains-blue"/>
	<ellipse id="ellipse2" cx="211.032" cy="56.224" fill="#0f396d" stroke-width="4.579" class="united-domains-blue" rx="15.157" ry="12.638"/>
	<path id="path3" fill="#0f396d" stroke-width="4.579" d="M152.008 150.873v-40.158c0-9.524-2.518-16.256-14.424-16.256-11.905 0-14.424 6.732-14.424 16.256v40.158H94.266v-45.287c0-24.772 18.866-32.374 43.318-32.374 24.452 0 43.318 7.602 43.318 32.374v45.287zM27.458 74.037v41.44c0 9.845 2.29 16.805 13.004 16.805 10.715 0 13.05-6.96 13.05-16.805v-41.44h26.055v46.752c0 25.597-17.034 33.473-39.105 33.473-22.071 0-39.105-7.876-39.105-33.473V74.037h26.055Z" class="united-domains-blue"/>
</svg>
