<svg xmlns="http://www.w3.org/2000/svg" width="96" height="96" fill="none">
    <path fill="#F50C00" d="M10 12a2 2 0 0 1 2-2h72a2 2 0 0 1 2 2v6H10v-6Z"/>
    <path fill="#FFA8A3" d="M10 18h76v46a2 2 0 0 1-2 2H12a2 2 0 0 1-2-2V18Z"/>
    <path fill="#F50C00" d="M16 24h30v36H16V24Z"/>
    <path fill="#001B41"
          d="M79 26H51a1 1 0 0 1 0-2h28a1 1 0 0 1 0 2Zm1 5a1 1 0 0 0-1-1H51a1 1 0 0 0 0 2h28a1 1 0 0 0 1-1Zm-8 6a1 1 0 0 0-1-1H51a1 1 0 0 0 0 2h20a1 1 0 0 0 1-1Z"/>
    <path fill="#fff"
          d="M13 14a1 1 0 1 1 2 0 1 1 0 0 1-2 0Zm9 1a1 1 0 1 0 0-2 1 1 0 0 0 0 2Zm-4 0a1 1 0 1 0 0-2 1 1 0 0 0 0 2Z"/>
    <path fill="#001B41"
          d="M68 71v-6l-4.698-1.678a15.862 15.862 0 0 0-1.176-2.83l2.138-4.512-4.242-4.242-4.512 2.138a15.862 15.862 0 0 0-2.83-1.176l-1.678-4.698h-6L43.324 52.7c-.988.302-1.934.698-2.83 1.176l-4.512-2.138-4.242 4.242 2.138 4.512a15.862 15.862 0 0 0-1.176 2.83L28.004 65v6l4.698 1.678c.302.988.698 1.934 1.176 2.83L31.74 80.02l4.242 4.242 4.512-2.138c.896.478 1.842.874 2.83 1.176l1.678 4.698h6L52.68 83.3a15.862 15.862 0 0 0 2.83-1.176l4.512 2.138 4.242-4.242-2.138-4.512c.478-.896.874-1.842 1.176-2.83L68 71Z"/>
    <rect width="27" height="2" x="39.196" y="57.747" fill="#FFA8A3" rx="1" transform="rotate(45 39.196 57.747)"/>
    <rect width="27" height="2" x="37.783" y="76.839" fill="#FFA8A3" rx="1" transform="rotate(-45 37.783 76.839)"/>
</svg>