<svg xmlns="http://www.w3.org/2000/svg" width="96" height="96" fill="none">
    <path fill="#EF8300" d="M10 12a2 2 0 0 1 2-2h72a2 2 0 0 1 2 2v6H10v-6Z"/>
    <path fill="#FFEDCA" d="M10 18h76v46a2 2 0 0 1-2 2H12a2 2 0 0 1-2-2V18Z"/>
    <path fill="#EF8300" d="M16 24h30v36H16V24Z"/>
    <path fill="#001B41"
          d="M79 26H51a1 1 0 0 1 0-2h28a1 1 0 0 1 0 2Zm1 5a1 1 0 0 0-1-1H51a1 1 0 0 0 0 2h28a1 1 0 0 0 1-1Zm-8 6a1 1 0 0 0-1-1H51a1 1 0 0 0 0 2h20a1 1 0 0 0 1-1Z"/>
    <path fill="#fff"
          d="M13 14a1 1 0 1 1 2 0 1 1 0 0 1-2 0Zm9 1a1 1 0 1 0 0-2 1 1 0 0 0 0 2Zm-4 0a1 1 0 1 0 0-2 1 1 0 0 0 0 2Z"/>
    <path fill="#001B41"
          d="M68 71v-6l-4.698-1.678a15.862 15.862 0 0 0-1.176-2.83l2.138-4.512-4.242-4.242-4.512 2.138a15.862 15.862 0 0 0-2.83-1.176l-1.678-4.698h-6L43.324 52.7c-.988.302-1.934.698-2.83 1.176l-4.512-2.138-4.242 4.242 2.138 4.512a15.862 15.862 0 0 0-1.176 2.83L28.004 65v6l4.698 1.678c.302.988.698 1.934 1.176 2.83L31.74 80.02l4.242 4.242 4.512-2.138c.896.478 1.842.874 2.83 1.176l1.678 4.698h6L52.68 83.3a15.862 15.862 0 0 0 2.83-1.176l4.512 2.138 4.242-4.242-2.138-4.512c.478-.896.874-1.842 1.176-2.83L68 71Z"/>
    <path fill="#FFEDCA"
          d="M48 77.305c.417 0 .775-.15 1.076-.45.301-.302.452-.66.452-1.077 0-.417-.15-.776-.452-1.077-.3-.3-.66-.451-1.076-.451-.417 0-.776.15-1.076.451-.301.301-.452.66-.452 1.077 0 .416.15.775.452 1.076.3.301.66.451 1.076.451Zm0-6.222c.398 0 .73-.132.993-.395.264-.264.396-.595.396-.993v-7.862c0-.398-.132-.729-.396-.993a1.347 1.347 0 0 0-.993-.396c-.398 0-.73.132-.993.396a1.347 1.347 0 0 0-.396.993v7.862c0 .398.132.729.396.993.264.263.595.395.993.395Z"/>
</svg>