<?xml version="1.0" encoding="UTF-8"?>
<svg xmlns="http://www.w3.org/2000/svg" id="arsys" viewBox="0 0 320 200">
  <defs>
    <style>.arsys-gray{fill:#323232;}</style>
  </defs>
  <path class="arsys-gray" d="M221.02,117.29c2.74,2.31,7.06,3.46,12.82,3.46,6.05,0,10.66-1.15,13.54-3.31,3.03-2.31,4.61-5.48,4.61-9.8,0-2.88-.86-5.04-2.59-6.77-2.02-1.73-5.62-3.17-10.81-4.47l-3.03-.58c-6.34-1.3-9.22-3.03-9.22-5.48,0-1.73.72-3.03,2.02-3.89,1.3-.72,3.03-1.15,5.48-1.15s4.47.58,6.05,1.73l.14.14.43.43c.32.3.61.64.86,1.01,1.44,1.73,2.31,2.31,3.6,2.31h5.48c-.43-3.31-1.87-6.05-4.32-8.21-3.03-2.31-7.2-3.46-12.39-3.46-4.75,0-8.65,1.15-11.67,3.46-2.74,2.45-4.18,5.33-4.18,9.08,0,2.88.86,5.04,2.74,6.77,1.73,1.73,5.33,3.31,10.66,4.61h.14c.86.29,2.31.58,4.18.86,2.02.43,7.78,1.58,7.78,5.48,0,1.15-.43,2.88-2.45,4.03-1.58.86-3.46,1.3-5.62,1.3-2.88,0-5.33-.58-7.06-1.73-1.58-1.15-2.45-2.59-2.74-4.61h-8.5c0,3.75,1.44,6.77,4.03,8.79Z"></path>
  <path class="arsys-gray" d="M194.36,128.96c1.73-1.3,3.17-3.46,4.32-6.48l15.27-43.23h-5.91c-2.16,0-3.46.86-3.89,2.74l-8.5,27.81-9.22-30.55h-9.65l13.98,37.75c1.15,3.17,0,4.9-1.01,5.76-1.44,1.15-2.74,1.01-5.62,1.01h-.72v6.77h2.31c4.03,0,6.92-.14,8.65-1.58Z"></path>
  <path class="arsys-gray" d="M144.22,117.29c2.74,2.31,7.06,3.46,12.82,3.46,6.05,0,10.66-1.15,13.54-3.31,3.03-2.31,4.61-5.48,4.61-9.8,0-2.88-.86-5.04-2.59-6.77-2.02-1.73-5.62-3.17-10.81-4.47l-3.03-.58c-6.34-1.3-9.22-3.03-9.22-5.48,0-1.73.72-3.03,2.02-3.89,1.3-.72,3.03-1.15,5.48-1.15s4.47.58,6.05,1.73l.14.14.43.43c.32.3.61.64.86,1.01,1.44,1.73,2.31,2.31,3.6,2.31h5.48c-.43-3.31-1.87-6.05-4.32-8.21-3.03-2.31-7.2-3.46-12.39-3.46-4.75,0-8.65,1.15-11.67,3.46-2.74,2.45-4.18,5.33-4.18,9.08,0,2.88.86,5.04,2.74,6.77,1.73,1.73,5.33,3.31,10.66,4.61h.14c.86.29,2.31.58,4.18.86,2.02.43,7.78,1.58,7.78,5.48,0,1.15-.43,2.88-2.45,4.03-1.58.86-3.46,1.3-5.62,1.3-2.88,0-5.33-.58-7.06-1.73-1.58-1.15-2.45-2.59-2.74-4.61h-8.5c0,3.75,1.44,6.77,4.03,8.79Z"></path>
  <path class="arsys-gray" d="M120.59,99.28v21.61h-9.51v-20.17c0-4.18.72-7.64,2.02-10.37s3.31-4.9,5.62-6.48,5.04-2.74,8.21-3.46c3.21-.75,6.5-1.13,9.8-1.15v7.92h-2.31c-4.47,0-7.78,1.01-10.09,3.03-2.45,1.73-3.75,4.9-3.75,9.08Z"></path>
  <path class="arsys-gray" d="M100.13,82.13c-3.03-1.87-7.78-2.88-13.98-2.88-5.48,0-9.65,1.15-12.54,3.46-1.62,1.1-2.88,2.65-3.6,4.47-.29.43-.29,1.44,1.15,1.44h7.64c.72-1.15,1.87-1.87,3.31-2.16,1.54-.47,3.14-.71,4.75-.72,1.8-.03,3.6.22,5.33.72,2.45.72,3.6,2.31,3.6,4.32,0,4.18-6.63,5.04-8.79,5.33l-4.9.58c-4.18.58-7.78,1.73-10.37,3.6-2.59,1.73-3.75,4.61-3.75,8.65,0,4.47,1.44,7.49,4.18,9.37,2.88,1.87,6.34,2.88,10.23,2.88l7.06-.43c2.59-.29,5.04-.86,7.35-2.02,2.02-1.01,3.89-2.59,5.48-4.75,1.58-2.31,2.31-5.33,2.31-9.37v-14.55c0-3.46-1.44-6.05-4.47-7.92ZM95.95,104.18c0,3.31-1.01,6.05-3.17,7.92s-4.9,2.88-8.5,2.88c-2.31,0-4.03-.58-5.33-1.58-1.3-1.15-2.02-2.74-2.02-4.75,0-1.44.14-3.17,1.58-4.47,1.15-1.01,2.74-1.73,5.04-2.31l4.03-.86c2.74-.58,4.9-1.3,6.48-2.02l1.73-.86h.14v6.05Z"></path>
</svg>
