<?xml version="1.0" encoding="UTF-8"?>
<svg xmlns="http://www.w3.org/2000/svg" id="fasthosts" viewBox="0 0 320 200">
  <defs>
    <style>.fasthosts-blue{fill:#031a4a;}</style>
  </defs>
  <path class="fasthosts-blue" d="M266.22,103.52c-3.15-.79-5.14-1.28-5.14-2.9s1.08-2.24,3.86-2.24c2.89.02,5.72.87,8.14,2.46l4.92-5.95c-3.68-2.32-7.95-3.51-12.3-3.42-7.63,0-12.87,2.71-12.87,10.28,0,5.44,4.92,6.81,9.05,7.77,2.85.71,5.39,1.23,5.39,2.95,0,2.24-1.48,2.46-4.16,2.46-3.63-.16-7.13-1.4-10.06-3.54l-4.92,5.44c4.03,3.11,9.01,4.73,14.1,4.58,7.77,0,13.01-2.29,13.01-9.84,0-5.49-4.63-6.81-9.1-7.97"></path>
  <path class="fasthosts-blue" d="M244.89,92.06l1.8-8.56s-7.53.52-8.44,3.17c-.15.49-.47,1.85-1.25,5.39h-4.77l-1.48,6.81h4.72l-2.46,12.15c-1.33,6.42,0,9.84,7.97,9.84,1.43,0,3.32,0,4.48-.12l1.43-6.64h-2.98c-3.39,0-3.49-1.23-3-3.47l2.46-11.86c1.24.12,2.48-.01,3.67-.39,1.65-1.99,3.11-4.14,4.33-6.42l-6.47.1Z"></path>
  <path class="fasthosts-blue" d="M216.94,98.38c2.89.02,5.72.88,8.14,2.46l4.92-5.95c-3.68-2.32-7.95-3.51-12.3-3.42-7.63,0-12.87,2.71-12.87,10.28,0,5.44,4.92,6.81,9.05,7.77,2.85.71,5.39,1.23,5.39,2.95,0,2.24-1.48,2.46-4.16,2.46-3.64-.17-7.14-1.4-10.09-3.54l-4.92,5.44c4.04,3.08,9.02,4.66,14.1,4.48,7.8,0,13.04-2.29,13.04-9.84,0-5.49-4.63-6.81-9.1-7.97-3.17-.79-5.14-1.28-5.14-2.9s1.06-2.24,3.86-2.24"></path>
  <path class="fasthosts-blue" d="M192.83,107.29c-1.01,4.92-2.95,7.38-7.58,7.38s-5.86-2.09-5.86-5.14c0-1.15.13-2.3.37-3.42,1.01-4.92,2.95-7.38,7.63-7.38s5.81,2.14,5.81,5.24c-.03,1.13-.17,2.26-.42,3.37M201.44,102.79c0-6.81-3.89-11.34-13.53-11.34-8.66,0-14.05,3.81-16.14,13.48-.32,1.67-.49,3.37-.49,5.07,0,6.86,3.86,11.44,13.51,11.44,8.71,0,14.05-3.86,16.09-13.53.36-1.69.57-3.41.62-5.14"></path>
  <path class="fasthosts-blue" d="M159.42,91.4c-2.66-.13-5.28.7-7.38,2.34l2.61-12.3s-7.53.52-8.44,3.17c-.34,1.06-7.9,36.29-7.9,36.29h8l3.44-16.21c.66-3.25,1.85-5.71,6.15-5.71,5.66,0,5.09,2.76,4.38,6.32l-3.3,15.6h8.02l3.57-16.48c1.48-7.16,1.57-12.96-9.1-12.96"></path>
  <path class="fasthosts-blue" d="M134.08,92.06l1.77-8.56s-7.53.52-8.41,3.17c-.17.49-.49,1.85-1.28,5.39h-4.77l-1.48,6.81h4.72l-2.58,12.15c-1.33,6.42,0,9.84,7.97,9.84,1.43,0,3.32,0,4.48-.12l1.43-6.64h-2.9c-3.42,0-3.52-1.23-3.03-3.47l2.46-11.86c1.24.12,2.5-.01,3.69-.39,1.64-2,3.08-4.15,4.31-6.42l-6.37.1Z"></path>
  <path class="fasthosts-blue" d="M106.09,98.38c2.89.02,5.72.87,8.14,2.46l4.92-5.95c-3.68-2.32-7.95-3.51-12.3-3.42-7.63,0-12.87,2.71-12.87,10.28,0,5.44,4.92,6.81,9.05,7.77,2.93.64,5.39,1.16,5.39,2.93,0,2.24-1.48,2.46-4.16,2.46-3.63-.16-7.13-1.4-10.06-3.54l-4.92,5.44c4.07,3.11,9.1,4.71,14.22,4.5,7.77,0,13.01-2.29,13.01-9.84,0-5.49-4.63-6.81-9.1-7.97-3.15-.79-5.14-1.28-5.14-2.9s1.06-2.24,3.86-2.24"></path>
  <path class="fasthosts-blue" d="M78.9,108.91c-1.03,4.72-2.46,6-6.77,6s-4.92-1.03-4.92-2.71c0-3.71,2.46-4.38,8.29-4.38h3.67l-.27,1.08ZM86.01,111.59l1.62-7.77c1.67-8.09.96-12.3-11.14-12.3-4.11-.1-8.18.83-11.83,2.71l2.9,5.93c2.32-1.05,4.83-1.61,7.38-1.67,4.58,0,5.61.76,5.61,2.29,0,.55-.07,1.1-.22,1.62h-3.67c-10.48-.05-17.44,2.09-17.44,10.68,0,4.92,2.21,8.24,10.68,8.24,3.29.33,6.57-.76,9-3,.57,2.19,1.6,2.66,4.28,2.66,1.14.06,2.29-.01,3.42-.22l1.43-6.49c-2.46,0-2.46-.62-1.94-2.66"></path>
  <path class="fasthosts-blue" d="M59.22,98.48c1.62-1.99,3.04-4.14,4.23-6.42h-6.69l.37-1.53c.47-2.29,1.38-3.44,4.72-3.44h2.68l1.38-6.62h-4.23c-7.95,0-10.87,2.71-12.3,9.25l-.52,2.46h-5.39l-1.48,6.69h5.44l-4.92,23.27s6.86-1.6,7.68-1.87c.48-.18.82-.6.91-1.11l4.33-20.3c1.28.13,2.57,0,3.79-.39"></path>
</svg>
