<?xml version="1.0" encoding="UTF-8"?>
<svg xmlns="http://www.w3.org/2000/svg" id="ionos" viewBox="0 0 320 200">
  <defs>
    <style>.ionos-blue{fill:#003d8f;}</style>
  </defs>
  <path class="ionos-blue" d="M238.01,126.83c-.83,0-1.86-.14-2.68-.34-3.92-.83-7.29-3.23-9.28-6.6v-.14c-1.03-1.99-.34-4.4,1.51-5.43.69-.34,1.38-.48,1.99-.48,1.51,0,2.89.83,3.58,1.99l.14.14.48.48.48.48c.69.69,1.72,1.03,2.68,1.38,1.51.34,3.23,0,4.54-1.03,1.38-1.03,2.2-2.54,2.34-4.06.14-1.72-.48-3.37-1.51-4.4,0,0-12.31-12.65-12.86-13.34-.34-.34-.83-.83-1.51-1.72-1.72-2.54-2.2-5.43-1.99-8.12.14-1.99.69-3.92,1.72-5.78,0,0,.48-1.03.69-1.17.69-1.03,1.86-2.2,2.89-2.89.83-.69,1.99-1.17,2.34-1.38,2.34-1.17,5.43-1.72,8.46-1.03,3.71.83,7.08,3.23,8.94,6.4.48.83.69,1.99.48,3.03-.34,1.03-1.03,1.99-1.86,2.54-.69.34-1.38.48-1.99.48-1.51,0-2.89-.83-3.58-1.99-.83-1.38-1.99-2.2-3.58-2.54-1.58-.34-3.03,0-4.4,1.03-1.17.83-1.86,2.2-1.99,3.92-.14,1.51.34,3.03,1.51,4.06l12.52,12.86c2.68,2.89,4.2,6.74,3.92,10.66-.34,4.06-2.34,7.63-5.43,9.97-2.61,1.99-5.64,3.03-8.53,3.03"></path>
  <path class="ionos-blue" d="M198.26,126.83c-7.43,0-13.55-6.05-13.55-13.55v-26.55c0-7.43,6.05-13.55,13.55-13.55s13.55,6.05,13.55,13.55v26.68c0,7.36-6.12,13.41-13.55,13.41M198.26,81.38c-2.89,0-5.43,2.34-5.43,5.43v26.68c0,3.03,2.34,5.43,5.43,5.43,2.89,0,5.43-2.34,5.43-5.43v-26.68c0-2.89-2.54-5.43-5.43-5.43"></path>
  <path class="ionos-blue" d="M168,116.17v-38.86c0-2.34-1.86-4.06-4.06-4.06-2.34,0-4.06,1.86-4.06,4.06v22.14l8.12,16.71Z"></path>
  <path class="ionos-blue" d="M145.58,75.67s0-.21,0,0c-.69-1.38-2.2-2.34-3.71-2.34-.34,0-.48,0-.83.14-1.86.34-3.23,1.99-3.23,3.92v1.03l22.28,46.28c.69,1.38,2.2,2.2,3.58,2.2.34,0,.69,0,1.03-.14,1.86-.34,3.23-1.99,3.23-3.92v-.83c-.07-.07-21.73-45.18-22.35-46.35"></path>
  <path class="ionos-blue" d="M145.92,100.84v21.94c0,2.34-1.86,4.06-4.06,4.06s-4.06-1.86-4.06-4.06v-38.86l8.12,16.92Z"></path>
  <path class="ionos-blue" d="M107.34,126.83c-3.58,0-6.95-1.38-9.49-3.92-2.54-2.54-3.92-5.91-3.92-9.49v-26.68c0-3.58,1.38-6.95,3.92-9.49,2.54-2.54,5.91-3.92,9.49-3.92s6.95,1.38,9.49,3.92c2.54,2.54,3.92,5.91,3.92,9.49v26.68c0,3.58-1.38,6.95-3.92,9.49-2.54,2.54-5.91,3.92-9.49,3.92M107.34,81.38c-1.38,0-2.68.48-3.71,1.51-1.03,1.03-1.51,2.34-1.51,3.71v26.68c0,1.51.48,2.89,1.51,3.71,1.03,1.03,2.34,1.51,3.71,1.51s2.68-.48,3.71-1.51c1.03-1.03,1.51-2.34,1.51-3.71v-26.55c0-1.38-.48-2.68-1.51-3.71-.96-.96-2.34-1.65-3.71-1.65"></path>
  <path class="ionos-blue" d="M72.4,126.83c-2.54,0-4.4-1.99-4.4-4.4v-44.91c0-2.34,1.99-4.4,4.4-4.4,1.99,0,3.71,1.38,4.2,3.23v45.8c.34,2.68-1.72,4.68-4.2,4.68"></path>
</svg>
