<svg viewBox="0 0 24 24" fill="none" xmlns="http://www.w3.org/2000/svg">
<path d="M9 6H4V13.5H9V6Z" fill="#001B41"/>
<path d="M9 13.5H4L7.369 21.2005C7.4485 21.3825 7.6285 21.5 7.827 21.5H9.4335C9.734 21.5 9.967 21.2365 9.9295 20.938L9 13.5Z" fill="#95CAEB"/>
<path d="M2 6H4V13.5H2C1.448 13.5 1 13.052 1 12.5V7C1 6.448 1.448 6 2 6Z" fill="#1474C4"/>
<path d="M19 2.5H17.5V17H19V2.5Z" fill="#95CAEB"/>
<path d="M22.75 10H20.25C20.112 10 20 9.888 20 9.75C20 9.612 20.112 9.5 20.25 9.5H22.75C22.888 9.5 23 9.612 23 9.75C23 9.888 22.888 10 22.75 10ZM20.4 6.45L22.4 4.95C22.5105 4.867 22.533 4.7105 22.4505 4.6C22.367 4.489 22.2105 4.467 22.1005 4.55L20.1005 6.05C19.99 6.133 19.9675 6.2895 20.05 6.4C20.0995 6.4655 20.1745 6.5 20.25 6.5C20.302 6.5 20.355 6.4835 20.4 6.45ZM22.4505 14.9C22.533 14.7895 22.5105 14.633 22.4 14.55L20.4 13.05C20.29 12.968 20.1335 12.9895 20.05 13.1005C19.9675 13.211 19.99 13.3675 20.1005 13.4505L22.1005 14.9505C22.1455 14.984 22.198 15.0005 22.2505 15.0005C22.326 15.0005 22.4015 14.966 22.4505 14.9005V14.9Z" fill="#001B41"/>
<path d="M11.5 6H9V13.5H11.5C14 13.5 16.5 15 17.5 17V2.5C16.5 4.5 14 6 11.5 6Z" fill="#1474C4"/>
</svg>
