<svg viewBox="0 0 48 49" fill="none" xmlns="http://www.w3.org/2000/svg">
<path d="M17 17.5H7V41.5H14.143C15.721 41.5 17 39.965 17 38.071V17.5Z" fill="#95CAEB"/>
<path d="M12.5 39.5C11.121 39.5 10 38.379 10 37C10 35.621 11.121 34.5 12.5 34.5C13.879 34.5 15 35.621 15 37C15 38.379 13.879 39.5 12.5 39.5ZM12.5 35.5C11.673 35.5 11 36.173 11 37C11 37.827 11.673 38.5 12.5 38.5C13.327 38.5 14 37.827 14 37C14 36.173 13.327 35.5 12.5 35.5Z" fill="#001B41"/>
<path d="M43 20.5C43 18.843 41.657 17.5 40 17.5H27L28.789 9.31098C28.907 8.77198 28.969 8.22198 28.973 7.66998C28.989 5.81098 27.728 4.18298 25.924 3.73198L24.999 3.50098L16.999 17.501V38.046L18.936 39.983C19.908 40.955 21.226 41.501 22.6 41.501H36.999C38.656 41.501 39.999 40.158 39.999 38.501C39.999 36.844 38.656 35.501 36.999 35.501H37.999C39.656 35.501 40.999 34.158 40.999 32.501C40.999 30.844 39.656 29.501 37.999 29.501H38.999C40.656 29.501 41.999 28.158 41.999 26.501C41.999 24.844 40.656 23.501 38.999 23.501H39.999C41.656 23.501 42.999 22.158 42.999 20.501L43 20.5Z" fill="#1474C4"/>
</svg>
