<svg viewBox="0 0 48 49" fill="none" xmlns="http://www.w3.org/2000/svg">
<path d="M5 6.5C5 5.948 5.448 5.5 6 5.5H42C42.552 5.5 43 5.948 43 6.5V9.5H5V6.5Z" fill="#1474C4"/>
<path d="M5 9.5H43V32.5C43 33.052 42.552 33.5 42 33.5H6C5.448 33.5 5 33.052 5 32.5V9.5Z" fill="#95CAEB"/>
<path d="M8 12.5H23V30.5H8V12.5Z" fill="#1474C4"/>
<path d="M39.5 13.5H25.5C25.224 13.5 25 13.276 25 13C25 12.724 25.224 12.5 25.5 12.5H39.5C39.776 12.5 40 12.724 40 13C40 13.276 39.776 13.5 39.5 13.5ZM40 16C40 15.724 39.776 15.5 39.5 15.5H25.5C25.224 15.5 25 15.724 25 16C25 16.276 25.224 16.5 25.5 16.5H39.5C39.776 16.5 40 16.276 40 16ZM36 19C36 18.724 35.776 18.5 35.5 18.5H25.5C25.224 18.5 25 18.724 25 19C25 19.276 25.224 19.5 25.5 19.5H35.5C35.776 19.5 36 19.276 36 19Z" fill="#001B41"/>
<path d="M6.5 7.5C6.5 7.224 6.724 7 7 7C7.276 7 7.5 7.224 7.5 7.5C7.5 7.776 7.276 8 7 8C6.724 8 6.5 7.776 6.5 7.5ZM11 8C11.276 8 11.5 7.776 11.5 7.5C11.5 7.224 11.276 7 11 7C10.724 7 10.5 7.224 10.5 7.5C10.5 7.776 10.724 8 11 8ZM9 8C9.276 8 9.5 7.776 9.5 7.5C9.5 7.224 9.276 7 9 7C8.724 7 8.5 7.224 8.5 7.5C8.5 7.776 8.724 8 9 8Z" fill="white"/>
<path d="M34 36V33L31.651 32.161C31.5 31.667 31.302 31.194 31.063 30.746L32.132 28.49L30.011 26.369L27.755 27.438C27.307 27.199 26.834 27.001 26.34 26.85L25.501 24.501H22.501L21.662 26.85C21.168 27.001 20.695 27.199 20.247 27.438L17.991 26.369L15.87 28.49L16.939 30.746C16.7 31.194 16.502 31.667 16.351 32.161L14.002 33V36L16.351 36.839C16.502 37.333 16.7 37.806 16.939 38.254L15.87 40.51L17.991 42.631L20.247 41.562C20.695 41.801 21.168 41.999 21.662 42.15L22.501 44.499H25.501L26.34 42.15C26.834 41.999 27.307 41.801 27.755 41.562L30.011 42.631L32.132 40.51L31.063 38.254C31.302 37.806 31.5 37.333 31.651 36.839L34 36Z" fill="#001B41"/>
<path d="M22.6669 39C22.4999 39 22.3439 38.916 22.2509 38.777L19.5839 34.777C19.4309 34.548 19.4929 34.237 19.7229 34.084C19.9499 33.931 20.2619 33.992 20.4159 34.223L22.6669 37.599L27.5839 30.223C27.7379 29.993 28.0499 29.933 28.2769 30.084C28.5059 30.237 28.5689 30.548 28.4159 30.777L23.0829 38.777C22.9899 38.916 22.8339 39 22.6669 39Z" fill="#95CAEB"/>
</svg>
