<svg xmlns="http://www.w3.org/2000/svg" viewBox="0 0 40 40">
  <path fill="#fff" d="M20 0A20 20 0 0 0 0 20a20 20 0 0 0 20 20 20 20 0 0 0 20-20A20 20 0 0 0 20 0Zm-.034 6.828c.49 0 .964.01 1.424.029.46.018.903.046 1.332.084a23.502 23.502 0 0 1 1.824.231 17.95 17.95 0 0 1 1.099.224 14.333 14.333 0 0 1 1.002.28 11.403 11.403 0 0 1 .905.337 9.073 9.073 0 0 1 .807.393c.126.07.248.142.366.217a8.282 8.282 0 0 1 .664.48 6.825 6.825 0 0 1 .571.519 5.872 5.872 0 0 1 .48.559 5.326 5.326 0 0 1 .553.917 5.192 5.192 0 0 1 .355 1.017 5.89 5.89 0 0 1 .13.735 6.864 6.864 0 0 1 .046.784v9.143c0 .314-.008.62-.022.917-.015.297-.036.585-.066.864a12.01 12.01 0 0 1-.264 1.568 9.173 9.173 0 0 1-.199.703 7.78 7.78 0 0 1-.244.649 6.71 6.71 0 0 1-.29.594 5.915 5.915 0 0 1-.337.54 11.868 11.868 0 0 1-.782.974 9.867 9.867 0 0 1-.84.826 8.65 8.65 0 0 1-.9.682 8.095 8.095 0 0 1-.966.543 14.51 14.51 0 0 1-1.677.673 13.8 13.8 0 0 1-2.334.549c-.2.03-.402.054-.605.076-.847.067-1.642.127-2.385.169-.37.021-.728.038-1.072.05a29.35 29.35 0 0 1-.99.018 13.128 13.128 0 0 1-2.63-.254 11.363 11.363 0 0 1-1.61-.456 10.41 10.41 0 0 1-2.194-1.119 5.75 5.75 0 0 1-.618-.467 5.272 5.272 0 0 1-.984-1.15 5.446 5.446 0 0 1-.367-.687 6.133 6.133 0 0 1-.285-.763 7.276 7.276 0 0 1-.202-.842 8.97 8.97 0 0 1-.122-.922 11.332 11.332 0 0 1-.04-1.004 12.283 12.283 0 0 1 .036-.93 9.688 9.688 0 0 1 .108-.856 7.752 7.752 0 0 1 .18-.78 6.353 6.353 0 0 1 .254-.709 5.428 5.428 0 0 1 .327-.636 4.89 4.89 0 0 1 .627-.824 4.744 4.744 0 0 1 .793-.671 11.264 11.264 0 0 1 1.362-.779c.242-.118.491-.231.748-.338a16.8 16.8 0 0 1 2.508-.809 20.784 20.784 0 0 1 1.883-.366l3.047-.395c.171-.02.385-.048.63-.084a16.348 16.348 0 0 0 1.253-.235 11.338 11.338 0 0 0 .925-.26c.154-.052.308-.108.459-.17a6.41 6.41 0 0 0 .442-.198 4.358 4.358 0 0 0 .797-.497 3.215 3.215 0 0 0 .48-.47 2.525 2.525 0 0 0 .245-.363 2.256 2.256 0 0 0 .277-1.109 3.269 3.269 0 0 0-.035-.475 2.68 2.68 0 0 0-.107-.436 2.399 2.399 0 0 0-.738-1.07 2.934 2.934 0 0 0-.381-.275 3.836 3.836 0 0 0-.449-.236 4.902 4.902 0 0 0-.513-.194 9.867 9.867 0 0 0-.903-.258 8.595 8.595 0 0 0-.837-.151 10.013 10.013 0 0 0-.804-.07 16.5 16.5 0 0 0-.808-.017c-.274 0-.542.008-.804.025a10.37 10.37 0 0 0-.768.079 8.85 8.85 0 0 0-.73.134 7.63 7.63 0 0 0-.99.299 3.782 3.782 0 0 0-.81.454 3.504 3.504 0 0 0-.842.893h-4.853a1.62 1.62 0 0 1-.306-.026.89.89 0 0 1-.223-.072.558.558 0 0 1-.152-.106.465.465 0 0 1-.135-.276.697.697 0 0 1-.006-.148.926.926 0 0 1 .055-.263 6.355 6.355 0 0 1 .648-1.173 6.759 6.759 0 0 1 .573-.716 7.426 7.426 0 0 1 .686-.659c.123-.105.251-.207.384-.308a7.818 7.818 0 0 1 .724-.5 8.596 8.596 0 0 1 .801-.437 9.698 9.698 0 0 1 .878-.37 11.185 11.185 0 0 1 .955-.304 13.05 13.05 0 0 1 1.03-.237 15.364 15.364 0 0 1 1.107-.17 18.171 18.171 0 0 1 1.182-.103 21.503 21.503 0 0 1 1.257-.035zm6.005 11.953-1.129.497a9.06 9.06 0 0 1-.8.337c-.291.11-.607.216-.947.32-.34.104-.704.207-1.094.308-.39.1-.805.2-1.245.299l-2.517.496h-.034a17.005 17.005 0 0 0-.998.306 9.737 9.737 0 0 0-.834.338 6.494 6.494 0 0 0-.705.388 5.353 5.353 0 0 0-.612.458 2.872 2.872 0 0 0-.847 1.36 3.785 3.785 0 0 0-.09.366 4.529 4.529 0 0 0-.055.363 5.607 5.607 0 0 0-.035.7 5.214 5.214 0 0 0 .077.878 4.109 4.109 0 0 0 .23.79 3.65 3.65 0 0 0 .634 1.024c.09.103.187.202.29.298l.033.034a3.546 3.546 0 0 0 .662.436 4.17 4.17 0 0 0 .782.31 6.255 6.255 0 0 0 .898.185 7.307 7.307 0 0 0 1.01.062 10.77 10.77 0 0 0 1.585-.117c.25-.04.494-.088.73-.146a7.81 7.81 0 0 0 1.336-.461 6.827 6.827 0 0 0 1.168-.682c.18-.132.354-.273.52-.422a6.144 6.144 0 0 0 .674-.74 5.876 5.876 0 0 0 .815-1.444 6.439 6.439 0 0 0 .217-.649 7.653 7.653 0 0 0 .249-1.414 9.1 9.1 0 0 0 .032-.765z"/>
</svg>
