<svg xmlns="http://www.w3.org/2000/svg" viewBox="0 0 40 40">
  <path fill="#fff" d="M11.929 24.734v4.123H7.413v-2.55s.073-1.558 1.602-1.558c1.02-.015 2.914-.015 2.914-.015z"/>
  <path fill="#fff" d="M23.757 10.721v2.68h-2.943v-1.66s.044-1.02 1.05-1.02h1.893z"/>
  <path fill="#fff" d="M17.29 16.708h-5.755v-6.322h3.57s2.184.102 2.184 2.243v4.079z"/>
  <path fill="#fff" d="M6.364 31.828H9.19v3.103H7.442s-1.078-.044-1.078-1.107v-1.996z"/>
  <path fill="#fff" d="M16.62 23.831h-3.162v-3.467h1.967s1.209.058 1.209 1.238c-.015.772-.015 2.229-.015 2.229z"/>
  <path fill="#fff" d="M21.251 7.953h-2.884V4.778h1.792s1.092.058 1.092 1.121v2.054z"/>
  <path fill="#fff" d="M21.237 7.88h-2.855V4.75h1.762s1.093.058 1.093 1.107V7.88z"/>
  <path fill="#fff" d="M9.452 21.092h1.923v-2.097h-1.194s-.729.029-.729.743v1.354z"/>
  <path fill="#fff" d="M30.239 1.908h-4.443v4.88h2.753s1.69-.073 1.69-1.733V1.908z"/>
  <path fill="#fff" d="M34.216 1.792h-1.632V0h1.005s.627.03.627.64v1.152z"/>
  <path fill="#fff" d="M7.952 40H6v-2.156h1.209s.743.03.743.758V40z"/>
</svg>
