<svg xmlns="http://www.w3.org/2000/svg" id="svg1" version="1.1" viewBox="0 0 40 40">
  <path fill="#fff" d="M37.277 4a2.728 2.728 0 0 0-2.724 2.726v16.9c0 2.394-.864 4.57-2.31 5.817-1.292 1.122-2.499 1.32-4.58 1.305-1.397-.009-2.547.866-2.771 2.288a2.647 2.647 0 0 0 .534 2.035c.944 1.16 2.373 1.12 3.405 1.12 3.508 0 5.572-1.399 6.978-2.623C38.467 31.265 40 27.632 40 23.62V6.726A2.728 2.728 0 0 0 37.277 4ZM20.004 4c-5.121 0-8.083 4.06-8.083 9.257s1.05 8.758 1.27 9.624c.526 1.994 2.089 2.613 3.493 2.217.62-.175 1.2-.66 1.51-1.184.397-.684.5-1.287.182-2.726-.231-1.065-1.008-4.56-1.008-7.93 0-2.13.873-3.798 2.627-3.798 1.755 0 2.651 1.66 2.651 3.806 0 12.078-5.064 17.449-10.081 17.449-5.017 0-7.12-3.838-7.12-7.127v-8.296a2.728 2.728 0 0 0-2.724-2.726A2.728 2.728 0 0 0 0 15.292v8.296c0 7.414 5.167 12.587 12.574 12.587 7.405 0 15.534-7.048 15.534-22.902 0-5.173-2.976-9.266-8.104-9.266z"/>
</svg>
