<svg xmlns="http://www.w3.org/2000/svg" viewBox="0 0 40 40">
  <path fill="#fff" d="M20 0C8.972 0 0 8.972 0 20c0 11.03 8.972 20 20 20 11.03 0 20-8.97 20-20C40 8.973 31.028 0 20 0Zm10.756 3.74-.044.036-.088-.044-.034-.102c.054.038.112.071.166.11zm-.946-.588c.02.048.057.159-.14-.042l-.095-.095.235.136zm-18.622-.544a.446.446 0 0 0-.03.107l-.18.088v-.067h-.038c.081-.045.164-.087.248-.128zm26.21 26.199c-3.224 6.34-9.81 10.7-17.4 10.7a19.57 19.57 0 0 1-5.04-.662l.337.05s.423.032.49.057a.804.804 0 0 0 .263.032c.124 0 .266.022.411.022.143 0 .143.037.188-.022l.122-.15c.078-.1.177-.199.188-.239.012-.031-.066-.087-.076-.12-.01-.033-.066-.085-.066-.144 0-.056 0-.108.023-.144.022-.039.144-.164.144-.164s-.376-.158.067-.28c.443-.123.52-.187.52-.187s.11-.06.166-.068l.51-.112s1.703-.26 1.805-.319c.096-.058.597-.102.719-.133.122-.034 1.56-.673 1.75-.82.187-.145.563-.306.64-.385.081-.079.28-.233.28-.233s.164-.179.198-.208a2.46 2.46 0 0 1 .198-.179c.059-.047.059-.111.111-.166a1.12 1.12 0 0 0 .122-.178l-.295-.029-.075.043-.178.018-.177.014-.178.046-.176.014-.192-.015-.06.028-.133-.027s0-.103-.133-.09a.406.406 0 0 0-.176.044l-.148.046-.192.014-.118-.045-.15-.044s-.043 0-.206.029c-.163.03-.09.093-.207.046-.12-.046-.295-.134-.295-.134s-.029-.058-.077-.117a3.912 3.912 0 0 1-.102-.161l-.221-.09.237-.072s.06-.06.06-.117c0-.059-.014-.093-.014-.134 0-.044-.014-.044-.073-.132a4.195 4.195 0 0 1-.18-.312.987.987 0 0 0-.174-.234c-.06-.061-.09-.122-.149-.164-.06-.046-.208-.118-.237-.16-.029-.046.059.16-.089-.092-.147-.248-.132-.306-.132-.383v-.325c0-.041.044-.194.015-.248-.03-.06-.06-.134-.119-.194-.06-.062.044-.044-.133-.16-.176-.118-.251-.196-.221-.239a.997.997 0 0 0 .072-.294c.016-.105.104-.28.134-.354.03-.075.06-.28.076-.397.013-.12.044-.136.013-.21a2.424 2.424 0 0 0-.132-.249l-.193-.194.09-.158s.059-.195.059-.238c0-.044-.016-.264-.03-.31a4.266 4.266 0 0 1-.06-.25l-.045-.633s-.013-.162-.028-.222c-.013-.062-.044-.133-.013-.224.028-.086.058-.116.058-.175 0-.061-.017-.061-.072-.15a.53.53 0 0 1-.106-.22c0-.043-.015-.327-.015-.37a.4.4 0 0 1 .03-.115l.044-.151c.03-.103.06-.453.06-.453l-.294-.345h-.134l-.265-.024s.102.056-.206.024c-.312-.024-.178.165-.34-.06a1.991 1.991 0 0 0-.353-.368l-.663-.428-.077-.103a7.893 7.893 0 0 0-.279-.31l-.149-.071-.192-.207-.015-.134s-.058-.207-.073-.248c-.015-.045-.577-.52-1.064-.108 0 0-.073.09-.073.148 0 .06-.102.193-.102.193s-.355.16-.43.133c-.073-.028-.234-.265-.234-.265s-.061-.324-.09-.368c-.03-.047-.457-.073-.65-.49-.19-.41.088-.44.016-.62a1.223 1.223 0 0 0-.265-.352s-.163-.223-.207-.253c-.044-.03-.253-.176-.296-.28a2.263 2.263 0 0 0-.131-.264.987.987 0 0 1-.061-.223s-.028-.132-.044-.176c-.015-.044-.146-.281-.146-.281s.604.133.678-.238c.073-.368.06-.487.06-.487s.045-.046.103-.046c.06 0 .238-.028.238-.028s-.177-.073-.192-.117c-.014-.044-.014-.12-.014-.164 0-.044-.427-.263-.427-.263s-.207-.062-.252-.108a2.385 2.385 0 0 1-.148-.19l-.384-.15s-.324-.147-.354-.206c-.03-.06-.073-.192-.117-.252a3.912 3.912 0 0 0-.146-.175l-.519-.267s-.368-.31-.486-.265c-.118.044-.133.06-.194-.015-.057-.075.044-.148-.264-.162-.312-.015-.34.089-.37-.015a1.45 1.45 0 0 0-.088-.236.427.427 0 0 0-.088-.133 17.051 17.051 0 0 1-.223-.238s-.118-.471-.057-.5c.057-.032-.075-.118-.075-.118L9 16.307l-.37.145-.294.03s-.207-.075-.267-.087a4.049 4.049 0 0 0-.234-.044l-.194.073s-.516.207-.516.25c0 .045-.148.192-.194.25-.044.06-.207.192-.25.192-.043 0-.075.015-.222-.045-.148-.057-.323 0-.413-.103-.087-.103-.133-.147-.207-.147-.074 0-.176.057-.251.088-.074.03-.118.104-.191.104-.075 0-.296 0-.561.252 0 0-.517-.03-.813.295 0 0-.075.015-.118-.06-.044-.073-.192.294-.192.354 0 .058-.547 1.49-1.076 1.52l-.09-.053s.102.265.043.366c-.054.1-.109.31-.109.31l.168.387-.257-.354-.055.222.09.22-.09.046.123.263.11.4-.211-.188s.1.852.087.896c-.01.044-.077.364-.087.422-.01.055-.046.188-.034.232.012.044.178.909.188.966.013.054.044.353.067.398.022.046.289 1.037.31 1.08.021.05.011.081.122.199.11.123-.011-.032.276.314.288.343.276.364.366.477.088.107.166.233.166.233l.09-.105.03.2s-.053.2.08.323c.131.123.121.133.253.233.133.1.432.243.6.343.164.098.388.164.53.322.143.153.575.541.575.541s.123.755.133.866c.01.109.188.333.289.41l.397.307.056-.107.056.197.099.112.013.14s.187.168.187.212v.156c0 .032-.066.254-.066.254l-.11.096-.11.049.066.176-.166.033.201.268-.233-.145-.077.01-.112.012s-.02.046.012.145c.034.102.223.596.302.709.076.11.231.422.231.422l.198.503.066.2s.133.309.145.38c.012.066.134.3.055.285-.077-.013-.111 0-.111 0s.311.446.166.542c-.144.099-.233-.013-.233-.013h-.1l-.197.156v.188l.032.034C3.086 31.088.5 25.84.5 19.998.5 12.6 4.637 6.154 10.72 2.847v.06l-.044.067v.086l.023.113.133-.023.11-.068.09-.043s.243-.199.243-.266c0-.065.066-.043.066-.043l.243-.089s.09-.023.154-.044c.066-.022.09-.112.09-.112l.087-.044s.065.023.134.023h.176s.154-.223.154-.288a.483.483 0 0 1 .022-.133l-.01-.006c.058-.023.117-.046.173-.07l.08.097.066.023-.04.16s-.156.133-.245.222l-.198.198c-.066.067-.023.088-.023.088l.045.133.222.176.375-.108.113-.044.22-.133.133-.09h.154l.133-.109.11-.133.288-.132.177-.134c.176-.133.2-.022.2-.022l.11-.022c.11-.023.554-.155.554-.155s.131-.065.929-.11c.798-.044.112-.09.112-.09l-.266-.042c-.266-.045-.066 0-.134 0-.066 0-.066 0-.154-.045-.098-.044-.03-.066-.03-.13 0-.068.11-.068.11-.068s.065-.044.176-.066c.11-.023.354 0 .354 0s.2-.023.508-.066c.311-.044.068 0 .245-.02.177-.024.355-.046.42-.091.066-.044.086-.044.287-.134l.116-.049.108-.128s-.243.023-.31.023h-.333c-.088 0-.131 0-.198-.023-.066-.022-.087-.022-.087-.022l-.337-.022-.243.022-.088.022-.154.044-.066.023c-.066.021-.133 0-.133 0h-.113L15.67.987a19.532 19.532 0 0 1 4.053-.482l.133.086.044.09.135.065-.49-.089-.221-.044h-.109l-.266.023v.061l-.333.066.154.022.264.044h.554c.466 0 .09.044.09.044l.065.044c.082.068.171.128.266.176l.62.022.133.044v.088l.044.154-.397-.022h-.354c-.22 0-.199.044-.199.044s-.354-.023-.51-.044c-.155-.022-.11 0-.11 0s-.088-.022-.2-.042l-.197-.069-.178-.132.11-.132-.222.02-.154.046h-.065l-.066.066-.177.11H18l-.11-.022h-.154l-.556.221-.108.022-.244.133-.044.11.155-.043.486-.289.023.111-.11.068h-.067l-.244.13h.375l.4-.02.066-.024.2-.043.154-.024.088.066-.044.09-.067.021-.087.044s-.088 0-.154.023a.374.374 0 0 1-.112.022h-.2l.223.087.155.024h.132l.29-.044.198-.067.134-.068.42.023.598.023h.466l.553-.178h.244l.199-.13.043-.09h.443l.31.023c.31.022.244 0 .244 0l-.044-.067-.022-.087-.798-.264.087.014s.065.008.465.032c.054.002.097.006.134.006.23.01.13-.006.13-.006l.111-.067-.175-.044-.134-.043-.066-.022-.088-.024-.224-.02-.065-.068h.154l.333-.022.09-.066.035-.071c.077.008.152.02.23.027l-.022.132v.113l.11.064.179.11.11.045s0 .022.11.043c.112.024.022 0 .112.024a.842.842 0 0 0 .177.022v.066s-.023.023-.089.023h-.207a.685.685 0 0 0-.126-.044l-.198-.066h-.354l.133.22.066.066h.088l.31-.088.067.067-.266.112s.067 0-.068.022c-.09.016-.178.039-.264.066h-.066l.023.067.264.133h.067s.087.025.167.06l.165.16c.708.688.265.311.265.311l-.64-.066-.134.044-.111-.044-.088-.022-.066.11s-.044.066-.112.087l-.243.09-.536.139-.442.064-.112-.042-.332-.067-.154-.022-.176-.024-.066.044-.09.068-.154.11h-.221l-.266.022.088-.044.067-.067.087-.087-.022-.067-.133-.022-.2.067-.13.131-.334.068-.243-.132-.09-.045h-.2l-.087.022h-.2l-.332-.067-.332.134-.507.155-.376.018-.355.109s0 .067-.11.154c-.108.088-.243.067-.243.067l-.177.132-.02.088s.597-.398-.202.157c-.797.555-.156.289-.156.289l.445.066.354-.088.531-.067.51.132.376-.11h.088l.221.134-.022.111.066.132c.088.067.154.112.154.112l.4.066h.509s.023.043.023.108c0 .069.154.355.154.355.2.154.2.177.288.198.088.023.132.044.265.067l.131.022s.112.266.09 0l-.02-.264v-.134s.021-.068.087-.068c.066 0 .176-.022.176-.022s.022.022.09.022c.067 0 .044 0 .199-.066.154-.066.2 0 .177.066a.69.69 0 0 1-.087.177c-.044.067.133-.177-.044.067-.177.243-.842.199-.177.243.663.043.774 0 .774 0s-.133-.132-.133-.198.023-.155.023-.155-.044.022.067-.087l.11-.111s.022-.156.065-.043c.043.104.023.23.022.24.001-.009.016-.032.11.046.113.09.2.133.2.133h.088l.134-.11h.154s-.022-.023.066.044l.09.066.243-.09.066-.065.508-.109.022-.067.487-.2.114.087s.022.025.13.066a.33.33 0 0 1 .156.112s-.354-.068-.42.066l-.067.133.531.131.133.068.154.087s.024-.02.066.07l.11.22.09.222.154.088s.066.023.132-.021a.61.61 0 0 1 .154-.067h.531l.134.022.197-.066.267.156.385.182.1.106c.199.2.289.2.289.2l.11-.022.089-.044.198-.088h.11l.177-.113.198.113.222.11c.133.266.043.177.133.266.088.088 0 .066.088.088l.089.023.176-.088s.09-.021.376.134c.288.153.309.066.288.153-.023.089-.088.11-.088.11s.021.045 0 .113a1.534 1.534 0 0 0-.044.155l.223-.155.064.02.267.267.22.066s.133.044.044-.066c-.09-.11-.265-.311-.265-.311l.133-.044s-.067.155.066 0l.133-.155s.088-.11.112-.044c.022.065-.046 0 0 .154.044.155 0-.022.044.155a.798.798 0 0 0 .108.264s.022.044.112.088c.086.044.287.09.287.09l-.044-.134-.045-.088s0-.022-.044-.111c-.044-.088-.022-.022-.068-.177-.037-.134.123-.136.166-.134-.003.003.026.023.233.111l.31.134.132.132.29.288s.175.044.175.112c0 .066.11.221.11.221l.09-.022.09-.066.175.045.088.021.044.11s-.022-.066.067.067l.132.2.11.065.067-.044.088-.22v-.067s-.021-.11.088-.023c.11.09.044.044.155.158l.11.107.043-.089s.114.111-.021-.111l-.134-.22-.177-.266-.132-.2-.022-.154.132.11s.066.064.133.086c.066.024.02.09.066.024.021-.032.055-.005.067.006a2.256 2.256 0 0 1-.11-.14c-.199-.264-.155-.086-.199-.264a3.408 3.408 0 0 0-.066-.243s.022-.066 0-.133a8.91 8.91 0 0 1-.09-.354l.09-.022.43-.15a2.136 2.136 0 0 1-.119-.182c-.177-.289-.264-.355-.264-.355l-.066-.088-.155-.132-.178-.288c.088-.044.288 0 .288 0h.112v-.224c.264.215.525.437.778.667l.018.044h-.154l.111.156.067.066.044.154s.022.066.022.133.043.178.043.178.134.177.134.243-.134.022.043.2c.178.175.133.11.178.175.044.066-.044-.087.044.066.09.154.2.31.2.31l-.066.088s-.023.023 0 .089a.75.75 0 0 0 .066.133s.065.111 0 .134c-.066.022-.132.022-.132.022l-.222-.179-.223-.092-.043-.018s.065.22.065.289c0 .065-.044.131-.044.131l-.11.112-.11.111-.067.42v.155c0 .133.022.268.022.332 0 .066-.175-.133-.175-.133l-.024-.087a2.236 2.236 0 0 0-.087-.243s-.02-.044-.044-.111a1.368 1.368 0 0 0-.066-.154l-.087-.022.023.599-.113-.112s.044.065-.065-.067a8.352 8.352 0 0 1-.2-.243l-.133-.111s-.087.087-.154-.087l-.066-.179-.065.091-.112.022s-.02.066-.066.153a.749.749 0 0 0-.088.265c0 .066-.09.088 0 .2.088.112.044.067.111.177.066.108.022-.044.066.108.044.157.112.066.044.157l-.067.087-.2.089-.11.132.044.155.089.066s-.046-.044.11.044a.948.948 0 0 1 .243.197s-.022-.043.044.066c.066.111 0-.02.066.111.066.134.198.311.198.311s-.216-.074.018.092l.092.063c.043.027.082.05.113.073l.264.17s-.678-.364-.703-.472c-.029-.105-.071-.214-.16-.28a1.474 1.474 0 0 1-.155-.135l-.178-.043-.087-.066h-.155s0 .044.023.133l.044.178.046.065.087.2-.087.109s-.046-.021-.046.133-.087-.044 0 .154l.09.2s-.044.044.086.044h.134l.443.179s0 .065.021.154c.022.088.134.2.134.2s-.022.022.11.11c.134.087.2.154.2.154l-.396-.222-.223-.287-.11-.088s-.09-.044-.111.023a2.382 2.382 0 0 0-.044.153l.066.244.112.11-.09.2s.022.177-.066.198c-.09.022-.31-.02-.31-.02l.067-.11s.022-.068.022-.134c0-.067.02-.223.02-.223l-.043-.154s-.044-.066-.066-.134c-.024-.065-.046-.087-.068-.175-.022-.088-.066-.066-.132-.223-.068-.155-.068-.177-.09-.243l-.154-.485-.175-.4-.177-.154h-.066s-.044.044-.044.13v.223s.021 0 0 .088c-.023.087-.023.198-.023.198l.044.133.154.354v.133s-.263-.198.044.065c.313.268.29.112.313.268l.021.154-.198.043-.709-.466-.088-.065-.51-.334.133.312.067.131.09.156-.023.088s.13 0-.067.022l-.2.022h-.397l-.134.02-.22-.284-.134.134s-.066.065-.132.087a3.662 3.662 0 0 0-.178.065l-.354.245s.044.108-.11.087c-.154-.022-.11.354-.244-.022l-.133-.376.157-.088h.111v-.087s-.044-.089-.11-.112a3.093 3.093 0 0 1-.224-.087l-.023.111-.022.11s-.044.067-.044.132c0 .066.044.11.044.176 0 .065-.022.2-.022.2l-.088.108s-.022.044-.132.024c-.111-.024-.2-.024-.2-.024l-.22.044-.035.065-.055-.065v.156l-.066.111-.066.178h-.087l-.111-.112-.087-.02-.067-.11a.621.621 0 0 0-.154-.178s-.022 0-.022.066-.026-.133 0 .066c.022.198.086.463.086.463s.067.09-.022.068a7.99 7.99 0 0 1-.397-.135l-.045-.176s-.023-.242-.023-.308v-.184c0-.066.023-.11.07-.177.043-.065 0-.087-.024-.22l.023-.134.486.333c.133.088.11.044.11.044s.112 0 .202-.023c.088-.022.088-.022.352-.133.266-.109.066-.265.066-.265l-.087-.156-.133-.156-.066-.064s-.022-.09-.088-.156a1.067 1.067 0 0 1-.111-.133l-.067-.066c-.067-.067-.067-.111-.067-.111l-.11-.133-.243-.222s-.11.024-.266-.065c-.154-.091 0 0-.065-.091-.068-.087.02-.132.02-.132l.022-.066c.022-.065-.044-.065-.111-.11-.066-.044-.066-.066-.133-.134-.065-.066-.065-.022-.065-.022s-.068-.044-.156-.131l-.154-.156-.223-.044-.155.111s.223.266-.662.022c-.265-.07-.413-.116-.49-.14-.084.05-.36.218-.395.275-.044.066-.024.066-.091.132-.066.066-.353-.022-.353-.022l-.222.088c-.22.09 0 0-.066.067-.067.065-.023.088-.023.088s-.42.134-.573.176c-.156.044-.09 0-.156 0-.067 0-.111.068-.111.068l-.155.064s-.044.066-.156.091c-.11.02-.464.044-.464.044l-.044-.067-.065-.067-.221.067-.354-.067-.199.135-.133.154s-.111-.023-.177-.023c-.067 0-.088.133-.088.133l-.023.134c-.018.095-.009.11-.003.11a1.398 1.398 0 0 0-.262.11l-.066.177-.221.044s.022.087.022.175.155.244.155.244l.066.087s.155.045.353.045h.288l.11-.022.178-.066v.154c0 .088-.045.11-.11.198-.067.09-.134.354-.178.422-.044.065-.044.132-.044.132l-.044.22-.088.202-.044.086-.154.134-.088.088.2.198.067.069h.065s.066-.022.266-.157l.154.024h.11l.243-.088s.11-.09.264-.244c.154-.154 0 0 .044-.067.044-.066.112-.087.2-.175.089-.09.243-.068.243-.068s.066.023.132.023.155-.111.155-.111l.244-.244v-.31s.023-.132.043-.222c.022-.087.022-.11.022-.11s.09-.09.222-.175c.133-.088.09-.044.199-.134l.2-.133s.087-.02.264-.044c.178-.02 0 0 .2-.02.2-.023.09-.023.155-.067.066-.044.22-.175.22-.175s.2-.089.313-.134a.57.57 0 0 0 .133-.065l.11.022.243.178v.176l-.066.156-.375.11c-.377.111 0 0-.09.022-.089.023-.112.023-.222.066-.111.044-.154 0-.154 0l-.244.154s-.131.087-.199.2c-.066.11 0 0-.022.11s-.044.153-.044.153-.043.09-.11.178c-.067.087-.067.109-.067.109v.242l.023.178.154.044h.066l.088.044s.067.044.31.109c.244.067 0 0 .354.023.354.022.398.154.398.154l.023.11c.022.11.111.087.111.087s.109.156.156.268c.043.108.065.02.065.02s.044-.086.066-.155c.022-.065.022-.085.022-.22v-.22c0-.067.068 0 .068 0l.154.022.066.066.066.066.1.059-.01.142-.089.198-.133.066-.134.044-.187.036c-.034-.071-.086-.053-.086-.053l-.09-.087c-.087-.09-.06-.06-.132-.06h-.311c-.266 0-.028.06-.028.06l-.091.148-.087.13-.044.066v.067l.015.074-.09.06s-.044-.03-.086-.103c-.044-.076 0-.059.015-.15.013-.087 0 0 .013-.042.016-.045.06-.06.133-.148.074-.087.06-.073.118-.087.06-.015-.03-.061-.03-.061s-.028-.015-.132-.103c-.102-.09-.073-.028-.235-.147-.163-.118 0 0-.044-.031-.044-.029-.192-.044-.267-.059-.072-.014-.06.016-.118.016-.058 0-.06.073-.06.073l-.131.043v.132c0 .077.044.077.044.077l.088.06-.044.103s-.061.075-.148.176c-.09.106-.016.074-.016.118 0 .045-.087.089-.222.045-.132-.045 0 0-.013-.045-.015-.044-.03-.044-.045-.087-.015-.045-.015-.06-.031-.176-.015-.118-.03-.118-.03-.118l-.25.074-.176.133-.09.043s.09-.043-.058.075-.06.103-.06.103-.044.15-.044.222c0 .074.028.133.028.133l-.264.118s-.03-.016-.104-.044c-.075-.029-.06-.015-.103-.058-.044-.044-.044-.029-.105-.029-.06 0 0 0 0 .06 0 .058 0 .074.016.117a.072.072 0 0 1-.016.075l-.22-.075c-.221-.072 0 0-.117-.043-.12-.044 0 0-.016-.061-.016-.057-.016-.043-.044-.148-.03-.103-.015-.044-.015-.087V14.1h-.222c-.147 0 0 0-.133-.03-.132-.028-.087-.058-.192-.087-.102-.029-.25-.013-.294-.013h-.133c-.044 0-.044 0-.118.058l-.03.133-.014.044a.098.098 0 0 0 0 .074l-.075-.015.016-.103-.03-.22a1.246 1.246 0 0 0-.016-.107l.002-.012c0-.06 0-.045.014-.163.008-.07.013-.088.013-.092l-.029-.055-.133.014-.207-.015-.042-.002a1.512 1.512 0 0 0-.194-.16l-.044-.176c-.043-.176-.021-.11-.021-.11s.021-.11.043-.244c.021-.133 0 0 .11-.088a.263.263 0 0 1 .061-.037l.004.015.022.11.023.066h.088c.044-.087.044-.175.044-.175l-.037-.04a.827.827 0 0 0 .17-.184c.09-.13 0 0 .155 0 .154 0 0 0 0-.064 0-.066 0-.066.022-.134.022-.065.067-.065.067-.065s.065-.066.132-.131c.067-.068-.044-.112-.044-.112l-.133.065-.066-.022-.088-.11-.11-.023-.111.09.131.021.044.09-.044.088-.087.043-.112-.065-.108-.024-.046.068-.043.087-.134.09-.044.087v.088l-.022.088-.065.154-.022.11c-.022.111-.2.089-.2.089l-.055.089c-.023-.034-.034 0-.2.055-.165.054 0 0-.065-.08-.066-.076 0 0-.066-.154-.068-.152 0 0-.167.134-.166.133-.044.032-.1.011-.054-.022-.022-.053-.066-.232-.044-.179-.023-.056-.167-.033-.143.02-.012.044-.233.232-.221.189-.078.022-.167.013-.087-.013 0 0 .024-.123.021-.12.054-.12.043-.176-.011-.057-.076.044-.199.122-.123.077-.043.032-.132.066-.09.033-.044.022-.102.087-.054.067-.022.056-.044.168-.022.11-.076 0-.111-.011-.033-.01 0-.09 0-.09s-.099-.042-.176-.042c-.077 0-.055 0-.197-.055-.145-.056-.035-.012-.158-.09-.122-.076-.053 0-.122.067-.066.067-.077.023-.189.134-.109.11-.109 0-.253.01-.145.012 0 0-.078-.078-.078-.076 0 0-.078-.011-.077-.01-.033.055-.054.123-.022.066-.034.013-.177-.066-.145-.077-.056-.033-.133-.178-.077-.143 0-.032.011-.154.013-.123-.032-.066-.109-.09-.076-.019-.043.07-.076.18-.035.11-.013.033-.133.11-.123.076-.034 0-.068-.022-.032-.024-.11-.055-.233-.153-.122-.102-.022-.068-.044-.168-.02-.103-.076-.044-.187-.088-.112-.044-.044-.067-.112-.102-.067-.035-.032.057-.1.146-.065.088-.023.109-.01.142a.293.293 0 0 0 .065.11c.044.056 0 0 .078.111.078.11.011.034.011.311 0 .063.003.102.008.123a.039.039 0 0 0-.018.008c-.078.054-.022.043-.123.167-.099.12 0 .111.013.187.01.077.034.066-.022.167-.056.1-.078.055-.123.144-.043.088 0 .066-.054.176-.056.11-.066-.044-.133-.022s-.035.01-.09.044c-.054.034-.054.1-.087.167-.034.065.033.087-.343.154-.378.065-.034.076-.177.144-.143.067-.076-.055-.21-.167-.133-.109-.023-.12-.023-.12h-.11c-.066 0-.078-.09-.11-.156-.034-.065-.054-.097-.054-.166 0-.066-.044-.044-.244-.33-.198-.29-.133-.178-.166-.243-.032-.069-.143-.166-.197-.235-.056-.065-.088-.008-.145-.021-.055-.012-.055 0-.144-.055-.088-.055-.044-.023-.076 0-.034.022-.034.123-.156.286-.12.166-.1.046-.1.046s-.098.076-.132.12c-.035.044-.178.256-.178.256s-.188.13-.286.21c-.102.077-.144.066-.19.1-.047.034-.142.044-.288.1-.145.054-.066.112-.066.154 0 .044.034.078.034.153 0 .078-.133.156-.233.277-.1.123-.043.099-.067.154-.022.055-.044.088 0 .144.044.056 0 0 .167.134.166.133.032.032.02.454-.009.42-.042.12-.064.196-.022.08 0 .101 0 .101l.343.09.076.064s.056.103.146.223c.087.122.154.154.197.176.045.023.088.055.168.1a.087.087 0 0 0 .12-.022l.112-.044c.113-.044.177.058.177.058s.044.1.134 0c.087-.1.397-.113.397-.113l.08.013s.021-.044.031-.189c.012-.144.034-.044.054-.089.024-.043.113-.078.177-.097.067-.023.102-.066.234-.078.132-.013.088-.055.123-.067.032-.01.123-.034.187-.066.067-.034.055 0 .123.032.067.034.077.034.144.044.066.012.132.012.177.044.044.034.087 0 .333 0 .244 0 .099-.044.176-.1.077-.054.088-.13.144-.275.054-.145.022-.044.066-.044.044 0 .178.022.243.033.066.012.066.023.144.055.078.032.088.09.088.09l.022.076h.1c.034 0 .011.033.011.102 0 .065.024.097.034.142a.48.48 0 0 0 .066.154c.044.08.011.035.11.056.1.023.046-.022.234-.077.189-.055.045.012.233.108.19.1.076.013.312-.007.233-.024.054-.024.12-.024s.113.044.113.044l.086.189s.046.133.081.245c.034.11 0 .054-.034.142-.035.09-.023.09-.045.166-.022.078-.022.067-.065.155-.045.088.013.088.013.187 0 .1.02.112.031.168.012.054.012.108.022.177.012.066.012.088.034.131.022.045-.023.155-.023.155v.032c0 .034.068.167.089.2.022.033.034.044.11.121.078.078.056.044.09.11a.255.255 0 0 1 .032.154c0 .08.013.09.044.179.034.088.043 0 .043 0l.035.076s.01.08.01.122c0 .045-.021.054-.033.11-.013.057 0 .045.034.09.033.042.023.042.066.077.044.034-.012.132-.012.174 0 .044-.023.135-.023.169 0 .032-.034.054-.088.122-.056.067-.034.044-.088.067-.054.02-.034.044-.067.078-.033.03-.02.054-.078.11-.054.054 0 0-.065.033-.066.034 0 0-.023.034-.022.033.034.1.034.1l.112.011s.066-.087.154-.087c.09 0 .154-.11.154-.11l.2-.133c.067-.045 0-.158 0-.158s.089-.087.133-.154c.044-.066.067-.043.132-.043h.09l.11.066-.021.131c-.023.134 0 0 .022.111.022.11 0 0 .089 0 .086 0 .086-.086.086-.086v-.154l-.044-.133c-.021-.067-.043-.067-.043-.067l-.068-.112-.066-.112-.043-.065-.091-.155-.043-.198.11-.09-.067-.044c-.066-.044-.087-.044-.087-.044s-.067 0-.133-.11c-.067-.112 0 0-.067-.067-.067-.065-.022-.088-.043-.176-.024-.09-.024-.11-.024-.198 0-.088.024-.155.045-.244.022-.09.065-.132.065-.2 0-.065-.02-.131-.02-.131s-.044-.066-.066-.134c-.024-.066-.024-.087-.024-.218 0-.135.045-.135.067-.223.023-.089.023-.11.133-.156.112-.044.023-.11.023-.11l-.001-.01c.06.005.136.01.172.01h.131c.044 0 .103.028.192.028.09 0 0 0 .03.073.03.076-.072.076-.146.164-.075.087 0 0-.075.192-.075.19.028.06.088.014.06-.044.072-.029.192-.074.116-.044.072 0 .072 0l.075.105-.075.176c-.072.176-.029.06-.013.118a.721.721 0 0 1-.028.28c-.03.103 0 .086 0 .22s.015.061.072.193c.06.133.015.044.106.118.087.074.072.118.147.148.074.03 0 .044.03.146.03.105.044.09.087.118.044.028.088.163.088.163s.031.22.031.323c0 .106 0 .046.073.165.072.119.015.058 0 .105-.016.044-.087.07-.087.07l-.031.134-.087.016-.015.148s-.042.029-.132.044c-.087.013-.016.09-.016.133 0 .044.016.06.044.192.029.132.029.163.029.163l.016.207.016.118.057.163-.044.016h-.09c-.044 0-.058.028-.058.028s.015.074.059.133c.044.059.117.162.117.162l.061.046s.029.028.118.028c.087 0 .044.027.133.061.088.028.073.057.132.103.059.044.044.103.044.103l.205.163.073-.149v-.087s.324.163-.117-.236c-.443-.398 0-.147 0-.147s.044-.017.073-.09c.03-.074 0-.132 0-.178 0-.043.044-.028.044-.074 0-.044.016-.058.03-.133.016-.075.044-.028.134.016.089.044 0 .06 0 .06l.266.148s.043-.075.043-.133c0-.061.06-.074.06-.074l.089.014.118.029s.044.017.086.044c.044.028.105-.015.105-.015l.044-.014c.044-.017.044.044.044.044l.029.075.164.013s.029.045.058.163c.029.12.029.077.029.077l.163.132.073-.088h.06l.03-.104s.03.03.074.045.265.222.369.338a.348.348 0 0 0 .119.083l-.03.007-.044.015-.061.044s-.176.028-.207-.03c-.029-.058-.06-.044-.104-.119l-.044-.075s-.028.061-.028.106v.044l-.118-.103-.09-.045-.103-.073-.102-.015s-.044-.013-.06.045l-.014.06-.207.087-.03.088s-.075.015-.075.058c0 .044-.072.12.03.134l.104.013s.044-.163.072-.059c.03.103.044.134.044.177 0 .045-.03.194-.03.194l-.161-.061s-.044-.015-.044.028c0 .044.076.193.076.193s.044.117.028.162c-.014.044-.014.044-.014.088v.118c0 .044.073.163.087.207.014.044-.015.044.028.105.044.06.061.072.09.133.029.06.102.175.131.22.03.046.044.195.164.251.117.06.149.106.207.088.06-.013-.087-.071.133-.071s.132-.106.296 0c.162.102.103.044.25.192.148.147.369.415.487.47.12.06-.087.091.163.017.251-.07.384-.164.384-.164s.059-.013.117 0c.06.018.326.207.326.207l-.06.105s-.029-.015-.045.072c-.014.088-.086.56-.13.605-.044.044-.075.044-.118.071-.044.029-.118.057-.177.118-.06.057-.177.086-.253.16-.071.074-.058.074-.176.18-.118.102-.118.059-.209.175a2.42 2.42 0 0 1-.206.238s-.073.128-.131.175a.752.752 0 0 1-.133.074s0 .045-.15.013c-.148-.026-.028-.026-.206-.087-.179-.061-.192-.103-.237-.09-.044.012-.029-.03-.074.09-.045.119-.045.119-.06.176-.014.06-.028.031-.014.133a1 1 0 0 1 .014.176c0 .047.03.103.03.252 0 .148-.016.148.016.223.028.073-.044-.06.028.148.074.207.044.191.074.25.03.06-.134.147.073.086.207-.06.338-.087.338-.174 0-.093-.161.027.044-.179l.206-.207s.105.044.031.102c-.075.062-.147.237-.191.34-.044.103-.09.016-.06.134.027.119.06.195.06.195s.176.324.176.368c0 .043-.028.027 0 .203.031.179.09.413.105.516.014.108.028.108.028.162 0 .061.015.092-.028.15-.044.058-.134.044-.044.134.089.088.208.25.208.25s-.045-.296.059.104c.103.398.133.487.133.562 0 .075.087-.075 0 .118-.09.192-.118.192-.118.263v.163c0 .045-.03 0 .029.119.06.118.043.118.089.191.044.074-.118-.253.117.118.237.366.237.366.237.445 0 .07-.015.07 0 .148.015.072.029.102.044.142.016.05-.028-.023.061.139.088.16.104.221.104.221s.028-.107.058.088c.03.196.104-.133.017.295-.09.427-.163.608-.163.608s-.031-.015-.031.086c0 .105-.015.268-.029.325-.015.06-.191.03-.015.162.177.128-.384.175.238.175.618 0 .044 0 .692-.047.651-.038.37-.056.755-.056.384 0 .605.03.738 0s-.075.12.207-.06c.279-.175.5-.369.5-.369s-.075-.012.088-.012c.162 0 .459.04.534.04.072 0 .013.05.072 0l.281-.192s.059-.044.28-.07c.222-.033.148-.016.326-.033.176-.01-.029.133.413-.025.443-.163.192-.237.192-.237s-.089-.03.088-.075c.177-.046.177-.046.237-.075.06-.028-.06-.028.134-.09.193-.059.075-.028.25-.105.18-.067.192-.067.252-.117a.592.592 0 0 0 .149-.159c.028-.06.06-.15.06-.15l.073-.117.118-.134s.087.014.132.014c.043 0-.104.193.25-.191.355-.382.282-.324.355-.382.072-.064.117-.044.117-.118 0-.075-.123-.168-.123-.168l-.044-.113c-.02-.004-.066-.022-.162-.052-.252-.07-.739-.288-.62-.72.118-.426.073-.356.073-.356l-.103.09s-.043.014-.119.133a3.484 3.484 0 0 0-.154.293c-.007.008-.018.009-.037.02a2.23 2.23 0 0 1-.25.1c-.045.019-.045.019-.104.062-.06.043-.06.043-.148.092a.497.497 0 0 1-.28.024c-.044-.016.133-.016-.09-.016h-.31c-.133 0-.089.062-.191-.01-.108-.08.072-.016-.134-.092-.206-.071-.325 0-.206-.071.117-.078.087-.048.16-.12.056-.053.106-.113.149-.177.03-.045 0 .092.03-.045a1.64 1.64 0 0 0 .043-.293c0-.044-.177 0-.177 0s-.015.057-.045.103c-.029.041-.132.205-.132.205s-.074.073-.103-.027c-.029-.105-.029-.045-.029-.105v-.105c0-.06-.016-.086.015-.131.029-.047.073-.105.073-.147 0-.045-.087-.065-.104-.122-.013-.055-.044-.102-.073-.157a3.172 3.172 0 0 1-.06-.137s-.057-.044-.103-.16c-.043-.122.014-.103 0-.161-.014-.063.046.028-.029-.118-.073-.148-.088-.175-.102-.222-.015-.048-.105-.15-.105-.19 0-.045-.162.04 0-.045.164-.092.193-.118.238-.15.045-.029.118-.061.118-.061l.323-.132.09.027s.057-.071.163.122c.102.194.102.13.147.293.044.16.061.134.061.237 0 .104.015.266.029.315.014.04 0 .027.028.07.031.044 0 .027.09.102.088.074.412.327.472.357.06.03-.384-.09.106.09.485.175.28.115.382.1.103-.014.103 0 .163-.041a.592.592 0 0 1 .265-.106c.148-.029.044-.029.207-.071.162-.045.148-.163.177 0 .03.163.044.263.044.31 0 .043-.175.027.016.106.192.069-.428-.076.192.069.62.15.428.133.723.165.297.028.5.044.59.06.087.016.03.027.164 0 .133-.03.19-.074.263-.074.076 0 .488-.06.532-.072.044-.017.075.072.325-.049l.232-.103-.018.164.088.022.111.022v.243l.022.065.111-.065.22-.107.333-.113c.155-.112 0-.044.155-.112.154-.067.024 0 .154-.067.132-.062.2-.107.2-.107s.088.107.023.174a2.609 2.609 0 0 0-.177.226s.044 0-.066.044l-.11.04c-.113.044-.179.044-.179.044l-.132-.044-.11.09s-.066-.021-.111.043a.584.584 0 0 0-.066.155l.154.065s-.132.136.111.022c.243-.107.176-.022.243-.107.066-.092.178-.151.132-.066-.042.09-.154.225-.154.225s-.065.066-.154.107c-.087.049-.221.09-.221.09s-.067 0 0 .09c.066.088-.044 0 .066.088.11.09.176.137.176.137h.112s.154 0 .265-.091l.109-.088.177-.226.11-.129s.133.178.11.244c-.024.064-.087.086-.11.178-.021.087-.021.065-.066.175-.044.109-.044.243-.068.31-.022.07-.042.07-.064.155a.067.067 0 0 1-.008.023c.003-.01.013-.034-.016.179-.045.307-.045.42-.045.42v.24c0 .065-.022.09 0 .243.024.154.045.181.045.353 0 .112-.065.108-.11.09.007.033.015.073.022.136.044.33.044.42.044.42s-.044.043-.044.13a.54.54 0 0 0 .023.155s-.11.175.067.022c.175-.156.11-.022.175-.156.067-.133.067-.175.154-.24.089-.066.175-.112.222-.182.044-.066.024-.044.154-.178l.243-.24c.09-.09.134-.156.201-.243.066-.089.154-.332.154-.332s-.022-.087.044-.176c.066-.087-.177.175.133-.284.311-.465.156-.312.311-.465.154-.152-.133.065.264-.288.4-.358.223-.136.31-.265.09-.136.045-.18.201-.333.154-.154.309-.33.399-.422.088-.09.553-.553.553-.553s.043-.137.087-.245c.044-.107.067-.042.11-.265a1.12 1.12 0 0 1 .2-.463l.066-.09s.066-.089.133-.112a.955.955 0 0 0 .178-.084l.11-.112c.09-.086.176-.222.176-.222l.134-.175s.024.066.024.156c0 .086.022.174.022.174l.09.091.087.09v.154l.001.022zm-10.076-6.918s-.067 0 .066.069l.133.063.09.224v.243l.153.154.09.023.086.176-.11.29-.021.089.066.154s.044.154-.02.222c-.068.066 0-.155-.068.066-.067.22.22.377.22.377 0 .175-.065.222-.065.222v.09l.09.128s-.024.045-.024.111-.044.198-.044.198l-.044.223v.173l-.044.068-.044.131-.132.049s-.044.022-.113.044c-.066.022.066.022-.175.022-.208 0-.413-.018-.473-.022a.984.984 0 0 0-.084-.157l-.088-.134s0 .047-.154-.107l-.154-.155s-.134-.179-.134-.265c0-.088-.023-.066 0-.153a1.87 1.87 0 0 1 .112-.267l.177-.112.02-.22.112-.11c.067-.065.067-.088.155-.088h.09s.131-.024.044-.09a.66.66 0 0 0-.155-.088s-.024-.044-.067-.111c-.044-.066-.022-.066-.044-.154-.022-.09-.066-.154-.087-.245a.967.967 0 0 0-.087-.199s-.178-.132-.2-.288c-.022-.152-.022-.065-.022-.152 0-.09-.023-.223-.023-.223s-.065-.044.023-.088a.514.514 0 0 0 .153-.133l-.049-.033-.017-.012-.067-.044-.132-.09-.023-.11.044-.067.155-.133s.065.133.133-.044l.065-.178.066-.22.111.088.177.024.088-.112.088-.09.198-.022s-.265-.044.046-.066l.31-.022.486.022s0-.067.023.111c.02.177.044.066 0 .287-.044.223.132.313-.066.313h-.2l-.2.043s-.066-.043-.066.088v.132l-.088.178c-.067-.132-.044-.178-.067-.132-.022.044-.243-.09-.243-.09zm-3.278-1.882-.132-.022.022.177s.133.155-.022.155h-.332l-.088-.022-.132.022.11.175-.022.113s-.023.065.022.134c.044.065.044.108.087.174.044.066.11.11.11.11s.023.09.088.135a.607.607 0 0 1 .177.243c.022.065.044.111.066.176.023.067.066.044.113.109.044.067-.09-.087.044.067.133.154.087.066.154.244a1.22 1.22 0 0 1 .066.376l-.087.133s-.066.065-.133.088a1.275 1.275 0 0 0-.155.066l-.156.066-.108.025-.201-.156s-.15-.283-.116.06l-.047-.023-.145-.06s-.031-.03-.118-.088c-.09-.06-.06-.148-.149-.148-.09 0-.058-.03-.176-.088-.12-.061-.12 0-.207-.15-.088-.146.06-.028-.088-.146-.146-.119-.177-.15-.265-.18a1.557 1.557 0 0 1-.207-.089l-.266-.117h-.117c-.09 0-.09-.029-.238-.029h-.15s.044-.029-.205.03l-.25.058s-.254-.103-.34-.132c-.09-.031-.104-.104-.162-.132-.061-.03-.061-.077-.12-.119a3.27 3.27 0 0 0-.147-.102c-.044-.029-.028-.06-.028-.06l-.061-.074-.044-.073-.014-.09v-.06l.014-.131-.014-.046-.029-.086.029-.074.086-.06.09-.044.044-.089s.044-.029.087-.044l.088-.03.134-.028.044-.133.06-.088.014-.087.088-.12.06-.043.074-.016s.059.03.147.06a.274.274 0 0 1 .075.03l.073-.03v-.086l-.075-.105.118-.117v-.077l.104-.042s.044-.032.117-.032a.317.317 0 0 1 .132.032l.088-.104.044-.06h.239l.088-.104.154.356.088-.113.066.112v.11l.023.068.022.088.155.131.066.024.066-.023.112-.044.11-.022h.067l.154.022c.11-.022.176-.044.243-.044.065 0-.045.023.065 0 .112-.022.044-.044.244 0l.2.044.264.068s.023.021.088.021h.066s.353-.133.244 0c-.112.133-.134.198-.134.198h-.154c.01.003.073.003-.06-.018zm-3.742 4.607.111.02h.244l.089-.108.198-.087h-.31l-.198-.066-.334-.02.024.152.175.109zm1.726-11.271c.022-.068.022-.133.022-.133l-.177-.044-.087.088-.09.044.223.023s.087.085.11.022zm-.131-1.02-.024-.09-.11-.02-.022.132.088.088.067-.11zm-7.598 5.314.044.013.175-.123s.089-.11.112-.154l.078-.167h-.056c-.055 0-.055-.01-.098-.034-.044-.021-.056-.033-.09-.011a.316.316 0 0 0-.065.066s-.024.078-.044.132c-.024.056-.057.11-.08.189-.02.079.024.09.024.09zm.4 2.326c-.066-.067-.11-.09-.132-.133-.024-.044-.024-.123-.067-.123a.376.376 0 0 1-.122-.044.412.412 0 0 0-.13-.031v.231s.055.046.077.08a.539.539 0 0 1 .053.133c.011.032.043.044.056.1.012.054.066.11.133.177.066.066.054.166.054.2 0 .03.034.087.034.087l.089-.087s.076.044.088-.033c.01-.078.01-.088.034-.123.023-.033-.144.013.066-.066l.21-.078.055-.1s-.322-.166-.353-.166c-.033 0-.08.04-.145-.024zm-.62-2.215s-.112-.02-.145-.033c-.033-.013-.076-.088-.076-.088l-.088.211s-.012.143-.021.177a.51.51 0 0 1-.078.142c-.045.056-.077.11-.167.167-.088.057-.044.088-.044.088l.079.102s.044-.056.077-.08c.033-.021.087.1.087.134l.123-.065s.197-.243.254-.31c.055-.067.122-.123.122-.123s.023-.144.034-.178c.012-.033-.024-.111-.024-.111l-.133-.032zm3.224 4.49c.06-.045.044-.061.06-.107l.045-.16c.028-.118.115.06.206 0a.234.234 0 0 0 .103-.132l-.4-.266s-.087-.105-.133-.149c-.044-.045-.103-.028-.103-.028h-.119s-.043.088-.043.133c0 .044.028.059 0 .222-.03.163-.059.072-.088.131-.03.061.012.077.012.077l.15.027s-.016.09-.03.207c-.016.12.014-.028.104-.044.088-.017.059.016.088.072a.479.479 0 0 1 .029.164s.062-.105.119-.148zm5.455-2.01-.044-.066c-.044-.065 0-.089 0-.177 0-.09-.066-.111-.066-.111l-.243.022s-.111-.022-.223-.022h-.133c-.066 0-.022.067-.022.067s.09.087.154.066c.066-.022.09.155.09.155l-.11.178s0 .11.11.198c.11.09 0 0 .067 0l.196.09.266-.067s.112 0 .244-.022 0 0 .155-.088c.03-.018.06-.034.092-.049l-.204-.061-.329-.112zm-4.818 3.087-.061-.058s-.03-.045-.09-.06a.303.303 0 0 1-.116-.09l-.045-.028c-.043-.033-.074-.088-.074-.088l-.207-.071-.163-.093s-.013.044.014.105a.7.7 0 0 0 .192.176.27.27 0 0 1 .073.073l.076.076.086.146.251.029.103.03s.028-.046.015-.088a.094.094 0 0 0-.054-.059zM15.356 11.22l-.08-.048-.134-.088-.065.044v.11l-.091.109h-.176c-.065 0-.088-.043-.088-.043l-.134.066.044.066.023.088.089.133.11.043c.108.044.044.11.044.11h-.176l-.223-.066s-.09-.044-.154-.065c-.066-.022-.111 0-.111 0h-.066l-.289.089.221.131.2.134.067-.023.31.155.065.066.131.111.135.153.088.09c.086.089.155.11.155.11l.154-.043-.023-.133-.022-.087c.93.13.553-.377.553-.377l-.088-.111.065-.134v-.109l.09-.107.133-.134.044-.13s-.067-.044-.067-.11c0-.068.067-.133.067-.133l.088-.068c.088-.065.022-.086.044-.243a1.039 1.039 0 0 0 .008-.083l.101-.159.067-.067.11-.066.154-.045c.155-.044 0 0 .133-.088.134-.088.066-.2.066-.2l-.044-.066c-.043-.064-.022-.087-.022-.087l.044-.089.067-.022h.067l.176-.087-.023-.134s-.354.045-.42.067l-.133.044-.09-.044-.107.044-.023.066-.112.044-.175.044-.133.065.197.023-.042.088-.068.068-.243.153.133.067-.066.133-.111.022c-.11.023-.134.067-.134.067l-.022.066.155.044.043.11-.064.044c-.067.045-.044.065-.044.065v.2l-.112.134h-.174c-.095-.003-.103.012-.092.023zm2.001-4.92c.02.067.02.088.043.155.023.065.067.154.067.154l.111.133.377.045.087.022.134.11.265-.045h.087l.068-.087c.065-.087.022-.066.065-.133.044-.067.044-.088.044-.154s0-.066-.023-.133c-.022-.067-.087-.044-.133-.134-.044-.087 0 0-.243-.174-.244-.179-.088-.09-.156-.179-.066-.087 0 0 0-.065a.668.668 0 0 0-.044-.2c-.022-.066-.134.045-.134.045v.066c0 .067-.043.11-.043.11l-.177.022h-.088s0 .09-.087.11c-.088.022-.066.044-.244.133-.175.088.002.131.024.2zm11.071 3.808c.066.113-.133-.044.133.2l.269.243a.146.146 0 0 0 .086.088c.067.022.31.022.31.022l-.021-.09-.132-.154-.044-.067s-.066-.066-.087-.175c-.023-.112-.045-.087-.045-.198v-.223s-.022-.11.022-.177c.034-.057.063-.116.088-.177l.09-.154.021-.133.243-.332c.155-.065.199-.043.222-.11.023-.067.067-.112.067-.175 0-.068.043-.135-.023-.135s-.087-.02-.132.044c-.044.066.022-.044-.044.066-.066.111.044.111-.066.111s.022.024-.11 0l-.134-.023-.11.111-.066.112-.087.086-.112.134s-.02.044-.044.133c-.022.09 0 .133-.044.2l-.087.132s-.044.178-.089.29c-.044.108-.11.153-.11.153s-.09.024-.022.111c.058.087-.007-.024.058.087zm-9.5 2.702-.11.088-.044.089-.024.154-.153.023-.024-.066-.088-.067v.111l.134.112h.087l.11-.044.134-.088s.087-.066.154-.134l.066-.066.045-.067-.2-.044h-.088l.002-.001zM10.89 3.93l.154-.086.088-.066s.024-.066.112-.178c.088-.11.155.023.155.023l.153-.023c.155-.022.112-.153.112-.153l.132-.067c.132-.065.156-.11.156-.11s.088-.023.287-.11c.198-.09-.066 0-.066 0s-.068 0-.245.022c-.176.021 0 0-.396-.067-.4-.067 0 0-.223 0h-.066s-.332.4-.4.509l-.065.113-.134.154-.111.066-.02.106s.067-.023.154-.023l.223-.11zm3.3 6.844.065.067.245.088.133-.023.267-.176c.064-.044.064-.087.064-.087l.113-.022.087-.022.176-.023.088-.197v-.29l-.044-.133-.333.086-.33-.087c-.332-.091-.179 0-.179 0l-.065.153v.067l-.022.11-.088.089-.113-.024h-.087l-.087-.02-.112.044-.088.087-.066.11.111.155zm6.709 2.458.066-.022s.133 0 .2-.134l.05-.1a.449.449 0 0 1-.096.033l-.154.044-.132.066-.177.133-.008.061-.013.072.176-.133c-.001.002.022.002.088-.02z"/>
</svg>
