<svg xmlns="http://www.w3.org/2000/svg" width="32px" height="32px" transform="rotate(0) scale(1, 1)">
    <path fill="#000000" d="M14.986 2c-.762 0-1.456.432-1.794 1.114l-3.548 7.188-7.932 1.154a1.999 1.999 0 0 0-1.108 3.41l5.74 5.596-1.356 7.9A2.002 2.002 0 0 0 7.89 30.47l7.096-3.73 7.094 3.73a2.007 2.007 0 0 0 2.108-.152 2 2 0 0 0 .794-1.956l-1.354-7.9 5.74-5.596a1.998 1.998 0 0 0-1.11-3.41l-7.932-1.154-3.546-7.188A2.002 2.002 0 0 0 14.986 2zm0 2 4.012 8.13 8.974 1.304-6.494 6.33 1.534 8.936-8.026-4.22L6.96 28.7l1.532-8.936L2 13.434l8.972-1.304L14.986 4z"/>
</svg>