<?xml version="1.0" encoding="UTF-8" standalone="no"?>
<svg
   id="fasthosts"
   viewBox="0 0 236 42"
   version="1.1"
   sodipodi:docname="fasthosts.svg"
   width="236"
   height="42"
   inkscape:version="1.4.2 (1:1.4.2+202505120737+ebf0e940d0)"
   xmlns:inkscape="http://www.inkscape.org/namespaces/inkscape"
   xmlns:sodipodi="http://sodipodi.sourceforge.net/DTD/sodipodi-0.dtd"
   xmlns="http://www.w3.org/2000/svg"
   xmlns:svg="http://www.w3.org/2000/svg">
  <sodipodi:namedview
     id="namedview9"
     pagecolor="#ffffff"
     bordercolor="#666666"
     borderopacity="1.0"
     inkscape:showpageshadow="2"
     inkscape:pageopacity="0.0"
     inkscape:pagecheckerboard="0"
     inkscape:deskcolor="#d1d1d1"
     inkscape:zoom="2.80625"
     inkscape:cx="160.17817"
     inkscape:cy="100.13363"
     inkscape:window-width="1993"
     inkscape:window-height="1211"
     inkscape:window-x="1077"
     inkscape:window-y="119"
     inkscape:window-maximized="0"
     inkscape:current-layer="fasthosts" />
  <defs
     id="defs1">
    <style
       id="style1">.fasthosts-blue{fill:#031a4a;}</style>
  </defs>
  <g
     id="g9"
     transform="translate(-41.99,-80.47)">
    <path
       class="fasthosts-blue"
       d="m 266.22,103.52 c -3.15,-0.79 -5.14,-1.28 -5.14,-2.9 0,-1.62 1.08,-2.24 3.86,-2.24 2.89,0.02 5.72,0.87 8.14,2.46 L 278,94.89 c -3.68,-2.32 -7.95,-3.51 -12.3,-3.42 -7.63,0 -12.87,2.71 -12.87,10.28 0,5.44 4.92,6.81 9.05,7.77 2.85,0.71 5.39,1.23 5.39,2.95 0,2.24 -1.48,2.46 -4.16,2.46 -3.63,-0.16 -7.13,-1.4 -10.06,-3.54 l -4.92,5.44 c 4.03,3.11 9.01,4.73 14.1,4.58 7.77,0 13.01,-2.29 13.01,-9.84 0,-5.49 -4.63,-6.81 -9.1,-7.97"
       id="path1" />
    <path
       class="fasthosts-blue"
       d="m 244.89,92.06 1.8,-8.56 c 0,0 -7.53,0.52 -8.44,3.17 -0.15,0.49 -0.47,1.85 -1.25,5.39 h -4.77 l -1.48,6.81 h 4.72 l -2.46,12.15 c -1.33,6.42 0,9.84 7.97,9.84 1.43,0 3.32,0 4.48,-0.12 l 1.43,-6.64 h -2.98 c -3.39,0 -3.49,-1.23 -3,-3.47 l 2.46,-11.86 c 1.24,0.12 2.48,-0.01 3.67,-0.39 1.65,-1.99 3.11,-4.14 4.33,-6.42 l -6.47,0.1 z"
       id="path2" />
    <path
       class="fasthosts-blue"
       d="m 216.94,98.38 c 2.89,0.02 5.72,0.88 8.14,2.46 L 230,94.89 c -3.68,-2.32 -7.95,-3.51 -12.3,-3.42 -7.63,0 -12.87,2.71 -12.87,10.28 0,5.44 4.92,6.81 9.05,7.77 2.85,0.71 5.39,1.23 5.39,2.95 0,2.24 -1.48,2.46 -4.16,2.46 -3.64,-0.17 -7.14,-1.4 -10.09,-3.54 l -4.92,5.44 c 4.04,3.08 9.02,4.66 14.1,4.48 7.8,0 13.04,-2.29 13.04,-9.84 0,-5.49 -4.63,-6.81 -9.1,-7.97 -3.17,-0.79 -5.14,-1.28 -5.14,-2.9 0,-1.62 1.06,-2.24 3.86,-2.24"
       id="path3" />
    <path
       class="fasthosts-blue"
       d="m 192.83,107.29 c -1.01,4.92 -2.95,7.38 -7.58,7.38 -4.63,0 -5.86,-2.09 -5.86,-5.14 0,-1.15 0.13,-2.3 0.37,-3.42 1.01,-4.92 2.95,-7.38 7.63,-7.38 4.68,0 5.81,2.14 5.81,5.24 -0.03,1.13 -0.17,2.26 -0.42,3.37 m 8.66,-4.55 c 0,-6.81 -3.89,-11.34 -13.53,-11.34 -8.66,0 -14.05,3.81 -16.14,13.48 -0.32,1.67 -0.49,3.37 -0.49,5.07 0,6.86 3.86,11.44 13.51,11.44 8.71,0 14.05,-3.86 16.09,-13.53 0.36,-1.69 0.57,-3.41 0.62,-5.14"
       id="path4" />
    <path
       class="fasthosts-blue"
       d="m 159.42,91.4 c -2.66,-0.13 -5.28,0.7 -7.38,2.34 l 2.61,-12.3 c 0,0 -7.53,0.52 -8.44,3.17 -0.34,1.06 -7.9,36.29 -7.9,36.29 h 8 l 3.44,-16.21 c 0.66,-3.25 1.85,-5.71 6.15,-5.71 5.66,0 5.09,2.76 4.38,6.32 l -3.3,15.6 H 165 l 3.57,-16.48 c 1.48,-7.16 1.57,-12.96 -9.1,-12.96"
       id="path5" />
    <path
       class="fasthosts-blue"
       d="m 134.08,92.06 1.77,-8.56 c 0,0 -7.53,0.52 -8.41,3.17 -0.17,0.49 -0.49,1.85 -1.28,5.39 h -4.77 l -1.48,6.81 h 4.72 l -2.58,12.15 c -1.33,6.42 0,9.84 7.97,9.84 1.43,0 3.32,0 4.48,-0.12 l 1.43,-6.64 h -2.9 c -3.42,0 -3.52,-1.23 -3.03,-3.47 l 2.46,-11.86 c 1.24,0.12 2.5,-0.01 3.69,-0.39 1.64,-2 3.08,-4.15 4.31,-6.42 l -6.37,0.1 z"
       id="path6" />
    <path
       class="fasthosts-blue"
       d="m 106.09,98.38 c 2.89,0.02 5.72,0.87 8.14,2.46 l 4.92,-5.95 c -3.68,-2.32 -7.95,-3.51 -12.3,-3.42 -7.63,0 -12.87,2.71 -12.87,10.28 0,5.44 4.92,6.81 9.05,7.77 2.93,0.64 5.39,1.16 5.39,2.93 0,2.24 -1.48,2.46 -4.16,2.46 -3.63,-0.16 -7.13,-1.4 -10.06,-3.54 l -4.92,5.44 c 4.07,3.11 9.1,4.71 14.22,4.5 7.77,0 13.01,-2.29 13.01,-9.84 0,-5.49 -4.63,-6.81 -9.1,-7.97 -3.15,-0.79 -5.14,-1.28 -5.14,-2.9 0,-1.62 1.06,-2.24 3.86,-2.24"
       id="path7" />
    <path
       class="fasthosts-blue"
       d="m 78.9,108.91 c -1.03,4.72 -2.46,6 -6.77,6 -4.31,0 -4.92,-1.03 -4.92,-2.71 0,-3.71 2.46,-4.38 8.29,-4.38 h 3.67 l -0.27,1.08 z m 7.11,2.68 1.62,-7.77 c 1.67,-8.09 0.96,-12.3 -11.14,-12.3 -4.11,-0.1 -8.18,0.83 -11.83,2.71 l 2.9,5.93 c 2.32,-1.05 4.83,-1.61 7.38,-1.67 4.58,0 5.61,0.76 5.61,2.29 0,0.55 -0.07,1.1 -0.22,1.62 h -3.67 c -10.48,-0.05 -17.44,2.09 -17.44,10.68 0,4.92 2.21,8.24 10.68,8.24 3.29,0.33 6.57,-0.76 9,-3 0.57,2.19 1.6,2.66 4.28,2.66 1.14,0.06 2.29,-0.01 3.42,-0.22 l 1.43,-6.49 c -2.46,0 -2.46,-0.62 -1.94,-2.66"
       id="path8" />
    <path
       class="fasthosts-blue"
       d="m 59.22,98.48 c 1.62,-1.99 3.04,-4.14 4.23,-6.42 h -6.69 l 0.37,-1.53 c 0.47,-2.29 1.38,-3.44 4.72,-3.44 h 2.68 l 1.38,-6.62 h -4.23 c -7.95,0 -10.87,2.71 -12.3,9.25 l -0.52,2.46 h -5.39 l -1.48,6.69 h 5.44 l -4.92,23.27 c 0,0 6.86,-1.6 7.68,-1.87 0.48,-0.18 0.82,-0.6 0.91,-1.11 l 4.33,-20.3 c 1.28,0.13 2.57,0 3.79,-0.39"
       id="path9" />
  </g>
</svg>
