<?xml version="1.0" encoding="UTF-8" standalone="no"?>
<svg
   id="ionos"
   viewBox="0 0 184 54"
   version="1.1"
   sodipodi:docname="ionos.svg"
   width="184"
   height="54"
   inkscape:version="1.4.2 (1:1.4.2+202505120737+ebf0e940d0)"
   xmlns:inkscape="http://www.inkscape.org/namespaces/inkscape"
   xmlns:sodipodi="http://sodipodi.sourceforge.net/DTD/sodipodi-0.dtd"
   xmlns="http://www.w3.org/2000/svg"
   xmlns:svg="http://www.w3.org/2000/svg">
  <sodipodi:namedview
     id="namedview7"
     pagecolor="#ffffff"
     bordercolor="#666666"
     borderopacity="1.0"
     inkscape:showpageshadow="2"
     inkscape:pageopacity="0.0"
     inkscape:pagecheckerboard="0"
     inkscape:deskcolor="#d1d1d1"
     inkscape:zoom="2.80625"
     inkscape:cx="160.17817"
     inkscape:cy="100.13363"
     inkscape:window-width="3370"
     inkscape:window-height="1371"
     inkscape:window-x="70"
     inkscape:window-y="32"
     inkscape:window-maximized="1"
     inkscape:current-layer="ionos" />
  <defs
     id="defs1">
    <style
       id="style1">.ionos-blue{fill:#003d8f;}</style>
  </defs>
  <g
     id="g7"
     transform="translate(-68,-73.087058)">
    <path
       class="ionos-blue"
       d="m 238.01,126.83 c -0.83,0 -1.86,-0.14 -2.68,-0.34 -3.92,-0.83 -7.29,-3.23 -9.28,-6.6 v -0.14 c -1.03,-1.99 -0.34,-4.4 1.51,-5.43 0.69,-0.34 1.38,-0.48 1.99,-0.48 1.51,0 2.89,0.83 3.58,1.99 l 0.14,0.14 0.48,0.48 0.48,0.48 c 0.69,0.69 1.72,1.03 2.68,1.38 1.51,0.34 3.23,0 4.54,-1.03 1.38,-1.03 2.2,-2.54 2.34,-4.06 0.14,-1.72 -0.48,-3.37 -1.51,-4.4 0,0 -12.31,-12.65 -12.86,-13.34 -0.34,-0.34 -0.83,-0.83 -1.51,-1.72 -1.72,-2.54 -2.2,-5.43 -1.99,-8.12 0.14,-1.99 0.69,-3.92 1.72,-5.78 0,0 0.48,-1.03 0.69,-1.17 0.69,-1.03 1.86,-2.2 2.89,-2.89 0.83,-0.69 1.99,-1.17 2.34,-1.38 2.34,-1.17 5.43,-1.72 8.46,-1.03 3.71,0.83 7.08,3.23 8.94,6.4 0.48,0.83 0.69,1.99 0.48,3.03 -0.34,1.03 -1.03,1.99 -1.86,2.54 -0.69,0.34 -1.38,0.48 -1.99,0.48 -1.51,0 -2.89,-0.83 -3.58,-1.99 -0.83,-1.38 -1.99,-2.2 -3.58,-2.54 -1.58,-0.34 -3.03,0 -4.4,1.03 -1.17,0.83 -1.86,2.2 -1.99,3.92 -0.14,1.51 0.34,3.03 1.51,4.06 l 12.52,12.86 c 2.68,2.89 4.2,6.74 3.92,10.66 -0.34,4.06 -2.34,7.63 -5.43,9.97 -2.61,1.99 -5.64,3.03 -8.53,3.03"
       id="path1" />
    <path
       class="ionos-blue"
       d="m 198.26,126.83 c -7.43,0 -13.55,-6.05 -13.55,-13.55 V 86.73 c 0,-7.43 6.05,-13.55 13.55,-13.55 7.5,0 13.55,6.05 13.55,13.55 v 26.68 c 0,7.36 -6.12,13.41 -13.55,13.41 m 0,-45.44 c -2.89,0 -5.43,2.34 -5.43,5.43 v 26.68 c 0,3.03 2.34,5.43 5.43,5.43 2.89,0 5.43,-2.34 5.43,-5.43 V 86.81 c 0,-2.89 -2.54,-5.43 -5.43,-5.43"
       id="path2" />
    <path
       class="ionos-blue"
       d="M 168,116.17 V 77.31 c 0,-2.34 -1.86,-4.06 -4.06,-4.06 -2.34,0 -4.06,1.86 -4.06,4.06 v 22.14 l 8.12,16.71 z"
       id="path3" />
    <path
       class="ionos-blue"
       d="m 145.58,75.67 c 0,0 0,-0.21 0,0 -0.69,-1.38 -2.2,-2.34 -3.71,-2.34 -0.34,0 -0.48,0 -0.83,0.14 -1.86,0.34 -3.23,1.99 -3.23,3.92 v 1.03 l 22.28,46.28 c 0.69,1.38 2.2,2.2 3.58,2.2 0.34,0 0.69,0 1.03,-0.14 1.86,-0.34 3.23,-1.99 3.23,-3.92 v -0.83 C 167.86,121.94 146.2,76.83 145.58,75.66"
       id="path4" />
    <path
       class="ionos-blue"
       d="m 145.92,100.84 v 21.94 c 0,2.34 -1.86,4.06 -4.06,4.06 -2.2,0 -4.06,-1.86 -4.06,-4.06 V 83.92 Z"
       id="path5" />
    <path
       class="ionos-blue"
       d="m 107.34,126.83 c -3.58,0 -6.95,-1.38 -9.49,-3.92 -2.54,-2.54 -3.92,-5.91 -3.92,-9.49 V 86.74 c 0,-3.58 1.38,-6.95 3.92,-9.49 2.54,-2.54 5.91,-3.92 9.49,-3.92 3.58,0 6.95,1.38 9.49,3.92 2.54,2.54 3.92,5.91 3.92,9.49 v 26.68 c 0,3.58 -1.38,6.95 -3.92,9.49 -2.54,2.54 -5.91,3.92 -9.49,3.92 m 0,-45.45 c -1.38,0 -2.68,0.48 -3.71,1.51 -1.03,1.03 -1.51,2.34 -1.51,3.71 v 26.68 c 0,1.51 0.48,2.89 1.51,3.71 1.03,1.03 2.34,1.51 3.71,1.51 1.37,0 2.68,-0.48 3.71,-1.51 1.03,-1.03 1.51,-2.34 1.51,-3.71 V 86.73 c 0,-1.38 -0.48,-2.68 -1.51,-3.71 -0.96,-0.96 -2.34,-1.65 -3.71,-1.65"
       id="path6" />
    <path
       class="ionos-blue"
       d="m 72.4,126.83 c -2.54,0 -4.4,-1.99 -4.4,-4.4 V 77.52 c 0,-2.34 1.99,-4.4 4.4,-4.4 1.99,0 3.71,1.38 4.2,3.23 v 45.8 c 0.34,2.68 -1.72,4.68 -4.2,4.68"
       id="path7" />
  </g>
</svg>
