<?xml version="1.0" encoding="UTF-8"?>
<svg xmlns="http://www.w3.org/2000/svg" id="strato" viewBox="0 0 320 200">
  <defs>
    <style>.strato-orange{fill:#f80;}</style>
  </defs>
  <path class="strato-orange" d="M284.66,115.71c-2.78,3.3-6.66,4.86-12.15,4.86s-9.49-1.56-12.21-4.86c-3.41-4.05-4.28-9.67-4.28-15.63s.87-11.58,4.28-15.63c2.84-3.36,6.83-4.86,12.21-4.86s9.32,1.51,12.15,4.86c3.41,4.05,4.34,9.67,4.34,15.63s-.93,11.58-4.34,15.63ZM279.68,90.07c-1.27-2.72-3.94-3.7-7.18-3.7s-5.9.98-7.18,3.7c-1.1,2.43-1.27,7.06-1.27,10.01s.17,7.52,1.27,9.95c1.27,2.72,3.94,3.76,7.18,3.76s5.9-1.04,7.18-3.76c1.1-2.43,1.27-7,1.27-9.95s-.17-7.58-1.27-10.01Z"></path>
  <path class="strato-orange" d="M251.94,87.35c-3.3,0-6.02-.06-8.51-.12v29.58c0,1.74-.81,2.55-2.49,2.55h-2.49c-1.91,0-2.78-.52-2.78-2.55v-29.58c-2.49.06-5.27.12-8.57.12-2.37,0-2.43-1.5-2.43-2.72v-1.56c0-1.97,1.1-2.37,2.43-2.37h24.83c1.33,0,2.49.4,2.49,2.37v1.56c0,1.21-.12,2.72-2.49,2.72Z"></path>
  <path class="strato-orange" d="M225.78,119.36h-3.18c-1.79,0-2.31-.87-2.72-2.03l-2.55-7.24c-2.49.06-4.34.06-6.89.06s-4.57,0-6.66-.06l-2.32,6.83c-.52,1.56-.98,2.43-2.95,2.43h-2.66c-1.97,0-2.26-.52-2.26-1.39,0-.35.17-1.04.46-1.79l11.87-33.11c.64-1.79,1.27-2.6,3.41-2.6h2.37c2.14,0,2.78.81,3.41,2.55l12.5,33.74c.12.29.23.58.23.87,0,1.45-1.16,1.74-2.08,1.74ZM210.5,90.48l-4.63,13.66c1.33,0,2.89-.06,4.57-.06,1.79,0,3.01.06,4.69.06l-4.63-13.66Z"></path>
  <path class="strato-orange" d="M188.17,119.36h-3.47c-1.45,0-2.43-.17-3.53-1.56l-9.84-12.5h-1.79v11.52c0,1.74-.75,2.55-2.43,2.55h-2.49c-1.91,0-2.84-.52-2.84-2.55v-33.74c0-2.26,1.56-2.37,2.84-2.37h10.71c6.08,0,7.64.4,9.9,2.72,2.14,2.14,3.01,5.85,3.01,10.82s-1.39,7.7-3.82,9.38c-1.04.69-2.26,1.16-3.88,1.39l8.86,10.77c1.16,1.39,1.39,3.59-1.22,3.59ZM178.97,87.76c-.93-.46-3.41-.46-4.46-.46-1.85,0-3.36.06-4.98.12v11.29h6.54c2.08,0,3.13-.35,3.76-1.16.52-.69.69-1.62.69-3.76,0-2.37-.23-5.33-1.56-6.02Z"></path>
  <path class="strato-orange" d="M155.21,87.35c-3.3,0-6.02-.06-8.51-.12v29.58c0,1.74-.81,2.55-2.49,2.55h-2.49c-1.91,0-2.78-.52-2.78-2.55v-29.58c-2.49.06-5.27.12-8.57.12-2.37,0-2.43-1.5-2.43-2.72v-1.56c0-1.97,1.1-2.37,2.43-2.37h24.83c1.33,0,2.49.4,2.49,2.37v1.56c0,1.21-.12,2.72-2.49,2.72Z"></path>
  <path class="strato-orange" d="M123.52,115.54c-2.14,4.05-7.7,4.34-11.98,4.34-3.3,0-6.6-.23-8.51-.41-2.37-.23-3.01-.81-3.01-2.03v-1.97c0-2.08.35-2.78,2.2-2.78,3.41,0,5.15.46,10.19.46,3.88,0,4.63-.29,4.63-3.76,0-3.94-.06-4.23-2.03-5.04-2.49-1.04-4.86-2.03-7.29-3.07-6.02-2.6-7.23-3.76-7.23-10.65,0-4.4.81-7.81,5.73-9.43,2.14-.69,4.63-.93,8.04-.93,2.66,0,4.05.12,6.54.29,2.37.17,3.07.75,3.07,2.03v1.91c0,2.08-.41,2.78-2.26,2.78-2.03,0-2.2-.35-10.42-.35-3.24,0-3.13,1.39-3.13,4.23,0,2.08.06,2.55,2.03,3.41,1.56.69,3.18,1.33,4.75,2.03,8.05,3.42,9.78,4.23,9.78,10.82,0,2.2-.06,6.08-1.1,8.1Z"></path>
  <path class="strato-orange" d="M58.02,72.98c-4.26,0-7.72-3.46-7.72-7.72h27.02c4.26,0,7.72,3.46,7.72,7.72v27.02c-4.26,0-7.72-3.46-7.72-7.72v-15.44c0-2.13-1.73-3.86-3.86-3.86h-15.44Z"></path>
  <rect class="strato-orange" x="31" y="80.7" width="38.6" height="38.6" rx="3.86" ry="3.86"></rect>
</svg>
