<?xml version="1.0" encoding="UTF-8" standalone="no"?>
<svg
   id="united-domains"
   viewBox="0 0 320 43"
   version="1.1"
   sodipodi:docname="udag.svg"
   width="320"
   height="43"
   inkscape:version="1.4.2 (1:1.4.2+202505120737+ebf0e940d0)"
   xmlns:inkscape="http://www.inkscape.org/namespaces/inkscape"
   xmlns:sodipodi="http://sodipodi.sourceforge.net/DTD/sodipodi-0.dtd"
   xmlns="http://www.w3.org/2000/svg"
   xmlns:svg="http://www.w3.org/2000/svg">
  <sodipodi:namedview
     id="namedview12"
     pagecolor="#ffffff"
     bordercolor="#666666"
     borderopacity="1.0"
     inkscape:showpageshadow="2"
     inkscape:pageopacity="0.0"
     inkscape:pagecheckerboard="0"
     inkscape:deskcolor="#d1d1d1"
     inkscape:zoom="2.80625"
     inkscape:cx="160"
     inkscape:cy="100.13363"
     inkscape:window-width="3370"
     inkscape:window-height="1371"
     inkscape:window-x="70"
     inkscape:window-y="32"
     inkscape:window-maximized="1"
     inkscape:current-layer="united-domains" />
  <defs
     id="defs1">
    <style
       id="style1">.united-domains-blue{fill:#0f396d;}</style>
  </defs>
  <g
     id="g12"
     transform="translate(0.01,-78.51)">
    <path
       class="united-domains-blue"
       d="m 304.56,106.69 c 1.54,0.6 3.81,1.2 6.18,1.2 1.35,0 2.67,-0.2 2.67,-1.4 0,-2.93 -9.37,-0.86 -9.37,-7.12 0,-4 4.32,-5.63 8.12,-5.63 2.27,0 4.58,0.23 6.69,1 l -0.51,4.16 c -1.39,-0.77 -3.48,-1.17 -5.13,-1.17 -1.42,0 -3.04,0.23 -3.04,1.2 0,2.7 9.81,0.57 9.81,7.16 0,4.63 -4.57,5.79 -8.89,5.79 -2.96,0 -4.98,-0.27 -6.92,-0.83 l 0.37,-4.36 z"
       id="path1" />
    <path
       class="united-domains-blue"
       d="m 295.87,111.02 v -8.77 c 0,-2.08 -0.55,-3.56 -3.15,-3.56 -2.6,0 -3.15,1.48 -3.15,3.56 v 8.77 h -6.31 v -9.89 c 0,-5.41 4.13,-7.08 9.46,-7.08 5.33,0 9.46,1.67 9.46,7.08 v 9.89 z"
       id="path2" />
    <rect
       class="united-domains-blue"
       x="273.09"
       y="95.059998"
       width="6.2199998"
       height="16.09"
       id="rect2" />
    <ellipse
       class="united-domains-blue"
       cx="275.98001"
       cy="90.260002"
       rx="3.3099999"
       ry="2.76"
       id="ellipse2" />
    <path
       class="united-domains-blue"
       d="m 261.11,94.09 c -3.4,0 -6.86,0.9 -9.23,2.7 l 3.45,2.84 c 1.44,-1.31 3.32,-2.03 5.26,-2.01 2.24,0 4.14,1.18 4.14,3.02 -5.39,0 -14.19,0.11 -14.19,5.92 0,3.4 3.54,5.2 7.46,5.2 2.63,0 5.21,-0.73 6.64,-2.53 h 0.09 v 2.11 h 5.95 v -8.56 c 0,-5.61 -2.02,-8.69 -9.57,-8.69 z m 3.63,10.98 c 0,2.08 -2.37,3.15 -4.92,3.15 -1.42,0 -3.06,-0.59 -3.06,-1.84 0,-2.29 4.4,-2.42 6.38,-2.42 h 1.6 z"
       id="path3" />
    <path
       class="united-domains-blue"
       d="m 239.29,94.13 c -2.38,0 -4.5,0.37 -6.1,1.28 -1.6,-0.92 -3.72,-1.28 -6.1,-1.28 -5.13,0 -9.1,1.66 -9.1,7.05 v 9.85 h 6.07 v -8.73 c 0,-2.07 0.54,-3.54 3.04,-3.54 2.5,0 3.04,1.47 3.04,3.54 v 8.73 h 6.14 v -8.73 c 0,-2.07 0.53,-3.54 3.03,-3.54 2.5,0 3.04,1.47 3.04,3.54 v 8.73 h 6.07 v -9.85 c 0,-5.39 -3.97,-7.05 -9.11,-7.05 v 0 z"
       id="path4" />
    <path
       class="united-domains-blue"
       d="m 213.44,96.87 c -1.83,-1.55 -4.43,-2.32 -7.79,-2.32 -3.36,0 -5.9,0.77 -7.75,2.31 -1.86,1.54 -2.78,3.65 -2.78,6.35 0,2.7 0.92,4.79 2.77,6.33 1.85,1.54 4.43,2.32 7.77,2.32 3.34,0 5.93,-0.78 7.77,-2.32 1.84,-1.54 2.77,-3.65 2.77,-6.33 0,-2.68 -0.92,-4.79 -2.75,-6.34 z m -3.99,8.8 c -0.2,0.59 -0.5,1.09 -0.89,1.51 -0.35,0.38 -0.78,0.65 -1.28,0.81 -0.5,0.16 -1.03,0.24 -1.58,0.24 -0.64,0 -1.22,-0.09 -1.72,-0.26 -0.5,-0.17 -0.94,-0.45 -1.3,-0.83 -0.37,-0.4 -0.66,-0.92 -0.85,-1.58 -0.19,-0.65 -0.29,-1.43 -0.29,-2.32 0,-1 0.11,-1.83 0.33,-2.49 0.22,-0.66 0.51,-1.18 0.89,-1.56 0.42,-0.41 0.85,-0.68 1.31,-0.81 0.51,-0.14 1.04,-0.21 1.57,-0.21 0.56,0 1.11,0.08 1.64,0.25 0.5,0.16 0.95,0.45 1.3,0.84 0.36,0.39 0.65,0.91 0.85,1.56 0.2,0.65 0.31,1.46 0.31,2.42 0,1.04 -0.1,1.85 -0.3,2.44 z"
       id="path5" />
    <path
       class="united-domains-blue"
       d="m 187.04,88.81 v 7.82 c -0.67,-0.77 -1.54,-1.38 -2.62,-1.81 v 0 c -1.08,-0.44 -2.3,-0.66 -3.69,-0.66 -3,0 -5.4,0.82 -7.2,2.45 -1.79,1.63 -2.69,3.87 -2.69,6.71 0,2.47 0.91,4.49 2.73,6.06 1.82,1.57 4.07,2.36 6.73,2.36 1.62,0 2.97,-0.22 4.06,-0.67 1.09,-0.44 2.06,-1.15 2.92,-2.13 v 2.24 h 5.67 V 88.8 h -5.93 z m -1.15,17.94 c -0.88,0.93 -2.16,1.39 -3.85,1.39 -1.69,0 -2.94,-0.46 -3.77,-1.4 -0.83,-0.93 -1.24,-2.18 -1.24,-3.73 0,-1.44 0.41,-2.65 1.23,-3.63 0.81,-0.97 2.09,-1.46 3.83,-1.46 1.14,0 2.15,0.27 3.01,0.8 1.41,0.88 2.11,2.36 2.11,4.42 0,1.47 -0.44,2.67 -1.32,3.6 z"
       id="path6" />
    <path
       class="united-domains-blue"
       d="m 142.58,78.51 c -11.85,0 -21.49,9.64 -21.49,21.49 0,11.85 9.64,21.49 21.49,21.49 11.85,0 21.49,-9.64 21.49,-21.49 0,-11.85 -9.64,-21.49 -21.49,-21.49 z m 11.56,4.02 -0.05,0.04 -0.09,-0.05 -0.04,-0.11 c 0.06,0.04 0.12,0.08 0.18,0.12 z m -1.02,-0.64 c 0.02,0.05 0.06,0.17 -0.15,-0.04 l -0.1,-0.1 c 0.09,0.05 0.17,0.1 0.25,0.15 z m -5.47,-2.23 z m -14.54,1.65 c 0,0 -0.03,0.08 -0.03,0.12 l -0.19,0.09 v -0.07 h -0.04 c 0.09,-0.05 0.18,-0.09 0.27,-0.14 z m 28.17,28.15 c -3.47,6.81 -10.54,11.5 -18.7,11.5 -1.87,0 -3.69,-0.25 -5.42,-0.71 l 0.36,0.06 c 0,0 0.45,0.04 0.52,0.06 0.09,0.03 0.19,0.04 0.28,0.03 0.13,0 0.29,0.02 0.44,0.02 0.15,0 0.15,0.04 0.2,-0.02 l 0.13,-0.17 c 0.08,-0.11 0.19,-0.22 0.2,-0.25 0.01,-0.04 -0.07,-0.09 -0.08,-0.13 -0.01,-0.03 -0.07,-0.09 -0.07,-0.15 0,-0.06 0,-0.12 0.02,-0.15 0.02,-0.04 0.15,-0.18 0.15,-0.18 0,0 -0.4,-0.17 0.07,-0.3 0.47,-0.13 0.56,-0.2 0.56,-0.2 0,0 0.12,-0.06 0.18,-0.07 l 0.55,-0.12 c 0,0 1.83,-0.28 1.94,-0.35 0.11,-0.06 0.64,-0.11 0.77,-0.14 0.13,-0.04 1.68,-0.73 1.88,-0.88 0.2,-0.16 0.61,-0.33 0.69,-0.42 0.08,-0.09 0.3,-0.25 0.3,-0.25 0,0 0.18,-0.19 0.21,-0.23 0.07,-0.07 0.14,-0.13 0.21,-0.19 0.06,-0.05 0.06,-0.12 0.12,-0.18 0.05,-0.06 0.09,-0.12 0.13,-0.19 l -0.32,-0.03 -0.08,0.05 -0.19,0.02 -0.19,0.02 -0.19,0.05 -0.19,0.02 -0.21,-0.02 -0.06,0.03 -0.14,-0.03 c 0,0 0,-0.11 -0.14,-0.09 -0.07,0 -0.13,0.02 -0.19,0.05 l -0.16,0.05 -0.21,0.02 -0.13,-0.05 -0.16,-0.05 c 0,0 -0.05,0 -0.22,0.03 -0.17,0.03 -0.09,0.1 -0.22,0.05 -0.13,-0.05 -0.32,-0.14 -0.32,-0.14 0,0 -0.03,-0.06 -0.08,-0.13 -0.04,-0.06 -0.11,-0.17 -0.11,-0.17 l -0.24,-0.1 0.25,-0.08 c 0,0 0.06,-0.06 0.06,-0.13 0,-0.07 -0.02,-0.1 -0.02,-0.14 0,-0.05 -0.02,-0.05 -0.08,-0.14 -0.07,-0.11 -0.13,-0.22 -0.19,-0.34 -0.05,-0.09 -0.11,-0.18 -0.19,-0.25 -0.06,-0.06 -0.1,-0.13 -0.16,-0.18 -0.06,-0.05 -0.22,-0.13 -0.26,-0.17 -0.03,-0.05 0.06,0.17 -0.09,-0.09 -0.16,-0.27 -0.14,-0.33 -0.14,-0.41 v -0.35 c 0,0 0.05,-0.21 0.02,-0.27 -0.03,-0.06 -0.06,-0.14 -0.13,-0.21 -0.06,-0.06 0.05,-0.05 -0.14,-0.17 -0.19,-0.13 -0.27,-0.21 -0.24,-0.26 0.04,-0.1 0.07,-0.21 0.08,-0.31 0.02,-0.11 0.11,-0.31 0.14,-0.38 0.04,-0.14 0.07,-0.28 0.08,-0.43 0.02,-0.13 0.05,-0.14 0.02,-0.22 -0.03,-0.08 -0.14,-0.27 -0.14,-0.27 l -0.21,-0.21 0.09,-0.17 c 0,0 0.06,-0.21 0.06,-0.26 0,-0.05 -0.02,-0.29 -0.03,-0.33 -0.02,-0.09 -0.04,-0.18 -0.06,-0.27 l -0.05,-0.68 c 0,0 -0.01,-0.17 -0.03,-0.24 -0.02,-0.06 -0.05,-0.14 -0.02,-0.24 0.03,-0.09 0.06,-0.13 0.06,-0.19 0,-0.06 -0.02,-0.06 -0.08,-0.16 -0.06,-0.07 -0.09,-0.15 -0.11,-0.24 0,-0.05 -0.02,-0.35 -0.02,-0.4 0,-0.05 0.03,-0.12 0.03,-0.12 l 0.05,-0.16 c 0.03,-0.16 0.05,-0.33 0.06,-0.49 l -0.32,-0.37 h -0.14 l -0.29,-0.03 c 0,0 0.11,0.06 -0.22,0.03 -0.33,-0.03 -0.19,0.18 -0.37,-0.06 -0.11,-0.15 -0.24,-0.28 -0.38,-0.4 l -0.71,-0.46 -0.08,-0.11 c -0.1,-0.11 -0.2,-0.23 -0.3,-0.33 l -0.16,-0.08 -0.21,-0.22 -0.02,-0.14 c 0,0 -0.06,-0.22 -0.08,-0.27 -0.02,-0.05 -0.62,-0.56 -1.14,-0.11 0,0 -0.08,0.1 -0.08,0.16 0,0.06 -0.11,0.21 -0.11,0.21 0,0 -0.38,0.18 -0.46,0.14 -0.08,-0.03 -0.25,-0.28 -0.25,-0.28 0,0 -0.06,-0.35 -0.1,-0.4 -0.03,-0.05 -0.49,-0.08 -0.7,-0.53 -0.21,-0.44 0.09,-0.47 0.02,-0.66 -0.08,-0.19 -0.28,-0.38 -0.28,-0.38 0,0 -0.18,-0.24 -0.22,-0.27 -0.05,-0.03 -0.27,-0.19 -0.32,-0.3 -0.04,-0.1 -0.09,-0.19 -0.14,-0.28 -0.03,-0.05 -0.06,-0.24 -0.06,-0.24 0,0 -0.03,-0.14 -0.05,-0.19 -0.02,-0.05 -0.16,-0.3 -0.16,-0.3 0,0 0.65,0.14 0.73,-0.25 0.08,-0.4 0.06,-0.52 0.06,-0.52 0,0 0.05,-0.05 0.11,-0.05 0.06,0 0.25,-0.03 0.25,-0.03 0,0 -0.19,-0.08 -0.21,-0.13 -0.02,-0.05 -0.02,-0.13 -0.02,-0.17 0,-0.04 -0.46,-0.28 -0.46,-0.28 0,0 -0.22,-0.07 -0.27,-0.11 -0.05,-0.05 -0.16,-0.21 -0.16,-0.21 l -0.41,-0.16 c 0,0 -0.35,-0.16 -0.38,-0.22 -0.03,-0.06 -0.08,-0.21 -0.13,-0.27 -0.05,-0.06 -0.1,-0.13 -0.16,-0.19 l -0.56,-0.29 c 0,0 -0.4,-0.33 -0.52,-0.29 -0.13,0.05 -0.14,0.06 -0.21,-0.02 -0.06,-0.08 0.05,-0.16 -0.28,-0.18 -0.33,-0.02 -0.37,0.1 -0.4,-0.02 -0.02,-0.09 -0.06,-0.17 -0.09,-0.25 -0.02,-0.05 -0.06,-0.1 -0.09,-0.14 l -0.24,-0.25 c 0,0 -0.13,-0.51 -0.06,-0.54 0.06,-0.03 -0.08,-0.13 -0.08,-0.13 l -0.19,0.16 -0.4,0.16 -0.32,0.03 c 0,0 -0.22,-0.08 -0.29,-0.09 -0.08,-0.02 -0.17,-0.03 -0.25,-0.05 l -0.21,0.08 c 0,0 -0.55,0.22 -0.55,0.27 0,0.05 -0.16,0.21 -0.21,0.27 -0.05,0.06 -0.22,0.21 -0.27,0.21 -0.05,0 -0.08,0.02 -0.24,-0.05 -0.16,-0.06 -0.35,0 -0.44,-0.11 -0.1,-0.11 -0.14,-0.16 -0.22,-0.16 -0.08,0 -0.19,0.06 -0.27,0.09 -0.08,0.03 -0.13,0.11 -0.21,0.11 -0.08,0 -0.32,0 -0.6,0.27 0,0 -0.56,-0.03 -0.87,0.32 0,0 -0.08,0.02 -0.13,-0.06 -0.05,-0.08 -0.21,0.32 -0.21,0.38 0,0.06 -0.59,1.6 -1.16,1.63 l -0.1,-0.06 c 0,0 0.11,0.29 0.05,0.39 -0.06,0.11 -0.12,0.33 -0.12,0.33 l 0.18,0.42 -0.27,-0.38 -0.06,0.24 0.1,0.24 -0.1,0.05 0.13,0.28 0.12,0.43 -0.23,-0.2 c 0,0 0.11,0.91 0.09,0.96 -0.01,0.05 -0.08,0.39 -0.09,0.45 -0.01,0.06 -0.05,0.2 -0.04,0.25 0.01,0.05 0.19,0.97 0.2,1.04 0.01,0.06 0.05,0.38 0.07,0.43 0.02,0.05 0.31,1.12 0.33,1.17 0.02,0.05 0.01,0.08 0.13,0.21 0.12,0.13 -0.01,-0.03 0.3,0.33 0.31,0.37 0.3,0.39 0.39,0.51 0.09,0.12 0.18,0.25 0.18,0.25 l 0.1,-0.11 0.03,0.22 c 0,0 -0.06,0.22 0.08,0.34 0.14,0.13 0.13,0.14 0.27,0.25 0.14,0.11 0.46,0.26 0.64,0.37 0.18,0.11 0.42,0.18 0.57,0.34 0.16,0.17 0.62,0.58 0.62,0.58 0,0 0.13,0.81 0.14,0.93 0.01,0.12 0.2,0.36 0.31,0.44 l 0.43,0.33 0.06,-0.12 0.06,0.21 0.11,0.12 v 0.15 c 0,0 0.22,0.18 0.22,0.23 v 0.17 c 0,0 -0.07,0.27 -0.07,0.27 l -0.12,0.1 -0.12,0.05 0.07,0.19 -0.18,0.03 0.21,0.29 -0.25,-0.15 h -0.08 c 0,0 -0.12,0.02 -0.12,0.02 0,0 -0.02,0.05 0.01,0.16 0.04,0.11 0.24,0.64 0.32,0.76 0.08,0.12 0.25,0.45 0.25,0.45 l 0.21,0.55 0.07,0.22 c 0,0 0.14,0.33 0.15,0.4 0.01,0.07 0.14,0.32 0.06,0.31 -0.08,-0.01 -0.12,0 -0.12,0 0,0 0.33,0.48 0.18,0.58 -0.15,0.11 -0.25,-0.02 -0.25,-0.02 h -0.11 l -0.21,0.17 v 0.2 l 0.04,0.04 c -4.39,-3.85 -7.16,-9.48 -7.16,-15.76 0,-7.95 4.45,-14.88 10.98,-18.43 v 0.07 l -0.05,0.07 v 0.1 l 0.03,0.12 0.14,-0.03 0.12,-0.07 0.09,-0.05 c 0,0 0.26,-0.21 0.26,-0.29 0,-0.08 0.07,-0.05 0.07,-0.05 l 0.26,-0.09 c 0,0 0.09,-0.03 0.17,-0.05 0.07,-0.02 0.09,-0.12 0.09,-0.12 l 0.1,-0.05 c 0,0 0.09,0.02 0.14,0.02 h 0.19 c 0,0 0.17,-0.24 0.17,-0.31 0,-0.07 0.02,-0.14 0.02,-0.14 h -0.01 c 0,0 0.19,-0.08 0.19,-0.08 l 0.08,0.1 0.07,0.02 -0.05,0.17 c 0,0 -0.17,0.14 -0.26,0.24 -0.09,0.09 -0.14,0.14 -0.21,0.21 -0.07,0.07 -0.02,0.09 -0.02,0.09 l 0.05,0.14 0.24,0.19 0.4,-0.12 0.12,-0.05 0.24,-0.14 0.14,-0.1 h 0.17 l 0.14,-0.12 0.12,-0.14 0.31,-0.14 0.19,-0.14 c 0.19,-0.14 0.21,-0.03 0.21,-0.03 l 0.12,-0.03 c 0.12,-0.02 0.6,-0.17 0.6,-0.17 0,0 0.14,-0.07 1,-0.12 0.86,-0.05 0.12,-0.09 0.12,-0.09 l -0.29,-0.05 c -0.28,-0.05 -0.07,0 -0.14,0 -0.07,0 -0.07,0 -0.17,-0.05 -0.1,-0.05 -0.02,-0.07 -0.02,-0.14 0,-0.07 0.12,-0.07 0.12,-0.07 0,0 0.07,-0.05 0.19,-0.07 0.12,-0.03 0.38,0 0.38,0 0,0 0.21,-0.03 0.55,-0.07 0.33,-0.05 0.07,0 0.26,-0.02 0.19,-0.03 0.38,-0.05 0.45,-0.1 0.07,-0.05 0.09,-0.05 0.31,-0.14 0.07,-0.03 0.11,-0.05 0.13,-0.05 l 0.11,-0.14 c 0,0 -0.26,0.03 -0.33,0.03 h -0.36 c -0.09,0 -0.14,0 -0.21,-0.03 -0.07,-0.02 -0.09,-0.02 -0.09,-0.02 l -0.36,-0.02 -0.26,0.02 -0.09,0.02 -0.17,0.05 -0.07,0.03 c -0.07,0.02 -0.14,0 -0.14,0 h -0.12 l -0.09,-0.03 c 1.43,-0.32 2.89,-0.5 4.35,-0.52 l 0.14,0.09 0.05,0.1 0.14,0.07 -0.52,-0.09 -0.24,-0.05 h -0.12 l -0.28,0.02 v 0.07 l -0.36,0.07 0.17,0.02 0.28,0.05 h 0.6 c 0.5,0 0.09,0.05 0.09,0.05 l 0.07,0.05 c 0,0 0.1,0.05 0.17,0.1 0.04,0.03 0.08,0.06 0.12,0.09 l 0.67,0.02 0.14,0.05 v 0.1 l 0.05,0.17 -0.43,-0.02 h -0.38 c -0.24,0 -0.21,0.05 -0.21,0.05 0,0 -0.38,-0.03 -0.55,-0.05 -0.17,-0.02 -0.12,0 -0.12,0 0,0 -0.09,-0.02 -0.21,-0.05 l -0.21,-0.07 -0.19,-0.14 0.12,-0.14 -0.24,0.02 -0.17,0.05 h -0.07 l -0.07,0.07 -0.19,0.12 h -0.09 l -0.12,-0.02 h -0.17 l -0.6,0.24 -0.12,0.02 -0.26,0.14 -0.05,0.12 0.17,-0.05 0.52,-0.31 0.02,0.12 -0.12,0.07 h -0.07 l -0.26,0.14 h 0.4 l 0.43,-0.02 0.07,-0.02 0.21,-0.05 0.17,-0.03 0.09,0.07 -0.05,0.1 -0.07,0.02 -0.09,0.05 c 0,0 -0.09,0 -0.17,0.02 -0.04,0.01 -0.08,0.02 -0.12,0.02 h -0.21 l 0.24,0.09 0.17,0.03 h 0.14 l 0.31,-0.05 0.21,-0.07 0.14,-0.07 0.45,0.03 0.64,0.02 h 0.5 l 0.6,-0.19 h 0.26 l 0.21,-0.14 0.05,-0.1 h 0.48 l 0.33,0.02 c 0.33,0.02 0.26,0 0.26,0 l -0.05,-0.07 -0.02,-0.09 -0.86,-0.29 0.1,0.02 c 0,0 0.07,0 0.5,0.03 h 0.14 c 0.25,0.02 0.14,0 0.14,0 l 0.12,-0.07 -0.19,-0.05 -0.14,-0.05 -0.07,-0.02 -0.09,-0.03 -0.24,-0.02 -0.07,-0.07 h 0.17 l 0.36,-0.02 0.1,-0.07 0.04,-0.08 0.25,0.03 -0.02,0.14 v 0.12 l 0.12,0.07 0.19,0.12 0.12,0.05 c 0,0 0,0.02 0.12,0.05 0.12,0.03 0.02,0 0.12,0.03 0.06,0.02 0.13,0.02 0.19,0.02 v 0.07 c 0,0 -0.03,0.02 -0.1,0.02 h -0.22 c 0,0 -0.09,-0.04 -0.13,-0.05 l -0.21,-0.07 h -0.38 l 0.14,0.24 0.07,0.07 h 0.09 l 0.33,-0.09 0.07,0.07 -0.28,0.12 c 0,0 0.07,0 -0.07,0.02 -0.14,0.03 -0.28,0.07 -0.28,0.07 h -0.07 l 0.03,0.07 0.28,0.14 h 0.07 c 0,0 0.09,0.03 0.18,0.06 0.05,0.04 0.1,0.1 0.18,0.17 0.76,0.74 0.29,0.33 0.29,0.33 l -0.69,-0.07 -0.14,0.05 -0.12,-0.05 -0.09,-0.02 -0.07,0.12 c 0,0 -0.05,0.07 -0.12,0.09 l -0.26,0.1 -0.57,0.14 -0.47,0.07 -0.12,-0.05 -0.36,-0.07 -0.17,-0.02 -0.19,-0.03 -0.07,0.05 -0.1,0.07 -0.17,0.12 h -0.24 l -0.28,0.02 0.09,-0.05 0.07,-0.07 0.09,-0.09 -0.03,-0.07 -0.14,-0.02 -0.21,0.07 -0.14,0.14 -0.36,0.07 -0.26,-0.14 -0.09,-0.05 h -0.21 l -0.09,0.02 h -0.21 l -0.36,-0.07 -0.36,0.14 -0.55,0.17 -0.41,0.03 -0.38,0.12 c 0,0 0,0.07 -0.12,0.17 -0.12,0.09 -0.26,0.07 -0.26,0.07 l -0.19,0.14 -0.02,0.09 c 0,0 0.64,-0.43 -0.22,0.17 -0.86,0.59 -0.17,0.31 -0.17,0.31 l 0.48,0.07 0.38,-0.09 0.57,-0.07 c 0.36,0.09 0.55,0.14 0.55,0.14 l 0.4,-0.12 h 0.1 l 0.24,0.14 -0.02,0.12 0.07,0.14 c 0.09,0.07 0.17,0.12 0.17,0.12 l 0.43,0.07 h 0.55 c 0,0 0.03,0.05 0.03,0.12 0,0.07 0.17,0.38 0.17,0.38 0.21,0.17 0.21,0.19 0.31,0.21 0.09,0.03 0.14,0.05 0.29,0.07 l 0.14,0.02 c 0,0 0.12,0.29 0.1,0 l -0.03,-0.28 v -0.14 c 0,0 0.03,-0.07 0.1,-0.07 0.07,0 0.19,-0.02 0.19,-0.02 0,0 0.02,0.02 0.1,0.02 0.08,0 0.05,0 0.21,-0.07 0.17,-0.07 0.21,0 0.19,0.07 -0.02,0.07 -0.05,0.13 -0.09,0.19 -0.05,0.07 0.14,-0.19 -0.05,0.07 -0.19,0.26 -0.9,0.21 -0.19,0.26 0.71,0.05 0.83,0 0.83,0 0,0 -0.14,-0.14 -0.14,-0.21 0,-0.07 0.02,-0.17 0.02,-0.17 0,0 -0.05,0.02 0.07,-0.09 l 0.12,-0.12 c 0,0 0.02,-0.17 0.07,-0.05 0.03,0.08 0.04,0.17 0.02,0.26 0,0 0.02,-0.03 0.12,0.05 0.12,0.09 0.21,0.14 0.21,0.14 h 0.1 l 0.14,-0.12 h 0.17 c 0,0 -0.02,-0.02 0.07,0.05 l 0.09,0.07 0.26,-0.1 0.07,-0.07 0.55,-0.12 0.02,-0.07 0.52,-0.21 0.12,0.09 c 0,0 0.02,0.03 0.14,0.07 0.12,0.05 0.17,0.12 0.17,0.12 0,0 -0.38,-0.07 -0.45,0.07 l -0.07,0.14 0.57,0.14 0.14,0.07 0.17,0.09 c 0,0 0.03,-0.02 0.07,0.07 l 0.12,0.24 0.09,0.24 0.17,0.1 c 0,0 0.07,0.02 0.14,-0.02 0.05,-0.03 0.11,-0.06 0.17,-0.07 h 0.57 l 0.14,0.02 0.21,-0.07 0.29,0.17 0.42,0.2 c 0,0 0.05,0.05 0.11,0.11 0.21,0.22 0.31,0.22 0.31,0.22 l 0.12,-0.03 0.09,-0.05 0.21,-0.1 h 0.12 l 0.19,-0.12 0.21,0.12 0.24,0.12 c 0.14,0.28 0.05,0.19 0.14,0.28 0.1,0.09 0,0.07 0.1,0.09 l 0.09,0.02 0.19,-0.09 c 0,0 0.09,-0.02 0.4,0.14 0.31,0.17 0.33,0.07 0.31,0.17 -0.03,0.09 -0.09,0.12 -0.09,0.12 0,0 0.02,0.05 0,0.12 -0.03,0.07 -0.05,0.17 -0.05,0.17 l 0.24,-0.17 0.07,0.02 0.29,0.29 0.24,0.07 c 0,0 0.14,0.05 0.05,-0.07 -0.09,-0.12 -0.28,-0.33 -0.28,-0.33 l 0.14,-0.05 c 0,0 -0.07,0.17 0.07,0 l 0.14,-0.17 c 0,0 0.09,-0.12 0.12,-0.05 0.02,0.07 -0.05,0 0,0.17 0.05,0.17 0,-0.02 0.05,0.17 0.05,0.19 0.12,0.29 0.12,0.29 0,0 0.02,0.05 0.12,0.1 0.09,0.05 0.31,0.09 0.31,0.09 l -0.05,-0.14 -0.05,-0.1 c 0,0 0,-0.02 -0.05,-0.12 -0.05,-0.09 -0.02,-0.02 -0.07,-0.19 -0.04,-0.14 0.13,-0.15 0.18,-0.14 0,0 0.03,0.03 0.25,0.12 l 0.33,0.14 0.14,0.14 0.31,0.31 c 0,0 0.19,0.05 0.19,0.12 0,0.07 0.12,0.24 0.12,0.24 l 0.1,-0.02 0.1,-0.07 0.19,0.05 0.09,0.02 0.05,0.12 c 0,0 -0.02,-0.07 0.07,0.07 l 0.14,0.21 0.12,0.07 0.07,-0.05 0.1,-0.24 v -0.07 c 0,0 -0.03,-0.12 0.09,-0.02 0.12,0.1 0.05,0.05 0.17,0.17 l 0.12,0.12 0.05,-0.1 c 0,0 0.12,0.12 -0.02,-0.12 l -0.14,-0.24 -0.19,-0.29 -0.14,-0.21 -0.02,-0.17 0.14,0.12 c 0,0 0.07,0.07 0.14,0.09 0.07,0.03 0.02,0.1 0.07,0.03 0.02,-0.03 0.06,0 0.07,0 -0.04,-0.05 -0.08,-0.1 -0.12,-0.15 -0.21,-0.28 -0.17,-0.09 -0.21,-0.28 -0.05,-0.19 -0.07,-0.26 -0.07,-0.26 0,0 0.02,-0.07 0,-0.14 -0.04,-0.13 -0.07,-0.25 -0.1,-0.38 l 0.1,-0.02 0.46,-0.16 c -0.05,-0.06 -0.09,-0.13 -0.13,-0.19 -0.19,-0.31 -0.29,-0.38 -0.29,-0.38 l -0.07,-0.09 -0.17,-0.14 -0.19,-0.31 c 0.09,-0.05 0.31,0 0.31,0 h 0.12 v -0.24 c 0.28,0.23 0.56,0.47 0.84,0.72 l 0.02,0.05 h -0.17 l 0.12,0.17 0.07,0.07 0.05,0.17 c 0,0 0.02,0.07 0.02,0.14 0,0.07 0.05,0.19 0.05,0.19 0,0 0.14,0.19 0.14,0.26 0,0.07 -0.14,0.02 0.05,0.21 0.19,0.19 0.14,0.12 0.19,0.19 0.05,0.07 -0.05,-0.09 0.05,0.07 0.1,0.17 0.21,0.33 0.21,0.33 l -0.07,0.09 c 0,0 -0.03,0.02 0,0.09 0.02,0.07 0.07,0.14 0.07,0.14 0,0 0.07,0.12 0,0.14 -0.07,0.02 -0.14,0.02 -0.14,0.02 l -0.24,-0.19 -0.24,-0.1 -0.05,-0.02 c 0,0 0.07,0.24 0.07,0.31 0,0.07 -0.05,0.14 -0.05,0.14 l -0.12,0.12 -0.12,0.12 -0.07,0.45 v 0.17 c 0,0.14 0.02,0.29 0.02,0.36 0,0.07 -0.19,-0.14 -0.19,-0.14 l -0.03,-0.09 c -0.02,-0.1 -0.09,-0.26 -0.09,-0.26 0,0 -0.02,-0.05 -0.05,-0.12 -0.02,-0.06 -0.04,-0.11 -0.07,-0.17 l -0.09,-0.02 0.03,0.64 -0.12,-0.12 c 0,0 0.05,0.07 -0.07,-0.07 -0.12,-0.14 -0.22,-0.26 -0.22,-0.26 l -0.14,-0.12 c 0,0 -0.1,0.09 -0.17,-0.09 l -0.07,-0.19 -0.07,0.1 -0.12,0.02 c 0,0 -0.02,0.07 -0.07,0.16 -0.05,0.09 -0.08,0.19 -0.1,0.29 0,0.07 -0.09,0.1 0,0.22 0.1,0.12 0.05,0.07 0.12,0.19 0.07,0.12 0.02,-0.05 0.07,0.12 0.05,0.17 0.12,0.07 0.05,0.17 l -0.07,0.09 -0.21,0.1 -0.12,0.14 0.05,0.17 0.09,0.07 c 0,0 -0.05,-0.05 0.12,0.05 0.17,0.09 0.26,0.21 0.26,0.21 0,0 -0.02,-0.05 0.05,0.07 0.07,0.12 0,-0.02 0.07,0.12 0.07,0.14 0.21,0.33 0.21,0.33 0,0 -0.23,-0.08 0.02,0.1 l 0.1,0.07 0.12,0.08 0.28,0.18 c 0,0 -0.73,-0.39 -0.76,-0.51 -0.02,-0.12 -0.08,-0.22 -0.17,-0.3 -0.1,-0.07 -0.17,-0.14 -0.17,-0.14 l -0.19,-0.05 -0.09,-0.07 h -0.17 c 0,0 0,0.05 0.03,0.14 l 0.05,0.19 0.05,0.07 0.1,0.21 -0.1,0.12 c 0,0 -0.05,-0.02 -0.05,0.14 0,0.16 -0.09,-0.05 0,0.17 l 0.1,0.21 c 0,0 -0.05,0.05 0.09,0.05 h 0.14 l 0.47,0.19 c 0,0 0,0.07 0.03,0.17 0.02,0.09 0.14,0.21 0.14,0.21 0,0 -0.02,0.02 0.12,0.12 0.14,0.09 0.21,0.17 0.21,0.17 l -0.43,-0.24 -0.24,-0.31 -0.12,-0.1 c 0,0 -0.1,-0.05 -0.12,0.03 -0.02,0.07 -0.05,0.16 -0.05,0.16 l 0.07,0.26 0.12,0.12 -0.1,0.21 c 0,0 0.02,0.19 -0.07,0.21 -0.1,0.02 -0.33,-0.02 -0.33,-0.02 l 0.07,-0.12 c 0,0 0.02,-0.07 0.02,-0.14 0,-0.07 0.02,-0.24 0.02,-0.24 l -0.05,-0.17 c 0,0 -0.05,-0.07 -0.07,-0.14 -0.02,-0.07 -0.05,-0.09 -0.07,-0.19 -0.02,-0.09 -0.07,-0.07 -0.14,-0.24 -0.07,-0.17 -0.07,-0.19 -0.09,-0.26 l -0.17,-0.52 -0.19,-0.43 -0.19,-0.17 h -0.07 c 0,0 -0.05,0.05 -0.05,0.14 v 0.24 c 0,0 0.02,0 0,0.1 -0.02,0.09 -0.02,0.21 -0.02,0.21 l 0.05,0.14 0.17,0.38 v 0.14 c 0,0 -0.28,-0.21 0.05,0.07 0.33,0.29 0.31,0.12 0.33,0.29 l 0.02,0.17 -0.22,0.05 -0.76,-0.5 -0.1,-0.07 -0.55,-0.36 0.14,0.33 0.07,0.14 0.09,0.17 -0.02,0.1 c 0,0 0.14,0 -0.07,0.02 l -0.22,0.02 h -0.43 l -0.14,0.02 -0.24,-0.31 -0.14,0.14 c 0,0 -0.07,0.07 -0.14,0.1 -0.07,0.02 -0.19,0.07 -0.19,0.07 l -0.38,0.26 c 0,0 0.05,0.12 -0.12,0.1 -0.17,-0.02 -0.12,0.38 -0.26,-0.02 l -0.14,-0.41 0.17,-0.1 h 0.12 v -0.09 c 0,0 -0.05,-0.1 -0.12,-0.12 -0.07,-0.02 -0.24,-0.09 -0.24,-0.09 l -0.02,0.12 -0.02,0.12 c 0,0 -0.05,0.07 -0.05,0.14 0,0.07 0.05,0.12 0.05,0.19 0,0.07 -0.02,0.22 -0.02,0.22 l -0.09,0.12 c 0,0 -0.02,0.05 -0.14,0.03 -0.12,-0.03 -0.22,-0.03 -0.22,-0.03 l -0.24,0.05 -0.03,0.07 -0.06,-0.07 v 0.17 l -0.07,0.12 -0.07,0.19 h -0.09 l -0.12,-0.12 -0.09,-0.02 -0.07,-0.12 c -0.04,-0.07 -0.1,-0.14 -0.17,-0.19 0,0 -0.02,0 -0.02,0.07 0,0.07 -0.03,-0.14 0,0.07 0.02,0.21 0.09,0.5 0.09,0.5 0,0 0.07,0.1 -0.02,0.07 -0.14,-0.05 -0.29,-0.09 -0.43,-0.14 l -0.05,-0.19 c 0,0 -0.03,-0.26 -0.03,-0.33 v -0.19 c 0,-0.07 0.03,-0.12 0.07,-0.19 0.05,-0.07 0,-0.09 -0.03,-0.24 l 0.03,-0.14 0.52,0.36 c 0.14,0.09 0.12,0.05 0.12,0.05 0,0 0.12,0 0.22,-0.02 q 0.09,-0.02 0.38,-0.14 c 0.29,-0.12 0.07,-0.28 0.07,-0.28 l -0.09,-0.17 -0.14,-0.17 -0.07,-0.07 c 0,0 -0.02,-0.09 -0.09,-0.17 -0.07,-0.07 -0.12,-0.14 -0.12,-0.14 l -0.07,-0.07 c -0.07,-0.07 -0.07,-0.12 -0.07,-0.12 l -0.12,-0.14 -0.26,-0.24 c 0,0 -0.12,0.03 -0.28,-0.07 -0.17,-0.1 0,0 -0.07,-0.1 -0.07,-0.09 0.02,-0.14 0.02,-0.14 l 0.03,-0.07 c 0.02,-0.07 -0.05,-0.07 -0.12,-0.12 -0.07,-0.05 -0.07,-0.07 -0.14,-0.14 -0.07,-0.07 -0.07,-0.02 -0.07,-0.02 0,0 -0.07,-0.05 -0.17,-0.14 -0.06,-0.06 -0.11,-0.11 -0.17,-0.17 l -0.24,-0.05 -0.17,0.12 c 0,0 0.24,0.29 -0.71,0.02 -0.28,-0.08 -0.44,-0.12 -0.53,-0.15 -0.09,0.05 -0.38,0.23 -0.43,0.29 -0.05,0.07 -0.03,0.07 -0.1,0.14 -0.07,0.07 -0.38,-0.02 -0.38,-0.02 l -0.24,0.09 c -0.24,0.1 0,0 -0.07,0.07 -0.07,0.07 -0.02,0.1 -0.02,0.1 0,0 -0.45,0.14 -0.62,0.19 -0.17,0.05 -0.1,0 -0.17,0 -0.07,0 -0.12,0.07 -0.12,0.07 l -0.17,0.07 c 0,0 -0.05,0.07 -0.17,0.1 -0.12,0.02 -0.5,0.05 -0.5,0.05 l -0.05,-0.07 -0.07,-0.07 -0.24,0.07 -0.38,-0.07 -0.21,0.14 -0.14,0.17 c 0,0 -0.12,-0.02 -0.19,-0.02 -0.07,0 -0.09,0.14 -0.09,0.14 l -0.02,0.14 c -0.02,0.1 -0.01,0.12 0,0.12 -0.1,0.03 -0.19,0.07 -0.28,0.12 l -0.07,0.19 -0.24,0.05 c 0,0 0.02,0.09 0.02,0.19 0,0.1 0.17,0.26 0.17,0.26 l 0.07,0.09 c 0,0 0.17,0.05 0.38,0.05 h 0.31 l 0.12,-0.02 0.19,-0.07 v 0.17 c 0,0.09 -0.05,0.12 -0.12,0.21 -0.07,0.09 -0.14,0.38 -0.19,0.45 C 142,91.69 142,91.76 142,91.76 l -0.05,0.24 -0.09,0.22 -0.05,0.09 -0.17,0.14 -0.09,0.09 0.22,0.21 0.07,0.07 h 0.07 c 0,0 0.07,-0.02 0.28,-0.17 l 0.17,0.02 h 0.12 l 0.26,-0.09 c 0,0 0.12,-0.1 0.28,-0.26 0.17,-0.17 0,0 0.05,-0.07 0.05,-0.07 0.12,-0.09 0.21,-0.19 0.1,-0.09 0.26,-0.07 0.26,-0.07 0,0 0.07,0.03 0.14,0.03 0.07,0 0.17,-0.12 0.17,-0.12 l 0.26,-0.26 v -0.33 c 0,0 0.03,-0.14 0.05,-0.24 0.02,-0.09 0.02,-0.12 0.02,-0.12 0,0 0.09,-0.1 0.24,-0.19 0.14,-0.09 0.1,-0.05 0.21,-0.14 l 0.22,-0.14 c 0,0 0.09,-0.02 0.28,-0.05 0.19,-0.02 0,0 0.21,-0.02 0.21,-0.02 0.09,-0.02 0.17,-0.07 0.07,-0.05 0.24,-0.19 0.24,-0.19 0,0 0.22,-0.09 0.33,-0.14 0.05,-0.02 0.1,-0.04 0.14,-0.07 l 0.12,0.02 0.26,0.19 v 0.19 l -0.07,0.17 -0.4,0.12 c -0.41,0.12 0,0 -0.1,0.02 -0.09,0.03 -0.12,0.03 -0.24,0.07 -0.12,0.05 -0.17,0 -0.17,0 l -0.26,0.17 c 0,0 -0.14,0.09 -0.22,0.21 -0.07,0.12 0,0 -0.02,0.12 -0.02,0.12 -0.05,0.17 -0.05,0.17 0,0 -0.05,0.09 -0.12,0.19 -0.07,0.09 -0.07,0.12 -0.07,0.12 v 0.26 l 0.03,0.19 0.17,0.05 h 0.07 l 0.09,0.05 c 0,0 0.07,0.05 0.33,0.12 0.26,0.07 0,0 0.38,0.03 0.38,0.02 0.43,0.17 0.43,0.17 l 0.02,0.12 c 0.02,0.12 0.12,0.09 0.12,0.09 0,0 0.12,0.17 0.17,0.29 0.05,0.12 0.07,0.02 0.07,0.02 0,0 0.05,-0.09 0.07,-0.17 0.02,-0.07 0.02,-0.09 0.02,-0.24 v -0.24 c 0,-0.07 0.07,0 0.07,0 l 0.17,0.02 0.07,0.07 0.07,0.07 0.11,0.06 v 0.15 c 0,0 -0.11,0.21 -0.11,0.21 l -0.14,0.07 -0.14,0.05 -0.2,0.04 c -0.04,-0.08 -0.09,-0.06 -0.09,-0.06 l -0.09,-0.09 c -0.09,-0.09 -0.06,-0.06 -0.14,-0.06 h -0.33 c -0.28,0 -0.03,0.06 -0.03,0.06 l -0.09,0.16 -0.09,0.14 -0.05,0.07 v 0.07 l 0.02,0.08 -0.09,0.06 c 0,0 -0.05,-0.03 -0.09,-0.11 -0.05,-0.08 0,-0.06 0.02,-0.16 0.01,-0.1 0,0 0.01,-0.05 0.02,-0.05 0.06,-0.06 0.14,-0.16 0.08,-0.09 0.06,-0.08 0.13,-0.09 0.06,-0.02 -0.03,-0.06 -0.03,-0.06 0,0 -0.03,-0.02 -0.14,-0.11 -0.11,-0.09 -0.08,-0.03 -0.25,-0.16 -0.18,-0.13 0,0 -0.05,-0.03 -0.05,-0.03 -0.21,-0.05 -0.29,-0.06 -0.08,-0.02 -0.06,0.02 -0.13,0.02 -0.07,0 -0.06,0.08 -0.06,0.08 l -0.14,0.05 v 0.14 c 0,0.08 0.04,0.08 0.04,0.08 l 0.1,0.06 -0.05,0.11 c 0,0 -0.06,0.08 -0.16,0.19 -0.1,0.11 -0.02,0.08 -0.02,0.13 0,0.05 -0.09,0.09 -0.24,0.05 -0.14,-0.05 0,0 -0.01,-0.05 -0.02,-0.05 -0.03,-0.05 -0.05,-0.09 -0.02,-0.05 -0.02,-0.06 -0.03,-0.19 -0.02,-0.13 -0.03,-0.13 -0.03,-0.13 l -0.27,0.08 -0.19,0.14 -0.1,0.05 c 0,0 0.1,-0.05 -0.06,0.08 -0.16,0.13 -0.06,0.11 -0.06,0.11 0,0 -0.05,0.16 -0.05,0.24 0,0.08 0.03,0.14 0.03,0.14 l -0.28,0.13 c 0,0 -0.03,-0.02 -0.11,-0.05 -0.08,-0.03 -0.06,-0.02 -0.11,-0.06 -0.05,-0.05 -0.05,-0.03 -0.11,-0.03 -0.06,0 0,0 0,0.06 0,0.06 0,0.08 0.02,0.13 0.01,0.03 0,0.06 -0.02,0.08 l -0.24,-0.08 c -0.24,-0.08 0,0 -0.13,-0.05 -0.13,-0.05 0,0 -0.02,-0.06 -0.02,-0.06 -0.02,-0.05 -0.05,-0.16 -0.03,-0.11 -0.02,-0.05 -0.02,-0.09 v -0.05 h -0.24 c -0.16,0 0,0 -0.14,-0.03 -0.14,-0.03 -0.1,-0.06 -0.21,-0.09 -0.11,-0.03 -0.27,-0.02 -0.32,-0.02 h -0.14 c 0,0 -0.05,0 -0.13,0.06 l -0.03,0.14 -0.02,0.05 c 0,0 -0.01,0.05 0,0.08 l -0.08,-0.02 0.02,-0.11 -0.03,-0.24 c 0,0 -0.01,-0.08 -0.02,-0.12 v 0 c 0,-0.08 0,-0.06 0.02,-0.19 0,-0.03 0,-0.07 0.01,-0.1 l -0.03,-0.06 -0.14,0.02 -0.22,-0.02 h -0.05 c -0.08,-0.09 -0.21,-0.17 -0.21,-0.17 l -0.05,-0.19 c -0.05,-0.19 -0.02,-0.12 -0.02,-0.12 0,0 0.02,-0.12 0.05,-0.26 0.02,-0.14 0,0 0.12,-0.1 0.02,-0.02 0.04,-0.03 0.07,-0.04 v 0.02 c 0,0 0.03,0.12 0.03,0.12 l 0.03,0.07 h 0.09 c 0.05,-0.09 0.05,-0.19 0.05,-0.19 l -0.04,-0.04 c 0.07,-0.06 0.13,-0.12 0.18,-0.2 0.09,-0.14 0,0 0.17,0 0.17,0 0,0 0,-0.07 0,-0.07 0,-0.07 0.02,-0.14 0.02,-0.07 0.07,-0.07 0.07,-0.07 l 0.14,-0.14 c 0.07,-0.07 -0.05,-0.12 -0.05,-0.12 l -0.14,0.07 -0.07,-0.02 -0.09,-0.12 -0.12,-0.03 -0.12,0.1 0.14,0.02 0.05,0.1 -0.05,0.09 -0.1,0.05 -0.12,-0.07 -0.12,-0.03 -0.05,0.07 -0.05,0.09 -0.14,0.1 -0.05,0.09 v 0.09 l -0.02,0.09 -0.07,0.17 -0.02,0.12 c -0.02,0.12 -0.21,0.09 -0.21,0.09 l -0.06,0.09 c 0,0 -0.04,0 -0.21,0.06 -0.18,0.06 0,0 -0.07,-0.08 -0.07,-0.08 0,0 -0.07,-0.17 -0.07,-0.16 0,0 -0.18,0.14 -0.18,0.14 -0.05,0.03 -0.11,0.01 -0.06,-0.02 -0.02,-0.06 -0.07,-0.25 -0.05,-0.19 -0.03,-0.06 -0.18,-0.04 -0.15,0.02 -0.01,0.05 -0.25,0.25 -0.24,0.2 -0.08,0.03 -0.18,0.01 -0.1,-0.02 0,0 0.03,-0.13 0.02,-0.13 0.06,-0.13 0.05,-0.19 -0.01,-0.06 -0.08,0.05 -0.22,0.13 -0.13,0.08 -0.05,0.03 -0.14,0.07 -0.1,0.04 -0.05,0.03 -0.11,0.09 -0.06,0.07 -0.02,0.06 -0.05,0.18 -0.02,0.12 -0.08,0 -0.12,-0.01 -0.03,-0.01 0,-0.1 0,-0.1 0,0 -0.11,-0.04 -0.19,-0.04 -0.08,0 -0.06,0 -0.21,-0.06 -0.16,-0.06 -0.04,-0.01 -0.17,-0.1 -0.13,-0.08 -0.06,0 -0.13,0.07 -0.07,0.07 -0.08,0.02 -0.2,0.14 -0.12,0.12 -0.12,0 -0.27,0.01 -0.16,0.01 0,0 -0.08,-0.08 -0.08,-0.08 0,0 -0.08,-0.01 -0.08,-0.01 -0.04,0.06 -0.06,0.13 -0.02,0.07 -0.04,0.01 -0.19,-0.07 -0.16,-0.08 -0.06,-0.03 -0.14,-0.19 -0.08,-0.15 0,-0.03 0.01,-0.17 0.01,-0.13 -0.03,-0.07 -0.12,-0.1 -0.08,-0.02 -0.05,0.07 -0.08,0.19 -0.04,0.12 -0.01,0.03 -0.14,0.12 -0.13,0.08 -0.03,0 -0.07,-0.02 -0.03,-0.03 -0.12,-0.06 -0.25,-0.17 -0.13,-0.11 -0.02,-0.07 -0.05,-0.18 -0.02,-0.11 -0.08,-0.05 -0.2,-0.09 -0.12,-0.05 -0.05,-0.07 -0.12,-0.11 -0.07,-0.03 -0.03,0.06 -0.11,0.16 -0.07,0.1 -0.03,0.12 -0.01,0.15 0.01,0.04 0.04,0.08 0.07,0.12 0.05,0.06 0,0 0.08,0.12 0.08,0.12 0.01,0.04 0.01,0.33 0,0.07 0,0.11 0,0.13 0,0 -0.01,0 -0.02,0.01 -0.08,0.06 -0.02,0.05 -0.13,0.18 -0.11,0.13 0,0.12 0.01,0.2 0.01,0.08 0.03,0.07 -0.02,0.18 -0.06,0.11 -0.08,0.06 -0.13,0.15 -0.05,0.09 0,0.07 -0.06,0.19 -0.06,0.12 -0.07,-0.05 -0.14,-0.02 -0.07,0.02 -0.04,0.01 -0.09,0.05 -0.06,0.03 -0.06,0.11 -0.09,0.18 -0.04,0.07 0.03,0.09 -0.37,0.17 -0.41,0.07 -0.04,0.08 -0.19,0.15 -0.15,0.07 -0.08,-0.06 -0.23,-0.18 -0.14,-0.12 -0.03,-0.13 -0.03,-0.13 h -0.12 c -0.07,0 -0.08,-0.09 -0.12,-0.17 -0.04,-0.07 -0.06,-0.11 -0.06,-0.18 0,-0.07 -0.05,-0.05 -0.26,-0.36 -0.21,-0.31 -0.14,-0.19 -0.18,-0.26 -0.03,-0.07 -0.15,-0.18 -0.21,-0.25 -0.06,-0.07 -0.09,0 -0.16,-0.02 -0.06,-0.01 -0.06,0 -0.15,-0.06 -0.1,-0.06 -0.05,-0.02 -0.08,0 -0.03,0.02 -0.03,0.13 -0.17,0.31 -0.13,0.18 -0.11,0.05 -0.11,0.05 0,0 -0.11,0.08 -0.14,0.13 -0.04,0.05 -0.19,0.28 -0.19,0.28 0,0 -0.2,0.14 -0.31,0.22 -0.11,0.08 -0.16,0.07 -0.2,0.11 -0.05,0.03 -0.15,0.05 -0.31,0.11 -0.16,0.06 -0.07,0.12 -0.07,0.17 0,0.05 0.03,0.08 0.03,0.17 0,0.09 -0.14,0.17 -0.25,0.3 -0.11,0.13 -0.05,0.11 -0.07,0.17 -0.02,0.06 -0.05,0.09 0,0.15 0.05,0.06 0,0 0.18,0.14 0.18,0.14 0.03,0.03 0.02,0.49 -0.01,0.45 -0.05,0.13 -0.07,0.21 -0.02,0.08 0,0.11 0,0.11 l 0.37,0.1 0.08,0.07 c 0,0 0.06,0.11 0.15,0.24 0.09,0.13 0.17,0.17 0.21,0.19 0.05,0.03 0.09,0.06 0.18,0.11 0.08,0.05 0.13,-0.02 0.13,-0.02 l 0.12,-0.05 c 0.12,-0.05 0.19,0.06 0.19,0.06 0,0 0.05,0.11 0.14,0 0.09,-0.11 0.43,-0.12 0.43,-0.12 h 0.08 c 0,0 0.02,-0.03 0.03,-0.19 0.01,-0.15 0.04,-0.05 0.06,-0.09 0.03,-0.05 0.12,-0.08 0.19,-0.11 0.07,-0.03 0.11,-0.07 0.25,-0.08 0.14,-0.01 0.09,-0.06 0.13,-0.07 0.03,-0.01 0.13,-0.03 0.2,-0.07 0.07,-0.04 0.06,0 0.13,0.04 0.07,0.03 0.08,0.03 0.15,0.05 0.07,0.01 0.14,0.01 0.19,0.05 0.05,0.04 0.09,0 0.36,0 0.27,0 0.11,-0.05 0.19,-0.11 0.08,-0.06 0.1,-0.14 0.16,-0.3 0.06,-0.16 0.02,-0.05 0.07,-0.05 0.05,0 0.19,0.02 0.26,0.04 0.07,0.01 0.07,0.02 0.15,0.06 0.08,0.04 0.1,0.1 0.1,0.1 l 0.02,0.08 h 0.11 c 0,0 0.01,0.04 0.01,0.11 0,0.07 0.02,0.11 0.04,0.15 0.01,0.06 0.04,0.11 0.07,0.17 0.05,0.09 0.01,0.04 0.12,0.06 0.11,0.03 0.05,-0.02 0.25,-0.08 0.2,-0.06 0.05,0.01 0.25,0.12 0.2,0.11 0.08,0.01 0.33,0 0.25,-0.03 0.06,-0.03 0.13,-0.03 0.07,0 0.12,0.05 0.12,0.05 l 0.09,0.2 c 0,0 0.05,0.14 0.08,0.26 0.04,0.12 0,0.06 -0.04,0.15 -0.04,0.09 -0.02,0.09 -0.05,0.18 -0.02,0.08 -0.02,0.07 -0.07,0.17 -0.05,0.1 0.01,0.1 0.01,0.2 0,0.1 0.02,0.12 0.04,0.18 0.01,0.06 0.01,0.12 0.02,0.19 0.01,0.07 0.01,0.1 0.03,0.14 0.03,0.05 -0.02,0.17 -0.02,0.17 v 0.04 c 0,0 0.07,0.18 0.09,0.21 0.04,0.05 0.08,0.09 0.12,0.13 0.08,0.08 0.06,0.05 0.1,0.12 0.03,0.07 0.03,0.08 0.03,0.17 0,0.09 0.01,0.1 0.05,0.19 0.04,0.09 0.05,0 0.05,0 l 0.04,0.08 c 0,0 0.01,0.08 0.01,0.13 0,0.05 -0.03,0.06 -0.04,0.12 -0.01,0.06 0,0.05 0.03,0.1 0.04,0.05 0.03,0.05 0.07,0.08 0.05,0.03 -0.01,0.14 -0.01,0.19 0,0.05 -0.02,0.14 -0.02,0.18 0,0.04 -0.04,0.06 -0.1,0.13 -0.06,0.07 -0.04,0.05 -0.09,0.07 -0.06,0.02 -0.04,0.05 -0.07,0.08 -0.03,0.03 -0.02,0.06 -0.08,0.12 -0.06,0.06 0,0 -0.07,0.03 -0.07,0.04 0,0 -0.03,0.04 -0.02,0.04 0.04,0.11 0.04,0.11 h 0.12 c 0,0 0.07,-0.08 0.17,-0.08 0.1,0 0.17,-0.12 0.17,-0.12 l 0.21,-0.14 c 0.07,-0.05 0,-0.17 0,-0.17 0,0 0.09,-0.09 0.14,-0.17 0.05,-0.07 0.07,-0.05 0.14,-0.05 h 0.1 l 0.12,0.07 -0.02,0.14 c -0.02,0.14 0,0 0.02,0.12 0.02,0.12 0,0 0.09,0 0.09,0 0.09,-0.1 0.09,-0.1 v -0.17 l -0.05,-0.14 c -0.02,-0.07 -0.05,-0.07 -0.05,-0.07 l -0.07,-0.12 -0.07,-0.12 -0.05,-0.07 -0.1,-0.17 -0.04,-0.21 0.12,-0.1 -0.07,-0.05 c -0.07,-0.05 -0.09,-0.05 -0.09,-0.05 0,0 -0.07,0 -0.14,-0.12 -0.07,-0.12 0,0 -0.07,-0.07 -0.07,-0.07 -0.02,-0.09 -0.05,-0.19 -0.03,-0.09 -0.03,-0.12 -0.03,-0.21 0,-0.09 0.03,-0.17 0.05,-0.26 0.02,-0.1 0.07,-0.14 0.07,-0.21 0,-0.07 -0.02,-0.14 -0.02,-0.14 0,0 -0.05,-0.07 -0.07,-0.14 -0.03,-0.07 -0.03,-0.1 -0.03,-0.24 0,-0.14 0.05,-0.14 0.07,-0.24 0.02,-0.1 0.02,-0.12 0.14,-0.17 0.12,-0.05 0.03,-0.12 0.03,-0.12 v 0 c 0.06,0 0.15,0 0.18,0 h 0.14 c 0,0 0.11,0.03 0.21,0.03 0.1,0 0,0 0.03,0.08 0.03,0.08 -0.08,0.08 -0.16,0.18 -0.08,0.09 0,0 -0.08,0.21 -0.08,0.21 0.03,0.06 0.09,0.02 0.06,-0.05 0.08,-0.03 0.21,-0.08 0.12,-0.05 0.08,0 0.08,0 l 0.08,0.11 -0.08,0.19 c -0.08,0.19 -0.03,0.06 -0.01,0.13 0.01,0.1 0,0.2 -0.03,0.3 -0.03,0.11 0,0.09 0,0.24 0,0.15 0.02,0.06 0.08,0.21 0.06,0.14 0.02,0.05 0.11,0.13 0.09,0.08 0.08,0.13 0.16,0.16 0.08,0.03 0,0.05 0.03,0.16 0.03,0.11 0.05,0.1 0.09,0.13 0.05,0.03 0.09,0.17 0.09,0.17 0,0 0.03,0.24 0.03,0.35 0,0.11 0,0.05 0.08,0.18 0.08,0.13 0.02,0.06 0,0.11 -0.02,0.05 -0.09,0.08 -0.09,0.08 l -0.03,0.14 h -0.09 c 0,0 -0.02,0.17 -0.02,0.17 0,0 -0.05,0.03 -0.14,0.05 -0.1,0.01 -0.02,0.1 -0.02,0.14 0,0.04 0.02,0.06 0.05,0.21 0.03,0.14 0.03,0.17 0.03,0.17 l 0.02,0.22 0.02,0.13 0.06,0.17 -0.05,0.02 h -0.1 c 0,0 -0.06,0.03 -0.06,0.03 0,0 0.02,0.08 0.06,0.14 l 0.13,0.17 0.06,0.05 c 0,0 0.03,0.03 0.13,0.03 0.1,0 0.05,0.03 0.14,0.06 0.1,0.03 0.08,0.06 0.14,0.11 0.06,0.05 0.05,0.11 0.05,0.11 l 0.22,0.18 0.08,-0.16 v -0.09 c 0,0 0.35,0.17 -0.13,-0.25 -0.47,-0.43 0,-0.16 0,-0.16 0,0 0.05,-0.02 0.08,-0.09 0.03,-0.08 0,-0.14 0,-0.19 0,-0.05 0.05,-0.03 0.05,-0.08 0,-0.05 0.02,-0.06 0.03,-0.14 0.02,-0.08 0.05,-0.03 0.14,0.02 0.09,0.05 0,0.06 0,0.06 l 0.28,0.16 c 0,0 0.05,-0.08 0.05,-0.14 0,-0.06 0.06,-0.08 0.06,-0.08 h 0.09 c 0,0 0.13,0.05 0.13,0.05 0,0 0.05,0.02 0.09,0.05 0.05,0.03 0.11,-0.01 0.11,-0.01 l 0.05,-0.02 c 0,0 0.05,0.05 0.05,0.05 l 0.03,0.08 0.18,0.02 c 0,0 0.03,0.05 0.06,0.17 0.03,0.13 0.03,0.08 0.03,0.08 l 0.18,0.14 0.08,-0.09 h 0.06 l 0.03,-0.11 c 0,0 0.03,0.03 0.08,0.05 0.05,0.01 0.29,0.24 0.4,0.36 0.04,0.04 0.08,0.07 0.13,0.09 h -0.03 c 0,0 -0.04,0.02 -0.04,0.02 l -0.06,0.05 c 0,0 -0.19,0.03 -0.22,-0.03 -0.03,-0.06 -0.06,-0.05 -0.11,-0.13 l -0.05,-0.08 c 0,0 -0.03,0.06 -0.03,0.11 v 0.05 l -0.13,-0.11 -0.09,-0.05 -0.11,-0.08 -0.11,-0.02 c 0,0 -0.05,-0.02 -0.06,0.05 l -0.02,0.06 -0.22,0.09 -0.03,0.09 c 0,0 -0.08,0.02 -0.08,0.06 0,0.04 -0.08,0.13 0.03,0.14 l 0.11,0.02 c 0,0 0.05,-0.18 0.08,-0.06 0.03,0.11 0.05,0.14 0.05,0.19 0,0.05 -0.03,0.21 -0.03,0.21 l -0.17,-0.07 c 0,0 -0.05,-0.02 -0.05,0.03 0,0.05 0.08,0.21 0.08,0.21 0,0 0.05,0.12 0.03,0.17 q 0,0 -0.02,0.09 v 0.13 c 0,0 0.08,0.18 0.09,0.22 0.02,0.05 -0.02,0.05 0.03,0.11 0.05,0.06 0.06,0.08 0.1,0.14 0.04,0.08 0.09,0.16 0.14,0.24 0.03,0.05 0.05,0.21 0.18,0.27 0.13,0.06 0.16,0.11 0.22,0.09 0.06,-0.02 -0.09,-0.08 0.14,-0.08 0.23,0 0.14,-0.11 0.32,0 0.17,0.11 0.11,0.05 0.27,0.21 0.16,0.16 0.4,0.45 0.52,0.51 0.13,0.06 -0.09,0.1 0.18,0.02 0.27,-0.08 0.41,-0.18 0.41,-0.18 0,0 0.06,-0.02 0.13,0 0.06,0.02 0.35,0.22 0.35,0.22 l -0.06,0.11 c 0,0 -0.03,-0.02 -0.05,0.08 -0.02,0.09 -0.09,0.6 -0.14,0.65 -0.05,0.05 -0.08,0.05 -0.13,0.08 -0.05,0.03 -0.13,0.06 -0.19,0.13 -0.06,0.06 -0.19,0.09 -0.27,0.17 -0.08,0.08 -0.06,0.08 -0.19,0.19 -0.13,0.11 -0.13,0.06 -0.22,0.19 -0.09,0.13 -0.22,0.26 -0.22,0.26 0,0 -0.08,0.14 -0.14,0.19 -0.06,0.05 -0.14,0.08 -0.14,0.08 0,0 0,0.05 -0.16,0.02 -0.16,-0.03 -0.03,-0.03 -0.22,-0.1 -0.19,-0.06 -0.21,-0.11 -0.25,-0.09 -0.05,0.01 -0.03,-0.03 -0.08,0.09 q -0.05,0.13 -0.06,0.19 c -0.02,0.06 -0.03,0.03 -0.02,0.14 0.02,0.11 0.02,0.14 0.02,0.19 0,0.05 0.03,0.11 0.03,0.27 0,0.16 -0.02,0.16 0.02,0.24 0.03,0.08 -0.05,-0.06 0.03,0.16 0.08,0.22 0.05,0.21 0.08,0.27 0.03,0.06 -0.14,0.16 0.08,0.09 0.22,-0.06 0.37,-0.09 0.37,-0.19 0,-0.1 -0.17,0.03 0.05,-0.19 l 0.22,-0.22 c 0,0 0.11,0.05 0.03,0.11 -0.08,0.06 -0.16,0.25 -0.21,0.36 -0.05,0.11 -0.1,0.02 -0.06,0.14 0.03,0.13 0.06,0.21 0.06,0.21 0,0 0.19,0.35 0.19,0.4 0,0.05 -0.03,0.03 0,0.22 0.03,0.19 0.09,0.44 0.11,0.56 0.02,0.11 0.03,0.11 0.03,0.17 0,0.06 0.01,0.1 -0.03,0.16 -0.05,0.06 -0.14,0.05 -0.05,0.14 0.09,0.09 0.22,0.27 0.22,0.27 0,0 -0.05,-0.32 0.06,0.11 0.11,0.43 0.14,0.52 0.14,0.61 0,0.09 0.09,-0.08 0,0.13 -0.09,0.2 -0.13,0.2 -0.13,0.28 v 0.18 c 0,0 -0.03,0 0.03,0.13 0.06,0.13 0.05,0.13 0.09,0.2 0.05,0.08 -0.13,-0.27 0.13,0.13 q 0.25,0.39 0.25,0.48 c 0,0.08 -0.02,0.08 0,0.16 0.02,0.08 0.03,0.11 0.05,0.16 0.02,0.05 -0.03,-0.03 0.06,0.15 0.09,0.17 0.11,0.24 0.11,0.24 0,0 0.03,-0.11 0.06,0.09 0.03,0.21 0.11,-0.14 0.02,0.32 -0.09,0.46 -0.17,0.65 -0.17,0.65 0,0 -0.03,-0.01 -0.03,0.09 0,0.1 -0.02,0.29 -0.03,0.35 -0.02,0.06 -0.21,0.03 -0.02,0.17 0.19,0.14 -0.41,0.19 0.25,0.19 0.66,0 0.05,0 0.75,-0.05 0.7,-0.04 0.4,-0.06 0.81,-0.06 0.41,0 0.65,0.03 0.79,0 0.14,-0.03 -0.08,0.13 0.22,-0.06 0.3,-0.19 0.54,-0.4 0.54,-0.4 0,0 -0.08,-0.02 0.09,-0.02 0.17,0 0.49,0.04 0.57,0.04 0.08,0 0.01,0.05 0.08,0 0.06,-0.04 0.3,-0.2 0.3,-0.2 0,0 0.06,-0.05 0.3,-0.08 0.24,-0.04 0.16,-0.02 0.35,-0.04 0.19,-0.01 -0.03,0.14 0.44,-0.03 0.48,-0.17 0.21,-0.25 0.21,-0.25 0,0 -0.1,-0.04 0.09,-0.08 q 0.19,-0.05 0.25,-0.08 c 0.06,-0.03 -0.06,-0.03 0.14,-0.1 0.21,-0.06 0.08,-0.03 0.27,-0.11 0.19,-0.08 0.21,-0.08 0.27,-0.13 0.06,-0.04 0.13,-0.11 0.16,-0.17 0.03,-0.06 0.06,-0.16 0.06,-0.16 l 0.08,-0.12 0.13,-0.14 c 0,0 0.09,0.02 0.14,0.02 0.05,0 -0.11,0.21 0.27,-0.21 0.38,-0.41 0.3,-0.35 0.38,-0.41 0.08,-0.07 0.13,-0.05 0.13,-0.13 0,-0.08 -0.13,-0.19 -0.13,-0.19 l -0.05,-0.12 c -0.06,-0.01 -0.12,-0.03 -0.18,-0.05 -0.27,-0.08 -0.79,-0.31 -0.67,-0.78 0.13,-0.46 0.08,-0.38 0.08,-0.38 l -0.11,0.1 c 0,0 -0.05,0.02 -0.13,0.14 -0.06,0.1 -0.14,0.26 -0.17,0.31 l -0.04,0.02 c -0.09,0.04 -0.18,0.08 -0.27,0.11 q 0,0 -0.11,0.06 -0.11,0.06 -0.16,0.1 c -0.1,0.04 -0.2,0.05 -0.3,0.03 -0.05,-0.02 0.14,-0.02 -0.1,-0.02 h -0.33 c -0.14,0 -0.09,0.07 -0.21,-0.01 -0.11,-0.08 0.08,-0.02 -0.14,-0.1 -0.22,-0.08 -0.35,0 -0.22,-0.08 0.13,-0.08 0.1,-0.05 0.17,-0.13 0.08,-0.08 0.13,-0.14 0.16,-0.19 0.03,-0.05 0,0.1 0.03,-0.05 0.03,-0.15 0.05,-0.27 0.05,-0.32 0,-0.05 -0.19,0 -0.19,0 0,0 -0.02,0.06 -0.05,0.11 l -0.14,0.22 c 0,0 -0.08,0.08 -0.11,-0.03 -0.03,-0.11 -0.03,-0.05 -0.03,-0.11 v -0.11 c 0,-0.06 -0.02,-0.1 0.02,-0.14 0.03,-0.05 0.08,-0.11 0.08,-0.16 0,-0.05 -0.09,-0.07 -0.11,-0.13 -0.02,-0.06 -0.05,-0.11 -0.08,-0.17 -0.03,-0.06 -0.06,-0.14 -0.06,-0.14 0,0 -0.06,-0.05 -0.11,-0.17 -0.05,-0.13 0.01,-0.11 0,-0.18 -0.02,-0.06 0.05,0.03 -0.03,-0.13 -0.08,-0.16 -0.09,-0.19 -0.11,-0.24 -0.02,-0.05 -0.11,-0.16 -0.11,-0.21 0,-0.05 -0.17,0.04 0,-0.05 0.18,-0.1 0.21,-0.13 0.26,-0.16 0.04,-0.02 0.08,-0.04 0.13,-0.06 l 0.35,-0.14 0.09,0.03 c 0,0 0.06,-0.08 0.18,0.13 0.11,0.21 0.11,0.14 0.16,0.32 0.05,0.17 0.06,0.14 0.06,0.25 0,0.11 0.02,0.29 0.03,0.34 0.02,0.04 0,0.03 0.03,0.08 0.03,0.05 0,0.03 0.09,0.11 0.16,0.13 0.33,0.26 0.51,0.38 0.06,0.03 -0.41,-0.1 0.11,0.1 0.52,0.19 0.3,0.12 0.41,0.11 0.11,-0.01 0.11,0 0.18,-0.05 0.08,-0.06 0.18,-0.1 0.29,-0.11 0.16,-0.03 0.05,-0.03 0.22,-0.08 0.17,-0.05 0.16,-0.18 0.19,0 0.03,0.17 0.05,0.28 0.05,0.33 0,0.04 -0.19,0.03 0.02,0.11 0.21,0.08 -0.46,-0.08 0.21,0.08 0.67,0.16 0.46,0.14 0.78,0.18 0.32,0.03 0.54,0.04 0.63,0.06 0.09,0.02 0.03,0.03 0.18,0 0.14,-0.03 0.21,-0.08 0.28,-0.08 0.07,0 0.53,-0.06 0.57,-0.08 0.05,-0.02 0.08,0.08 0.35,-0.05 0.13,-0.06 0.2,-0.09 0.25,-0.11 l -0.02,0.18 0.09,0.03 0.12,0.02 v 0.26 l 0.02,0.07 0.12,-0.07 0.24,-0.12 0.36,-0.12 c 0.17,-0.12 0,-0.05 0.17,-0.12 0.17,-0.07 0.03,0 0.17,-0.07 0.14,-0.07 0.21,-0.12 0.21,-0.12 0,0 0.09,0.12 0.03,0.19 -0.07,0.08 -0.19,0.24 -0.19,0.24 0,0 0.05,0 -0.07,0.05 l -0.12,0.05 c -0.12,0.05 -0.19,0.05 -0.19,0.05 l -0.14,-0.05 -0.12,0.09 c 0,0 -0.07,-0.02 -0.12,0.05 -0.03,0.05 -0.05,0.11 -0.07,0.17 l 0.17,0.07 c 0,0 -0.14,0.14 0.12,0.02 0.26,-0.12 0.19,-0.02 0.26,-0.12 0.07,-0.09 0.19,-0.17 0.14,-0.07 -0.05,0.09 -0.17,0.24 -0.17,0.24 0,0 -0.07,0.07 -0.16,0.12 -0.1,0.05 -0.24,0.1 -0.24,0.1 0,0 -0.07,0 0,0.1 0.07,0.09 -0.05,0 0.07,0.09 0.12,0.1 0.19,0.14 0.19,0.14 h 0.12 c 0,0 0.17,0 0.29,-0.09 l 0.12,-0.09 0.19,-0.24 0.12,-0.14 c 0,0 0.14,0.19 0.12,0.26 -0.03,0.07 -0.09,0.09 -0.12,0.19 -0.02,0.1 -0.02,0.07 -0.07,0.19 -0.05,0.12 -0.05,0.26 -0.07,0.33 -0.02,0.07 -0.05,0.07 -0.07,0.17 0,0 0,0.02 0,0.03 0,-0.01 0.01,-0.04 -0.02,0.19 -0.05,0.33 -0.05,0.45 -0.05,0.45 v 0.26 c 0,0.07 -0.02,0.1 0,0.26 0.02,0.17 0.05,0.19 0.05,0.38 0,0.12 -0.07,0.12 -0.12,0.1 0.04,0.2 0.06,0.39 0.07,0.59 0,0 -0.05,0.05 -0.05,0.14 0,0.1 0.02,0.17 0.02,0.17 0,0 -0.12,0.19 0.07,0.02 0.19,-0.17 0.12,-0.02 0.19,-0.17 0.07,-0.14 0.07,-0.19 0.17,-0.26 0.1,-0.07 0.19,-0.12 0.24,-0.19 0.05,-0.07 0.02,-0.04 0.17,-0.19 l 0.26,-0.26 c 0.1,-0.1 0.14,-0.17 0.21,-0.26 0.07,-0.1 0.17,-0.36 0.17,-0.36 0,0 -0.02,-0.09 0.05,-0.19 0.07,-0.09 -0.19,0.19 0.14,-0.31 0.33,-0.5 0.17,-0.33 0.33,-0.5 0.17,-0.17 -0.14,0.07 0.29,-0.31 0.43,-0.38 0.24,-0.14 0.33,-0.28 0.09,-0.14 0.05,-0.19 0.21,-0.36 0.17,-0.17 0.33,-0.36 0.43,-0.45 l 0.6,-0.6 c 0,0 0.05,-0.14 0.09,-0.26 0.05,-0.12 0.07,-0.05 0.12,-0.29 0.03,-0.18 0.11,-0.35 0.21,-0.5 l 0.07,-0.1 c 0,0 0.07,-0.09 0.14,-0.12 0.07,-0.02 0.19,-0.09 0.19,-0.09 0,0 0.02,-0.02 0.12,-0.12 0.09,-0.09 0.19,-0.24 0.19,-0.24 l 0.14,-0.19 c 0,0 0.03,0.07 0.03,0.17 0,0.1 0.02,0.19 0.02,0.19 l 0.1,0.1 0.09,0.09 v 0.2 0 z m -15.56,-28.8 c 0,0 -0.05,-0.03 -0.12,-0.09 0.06,0.03 0.11,0.06 0.12,0.09 z m 4.73,21.37 c 0,0 -0.07,0 0.07,0.07 l 0.14,0.07 0.1,0.24 v 0.26 l 0.17,0.17 0.09,0.02 0.09,0.19 -0.12,0.31 -0.02,0.09 0.07,0.17 c 0,0 0.05,0.17 -0.02,0.24 -0.07,0.07 0,-0.17 -0.07,0.07 -0.07,0.24 0.24,0.4 0.24,0.4 0,0.19 -0.07,0.24 -0.07,0.24 v 0.09 l 0.09,0.14 c 0,0 -0.02,0.05 -0.02,0.12 0,0.07 -0.02,0.14 -0.05,0.21 l -0.05,0.24 v 0.19 l -0.05,0.07 -0.05,0.14 -0.14,0.04 c 0,0 -0.05,0.03 -0.12,0.05 -0.07,0.02 0.07,0.02 -0.19,0.02 -0.17,0 -0.34,0 -0.51,-0.02 -0.03,-0.06 -0.06,-0.12 -0.09,-0.17 l -0.09,-0.14 c 0,0 0,0.05 -0.17,-0.12 l -0.17,-0.17 c 0,0 -0.14,-0.19 -0.14,-0.29 0,-0.1 -0.03,-0.07 0,-0.17 0.02,-0.09 0.12,-0.29 0.12,-0.29 l 0.19,-0.12 0.02,-0.24 0.12,-0.12 c 0.07,-0.07 0.07,-0.09 0.17,-0.09 h 0.1 c 0,0 0.14,-0.02 0.05,-0.1 -0.05,-0.04 -0.11,-0.07 -0.17,-0.09 0,0 -0.03,-0.05 -0.07,-0.12 -0.05,-0.07 -0.02,-0.07 -0.05,-0.17 -0.02,-0.1 -0.07,-0.17 -0.09,-0.26 -0.02,-0.09 -0.09,-0.21 -0.09,-0.21 0,0 -0.19,-0.14 -0.21,-0.31 -0.02,-0.17 -0.02,-0.07 -0.02,-0.17 0,-0.1 -0.03,-0.24 -0.03,-0.24 0,0 -0.07,-0.05 0.03,-0.1 0.09,-0.05 0.17,-0.14 0.17,-0.14 l -0.05,-0.04 h -0.02 c 0,0 -0.07,-0.06 -0.07,-0.06 l -0.14,-0.09 -0.02,-0.12 0.05,-0.07 0.17,-0.14 c 0,0 0.07,0.14 0.14,-0.05 l 0.07,-0.19 0.07,-0.24 0.12,0.1 0.19,0.02 0.1,-0.12 0.09,-0.1 0.21,-0.02 c 0,0 -0.28,-0.05 0.05,-0.07 l 0.33,-0.02 0.52,0.02 c 0,0 0,-0.07 0.02,0.12 0.02,0.19 0.05,0.07 0,0.31 -0.05,0.24 0.14,0.33 -0.07,0.33 h -0.22 l -0.21,0.05 c 0,0 -0.07,-0.05 -0.07,0.09 v 0.14 l -0.09,0.19 c -0.07,-0.14 -0.05,-0.19 -0.07,-0.14 -0.02,0.05 -0.26,-0.09 -0.26,-0.09 l 0.03,0.14 v 0 z m -2.11,2.92 -0.07,-0.07 v -0.02 l 0.07,0.08 z m -1.41,-4.94 -0.14,-0.02 0.02,0.19 c 0,0 0.14,0.17 -0.02,0.17 h -0.36 l -0.09,-0.03 -0.14,0.03 0.12,0.19 -0.02,0.12 c 0,0 -0.02,0.07 0.03,0.14 0.05,0.07 0.05,0.12 0.09,0.19 0.05,0.07 0.12,0.12 0.12,0.12 0,0 0.02,0.1 0.09,0.14 0.07,0.05 0.17,0.19 0.19,0.26 0.02,0.07 0.05,0.12 0.07,0.19 0.02,0.07 0.07,0.05 0.12,0.12 0.05,0.07 -0.1,-0.09 0.05,0.07 0.14,0.17 0.09,0.07 0.17,0.26 0.07,0.19 0.07,0.41 0.07,0.41 l -0.09,0.14 c 0,0 -0.07,0.07 -0.14,0.09 -0.07,0.03 -0.17,0.07 -0.17,0.07 l -0.17,0.07 -0.12,0.03 -0.22,-0.17 c 0,0 -0.16,-0.3 -0.13,0.06 l -0.05,-0.02 -0.16,-0.07 c 0,0 -0.03,-0.03 -0.13,-0.09 -0.09,-0.06 -0.06,-0.16 -0.16,-0.16 -0.1,0 -0.06,-0.03 -0.19,-0.1 -0.13,-0.06 -0.13,0 -0.22,-0.16 -0.1,-0.16 0.06,-0.03 -0.1,-0.16 -0.16,-0.13 -0.19,-0.16 -0.29,-0.19 -0.09,-0.03 -0.22,-0.1 -0.22,-0.1 l -0.28,-0.13 h -0.13 c -0.09,0 -0.09,-0.03 -0.25,-0.03 h -0.16 c 0,0 0.05,-0.03 -0.22,0.03 l -0.27,0.06 c 0,0 -0.27,-0.11 -0.37,-0.14 -0.09,-0.03 -0.11,-0.11 -0.17,-0.14 -0.06,-0.03 -0.06,-0.08 -0.13,-0.13 -0.05,-0.04 -0.11,-0.08 -0.16,-0.11 -0.05,-0.03 -0.03,-0.06 -0.03,-0.06 l -0.06,-0.08 -0.05,-0.08 -0.02,-0.09 v -0.07 l 0.02,-0.14 -0.02,-0.05 -0.03,-0.09 0.03,-0.08 0.09,-0.06 0.09,-0.05 0.05,-0.09 c 0,0 0.05,-0.03 0.09,-0.05 l 0.09,-0.03 0.14,-0.03 0.05,-0.14 0.06,-0.09 0.02,-0.09 0.1,-0.13 0.06,-0.05 0.08,-0.02 c 0,0 0.06,0.03 0.16,0.06 0.08,0.03 0.08,0.03 0.08,0.03 l 0.08,-0.03 v -0.09 l -0.08,-0.11 0.13,-0.13 v -0.08 l 0.11,-0.05 c 0,0 0.05,-0.03 0.13,-0.03 0.08,0 0.14,0.03 0.14,0.03 l 0.09,-0.11 0.05,-0.06 h 0.25 l 0.1,-0.11 0.17,0.38 0.09,-0.12 0.07,0.12 v 0.12 l 0.03,0.07 0.02,0.1 0.17,0.14 0.07,0.03 0.07,-0.03 0.12,-0.05 0.12,-0.02 h 0.07 l 0.17,0.02 c 0.12,-0.02 0.19,-0.05 0.26,-0.05 0.07,0 -0.05,0.02 0.07,0 0.12,-0.02 0.05,-0.05 0.26,0 l 0.22,0.05 0.28,0.07 c 0,0 0.02,0.02 0.09,0.02 h 0.07 c 0,0 0.38,-0.14 0.26,0 -0.12,0.14 -0.14,0.21 -0.14,0.21 h -0.17 c 0,0 0.07,0 -0.07,-0.02 z m -4.02,4.95 0.12,0.02 h 0.26 l 0.09,-0.12 0.21,-0.09 h -0.33 l -0.21,-0.07 -0.36,-0.02 0.03,0.17 0.19,0.12 z m 1,-12.54 c 0,0 0,0 -0.02,0.03 0.04,-0.02 0.02,-0.03 0.02,-0.03 z m 0.85,0.43 c 0.02,-0.07 0.02,-0.14 0.02,-0.14 l -0.19,-0.05 -0.09,0.09 -0.1,0.05 0.24,0.03 c 0,0 0.1,0.09 0.12,0.02 z m 11.47,-7.74 h -0.02 z m -16.1,-5.46 v 0 c 0,0 0.04,-0.01 0,0 z m 11.47,32.21 z m 4.2,2.49 0.05,0.03 c -0.03,-0.15 -0.05,-0.03 -0.05,-0.03 z m -9.91,-20.94 v 0 c 0,0 -0.03,0.04 0,0 z m 0.23,-5.17 0.03,-0.02 c 0,0 -0.22,-0.05 -0.03,0.02 z m -1.5,3.51 -0.03,-0.1 -0.12,-0.02 -0.02,0.14 0.09,0.1 0.07,-0.12 z m -8.16,5.71 h 0.05 c 0,0 0.19,-0.12 0.19,-0.12 0,0 0.09,-0.12 0.12,-0.17 l 0.08,-0.18 h -0.06 c -0.06,0 -0.06,-0.01 -0.11,-0.03 -0.05,-0.02 -0.06,-0.04 -0.1,-0.01 -0.03,0.02 -0.07,0.07 -0.07,0.07 0,0 -0.03,0.08 -0.05,0.14 -0.02,0.06 -0.06,0.12 -0.08,0.2 -0.03,0.08 0.02,0.09 0.02,0.09 z m 0.43,2.5 c -0.07,-0.07 -0.12,-0.1 -0.14,-0.14 -0.03,-0.05 -0.03,-0.13 -0.07,-0.13 -0.04,0 -0.13,-0.05 -0.13,-0.05 -0.03,-0.02 -0.14,-0.03 -0.14,-0.03 v 0.25 c 0,0 0.06,0.05 0.08,0.08 0.02,0.04 0.04,0.09 0.06,0.14 0.01,0.04 0.05,0.05 0.06,0.11 0.01,0.06 0.07,0.12 0.14,0.19 0.07,0.07 0.06,0.18 0.06,0.21 0,0.03 0.03,0.09 0.03,0.09 l 0.1,-0.09 c 0,0 0.08,0.05 0.09,-0.04 0.01,-0.08 0.01,-0.1 0.04,-0.13 0.02,-0.03 -0.15,0.01 0.07,-0.07 l 0.23,-0.08 0.06,-0.11 c 0,0 -0.35,-0.18 -0.38,-0.18 -0.03,0 -0.08,0.05 -0.15,-0.02 z m -0.67,-2.38 c 0,0 -0.12,-0.02 -0.15,-0.04 -0.03,-0.01 -0.08,-0.09 -0.08,-0.09 l -0.09,0.23 c 0,0 -0.01,0.15 -0.02,0.19 -0.02,0.06 -0.05,0.11 -0.08,0.15 -0.05,0.06 -0.08,0.12 -0.18,0.18 -0.09,0.06 -0.05,0.1 -0.05,0.1 l 0.08,0.11 c 0,0 0.05,-0.06 0.08,-0.08 0.04,-0.02 0.09,0.11 0.09,0.14 l 0.13,-0.07 0.27,-0.33 c 0.06,-0.07 0.13,-0.13 0.13,-0.13 0,0 0.02,-0.15 0.03,-0.19 0.01,-0.04 -0.02,-0.12 -0.02,-0.12 l -0.14,-0.03 v 0 z m 3.47,4.82 c 0.06,-0.05 0.05,-0.06 0.06,-0.11 q 0,0 0.05,-0.18 c 0.03,-0.13 0.13,0.06 0.22,0 0.05,-0.03 0.09,-0.08 0.11,-0.14 l -0.43,-0.28 c 0,0 -0.09,-0.11 -0.14,-0.16 -0.05,-0.05 -0.11,-0.03 -0.11,-0.03 h -0.13 c 0,0 -0.05,0.09 -0.05,0.14 0,0.05 0.03,0.06 0,0.24 -0.03,0.17 -0.06,0.08 -0.1,0.14 -0.03,0.06 0.02,0.08 0.02,0.08 l 0.16,0.03 c 0,0 -0.02,0.09 -0.03,0.22 -0.02,0.13 0.02,-0.03 0.11,-0.05 0.1,-0.02 0.06,0.02 0.1,0.08 0.03,0.06 0.03,0.17 0.03,0.17 0,0 0.06,-0.11 0.13,-0.16 v 0 z m 5.86,-2.16 -0.05,-0.07 c -0.05,-0.07 0,-0.1 0,-0.19 0,-0.09 -0.07,-0.12 -0.07,-0.12 l -0.26,0.02 c 0,0 -0.12,-0.02 -0.24,-0.02 h -0.14 c -0.07,0 -0.03,0.07 -0.03,0.07 0,0 0.1,0.09 0.17,0.07 0.07,-0.02 0.09,0.17 0.09,0.17 l -0.12,0.19 c 0,0 0,0.12 0.12,0.21 0.12,0.1 0,0 0.07,0 l 0.21,0.1 0.29,-0.07 c 0,0 0.12,0 0.26,-0.02 0.14,-0.02 0,0 0.17,-0.09 0.05,-0.03 0.08,-0.05 0.1,-0.05 l -0.22,-0.06 -0.36,-0.12 z m -5.18,3.32 -0.06,-0.06 c 0,0 -0.03,-0.05 -0.09,-0.06 -0.06,-0.02 -0.13,-0.09 -0.13,-0.09 l -0.05,-0.03 c 0,0 -0.06,-0.06 -0.08,-0.09 l -0.22,-0.08 -0.17,-0.1 c 0,0 -0.02,0.05 0.02,0.11 0.06,0.08 0.13,0.14 0.21,0.19 0.03,0.02 0.06,0.05 0.08,0.08 l 0.08,0.08 0.09,0.16 0.27,0.03 0.11,0.03 c 0,0 0.03,-0.05 0.02,-0.09 -0.02,-0.05 -0.06,-0.06 -0.06,-0.06 z m 5.77,-3.13 c 0,0 0.02,-0.02 -0.02,0 z m -8.55,-9.87 -0.09,-0.05 -0.14,-0.09 -0.07,0.05 v 0.12 l -0.1,0.12 H 137 c -0.07,0 -0.09,-0.05 -0.09,-0.05 l -0.14,0.07 0.05,0.07 0.02,0.09 0.1,0.14 0.12,0.05 c 0.12,0.05 0.05,0.12 0.05,0.12 h -0.19 l -0.24,-0.07 c 0,0 -0.09,-0.05 -0.17,-0.07 -0.07,-0.02 -0.12,0 -0.12,0 h -0.07 l -0.31,0.1 0.24,0.14 0.21,0.14 0.07,-0.03 0.33,0.17 0.07,0.07 0.14,0.12 0.14,0.17 0.09,0.1 c 0.09,0.09 0.17,0.12 0.17,0.12 l 0.17,-0.05 -0.03,-0.14 -0.02,-0.09 c 1,0.14 0.6,-0.41 0.6,-0.41 l -0.1,-0.12 0.07,-0.14 v -0.12 l 0.09,-0.12 0.14,-0.14 0.05,-0.14 c 0,0 -0.07,-0.05 -0.07,-0.12 0,-0.07 0.07,-0.14 0.07,-0.14 l 0.09,-0.07 c 0.09,-0.07 0.02,-0.09 0.05,-0.26 0,-0.03 0,-0.06 0.01,-0.09 l 0.11,-0.17 0.07,-0.07 0.12,-0.07 0.17,-0.05 c 0.17,-0.05 0,0 0.14,-0.09 0.14,-0.09 0.07,-0.21 0.07,-0.21 l -0.05,-0.07 c -0.05,-0.07 -0.02,-0.09 -0.02,-0.09 l 0.05,-0.09 0.07,-0.02 h 0.07 l 0.19,-0.09 -0.02,-0.14 c 0,0 -0.38,0.05 -0.45,0.07 l -0.14,0.05 -0.09,-0.05 -0.12,0.05 -0.03,0.07 -0.12,0.05 -0.19,0.05 -0.14,0.07 0.21,0.02 -0.04,0.09 -0.07,0.07 -0.26,0.17 0.14,0.07 -0.07,0.14 -0.12,0.02 c -0.12,0.03 -0.14,0.07 -0.14,0.07 l -0.03,0.07 0.17,0.05 0.05,0.12 -0.07,0.05 C 137.98,90.2 138,90.22 138,90.22 v 0.22 l -0.12,0.14 h -0.19 c -0.11,0 -0.12,0.01 -0.1,0.03 z m 2.15,-5.28 c 0.02,0.07 0.02,0.09 0.05,0.17 0.02,0.07 0.07,0.17 0.07,0.17 l 0.12,0.14 0.41,0.05 0.09,0.02 0.14,0.12 0.28,-0.05 h 0.1 l 0.07,-0.09 c 0.07,-0.09 0.03,-0.07 0.07,-0.14 0.05,-0.07 0.05,-0.09 0.05,-0.17 0,-0.08 0,-0.07 -0.02,-0.14 -0.02,-0.07 -0.09,-0.05 -0.14,-0.14 -0.05,-0.09 0,0 -0.26,-0.19 -0.26,-0.19 -0.09,-0.09 -0.17,-0.19 -0.07,-0.09 0,0 0,-0.07 0,-0.07 -0.02,-0.15 -0.05,-0.22 -0.02,-0.07 -0.14,0.05 -0.14,0.05 v 0.07 c 0,0.07 -0.05,0.12 -0.05,0.12 l -0.19,0.02 h -0.09 c 0,0 0,0.09 -0.09,0.12 -0.09,0.02 -0.07,0.05 -0.26,0.14 -0.19,0.09 0,0.14 0.02,0.21 z m 11.9,4.09 c 0.07,0.12 -0.14,-0.05 0.14,0.21 l 0.29,0.26 c 0,0 0.02,0.07 0.09,0.1 0.07,0.02 0.33,0.02 0.33,0.02 l -0.02,-0.1 -0.14,-0.17 -0.05,-0.07 c 0,0 -0.07,-0.07 -0.09,-0.19 -0.03,-0.12 -0.05,-0.09 -0.05,-0.21 v -0.24 c 0,0 -0.02,-0.12 0.02,-0.19 0.04,-0.06 0.07,-0.12 0.09,-0.19 l 0.1,-0.17 0.02,-0.14 0.26,-0.36 c 0.17,-0.07 0.21,-0.05 0.24,-0.12 0.02,-0.07 0.07,-0.12 0.07,-0.19 0,-0.07 0.05,-0.14 -0.03,-0.14 -0.07,0 -0.09,-0.02 -0.14,0.05 -0.05,0.07 0.02,-0.05 -0.05,0.07 -0.07,0.12 0.05,0.12 -0.07,0.12 -0.12,0 0.03,0.02 -0.12,0 l -0.14,-0.02 -0.12,0.12 -0.07,0.12 -0.1,0.09 -0.12,0.14 c 0,0 -0.02,0.05 -0.05,0.14 -0.02,0.1 0,0.14 -0.05,0.22 l -0.09,0.14 c 0,0 -0.05,0.19 -0.09,0.31 -0.05,0.12 -0.12,0.17 -0.12,0.17 0,0 -0.1,0.02 -0.03,0.12 0.07,0.09 0,-0.02 0.07,0.09 v 0 z m -10.21,2.9 -0.12,0.09 -0.05,0.1 -0.03,0.17 -0.17,0.02 -0.02,-0.07 -0.1,-0.07 v 0.12 l 0.14,0.12 h 0.09 l 0.12,-0.05 0.14,-0.09 c 0,0 0.09,-0.07 0.16,-0.14 l 0.07,-0.07 0.05,-0.07 -0.21,-0.05 c 0,0 -0.1,0 -0.1,0 z m -8.64,-9.54 0.17,-0.09 0.09,-0.07 c 0,0 0.03,-0.07 0.12,-0.19 0.09,-0.12 0.17,0.02 0.17,0.02 l 0.17,-0.02 c 0.17,-0.03 0.12,-0.17 0.12,-0.17 l 0.14,-0.07 c 0.14,-0.07 0.17,-0.12 0.17,-0.12 0,0 0.09,-0.03 0.31,-0.12 0.21,-0.09 -0.07,0 -0.07,0 0,0 -0.07,0 -0.26,0.03 -0.19,0.02 0,0 -0.43,-0.07 -0.43,-0.07 0,0 -0.24,0 h -0.07 c 0,0 -0.36,0.43 -0.43,0.55 l -0.07,0.12 -0.14,0.17 -0.12,0.07 -0.02,0.12 c 0,0 0.07,-0.03 0.17,-0.03 l 0.24,-0.12 v 0 z m 3.55,7.35 0.07,0.07 0.26,0.09 0.14,-0.03 0.29,-0.19 c 0.07,-0.05 0.07,-0.09 0.07,-0.09 l 0.12,-0.02 0.09,-0.03 0.19,-0.02 0.09,-0.21 v -0.31 l -0.05,-0.14 -0.36,0.09 -0.35,-0.09 c -0.36,-0.1 -0.19,0 -0.19,0 l -0.07,0.17 v 0.07 l -0.02,0.12 -0.09,0.09 -0.12,-0.02 h -0.09 l -0.09,-0.02 -0.12,0.05 -0.09,0.09 -0.07,0.12 0.12,0.17 c 0,0 0.29,0.05 0.29,0.05 z m 7.21,2.64 0.07,-0.02 c 0,0 0.14,0 0.21,-0.14 0.03,-0.06 0.04,-0.09 0.05,-0.11 -0.03,0.02 -0.07,0.03 -0.1,0.04 l -0.17,0.05 -0.14,0.07 -0.19,0.14 v 0.07 c 0,0 -0.02,0.08 -0.02,0.08 l 0.19,-0.14 c 0,0 0.02,0 0.09,-0.02 v 0 z"
       id="path7" />
    <path
       class="united-domains-blue"
       d="m 105.04,88.81 v 7.82 c -0.67,-0.77 -1.54,-1.38 -2.62,-1.81 -1.08,-0.44 -2.3,-0.66 -3.68,-0.66 -3,0 -5.4,0.82 -7.2,2.45 -1.79,1.63 -2.69,3.87 -2.69,6.71 0,2.47 0.91,4.49 2.73,6.06 1.82,1.57 4.07,2.36 6.73,2.36 1.62,0 2.97,-0.22 4.06,-0.67 1.09,-0.44 2.06,-1.15 2.91,-2.13 v 2.24 h 5.67 V 88.8 h -5.93 z m -1.15,17.94 c -0.88,0.93 -2.16,1.39 -3.85,1.39 -1.69,0 -2.94,-0.46 -3.77,-1.4 -0.83,-0.93 -1.24,-2.18 -1.24,-3.73 0,-1.44 0.41,-2.65 1.22,-3.63 0.81,-0.97 2.09,-1.46 3.84,-1.46 1.14,0 2.15,0.27 3.01,0.8 1.41,0.88 2.11,2.36 2.11,4.42 0,1.47 -0.44,2.67 -1.32,3.6 z"
       id="path8" />
    <path
       class="united-domains-blue"
       d="m 86.95,103.58 c 0,-5 -2.56,-9.43 -9.62,-9.43 -5.93,0 -10.21,3.23 -10.21,8.78 0,5.55 4.79,8.81 11.09,8.81 2.45,0 4.87,-0.32 6.99,-1.06 v -4.1 c -1.98,0.93 -4.02,1.29 -5.82,1.29 -3.22,0 -5.23,-0.9 -5.6,-3.23 H 86.95 Z M 73.7,101.35 c 0.15,-1.94 1.28,-3.52 3.66,-3.52 2.64,0 3.66,1.58 3.66,3.52 z"
       id="path9" />
    <path
       class="united-domains-blue"
       d="M 66.24,98.18 V 94.5 h -5.78 v -5.93 h -2.51 l -3.7,2.32 v 3.62 h -2.53 v 3.68 h 2.53 v 7.97 c 0,2.08 0.59,3.56 1.76,4.41 1.18,0.86 2.97,1.3 5.38,1.3 1.08,0 1.99,-0.05 2.74,-0.13 0.71,-0.08 1.42,-0.2 2.12,-0.36 v -3.74 h -0.52 c -0.21,0.11 -0.57,0.22 -1.09,0.35 -0.52,0.13 -0.94,0.19 -1.26,0.19 -0.78,0 -1.37,-0.1 -1.77,-0.31 -0.41,-0.21 -0.69,-0.49 -0.85,-0.84 -0.18,-0.38 -0.27,-0.79 -0.27,-1.2 -0.01,-0.45 -0.02,-0.97 -0.02,-1.57 V 98.2 h 5.78 z"
       id="path10" />
    <rect
       class="united-domains-blue"
       x="42.700001"
       y="94.669998"
       width="6.2199998"
       height="16.41"
       id="rect10" />
    <ellipse
       class="united-domains-blue"
       cx="45.779999"
       cy="90.440002"
       rx="3.3099999"
       ry="2.76"
       id="ellipse10" />
    <path
       class="united-domains-blue"
       d="m 32.89,111.11 v -8.77 c 0,-2.08 -0.55,-3.55 -3.15,-3.55 -2.6,0 -3.15,1.47 -3.15,3.55 v 8.77 h -6.31 v -9.89 c 0,-5.41 4.12,-7.07 9.46,-7.07 5.34,0 9.46,1.66 9.46,7.07 v 9.89 z"
       id="path11" />
    <path
       class="united-domains-blue"
       d="m 5.69,94.33 v 9.05 c 0,2.15 0.5,3.67 2.84,3.67 2.34,0 2.85,-1.52 2.85,-3.67 v -9.05 h 5.69 v 10.21 c 0,5.59 -3.72,7.31 -8.54,7.31 -4.82,0 -8.54,-1.72 -8.54,-7.31 V 94.33 h 5.69 z"
       id="path12" />
  </g>
</svg>
