<?xml version="1.0" encoding="UTF-8"?>
<svg xmlns="http://www.w3.org/2000/svg" id="united-domains" viewBox="0 0 320 200">
  <defs>
    <style>.united-domains-blue{fill:#0f396d;}</style>
  </defs>
  <path class="united-domains-blue" d="M304.56,106.69c1.54.6,3.81,1.2,6.18,1.2,1.35,0,2.67-.2,2.67-1.4,0-2.93-9.37-.86-9.37-7.12,0-4,4.32-5.63,8.12-5.63,2.27,0,4.58.23,6.69,1l-.51,4.16c-1.39-.77-3.48-1.17-5.13-1.17-1.42,0-3.04.23-3.04,1.2,0,2.7,9.81.57,9.81,7.16,0,4.63-4.57,5.79-8.89,5.79-2.96,0-4.98-.27-6.92-.83l.37-4.36Z"></path>
  <path class="united-domains-blue" d="M295.87,111.02v-8.77c0-2.08-.55-3.56-3.15-3.56s-3.15,1.48-3.15,3.56v8.77h-6.31v-9.89c0-5.41,4.13-7.08,9.46-7.08s9.46,1.67,9.46,7.08v9.89h-6.31Z"></path>
  <rect class="united-domains-blue" x="273.09" y="95.06" width="6.22" height="16.09"></rect>
  <ellipse class="united-domains-blue" cx="275.98" cy="90.26" rx="3.31" ry="2.76"></ellipse>
  <path class="united-domains-blue" d="M261.11,94.09c-3.4,0-6.86.9-9.23,2.7l3.45,2.84c1.44-1.31,3.32-2.03,5.26-2.01,2.24,0,4.14,1.18,4.14,3.02-5.39,0-14.19.11-14.19,5.92,0,3.4,3.54,5.2,7.46,5.2,2.63,0,5.21-.73,6.64-2.53h.09v2.11h5.95v-8.56c0-5.61-2.02-8.69-9.57-8.69ZM264.74,105.07c0,2.08-2.37,3.15-4.92,3.15-1.42,0-3.06-.59-3.06-1.84,0-2.29,4.4-2.42,6.38-2.42h1.6v1.11Z"></path>
  <path class="united-domains-blue" d="M239.29,94.13c-2.38,0-4.5.37-6.1,1.28-1.6-.92-3.72-1.28-6.1-1.28-5.13,0-9.1,1.66-9.1,7.05v9.85h6.07v-8.73c0-2.07.54-3.54,3.04-3.54s3.04,1.47,3.04,3.54v8.73h6.14v-8.73c0-2.07.53-3.54,3.03-3.54s3.04,1.47,3.04,3.54v8.73h6.07v-9.85c0-5.39-3.97-7.05-9.11-7.05h0Z"></path>
  <path class="united-domains-blue" d="M213.44,96.87c-1.83-1.55-4.43-2.32-7.79-2.32s-5.9.77-7.75,2.31c-1.86,1.54-2.78,3.65-2.78,6.35s.92,4.79,2.77,6.33c1.85,1.54,4.43,2.32,7.77,2.32s5.93-.78,7.77-2.32c1.84-1.54,2.77-3.65,2.77-6.33s-.92-4.79-2.75-6.34ZM209.45,105.67c-.2.59-.5,1.09-.89,1.51-.35.38-.78.65-1.28.81-.5.16-1.03.24-1.58.24-.64,0-1.22-.09-1.72-.26-.5-.17-.94-.45-1.3-.83-.37-.4-.66-.92-.85-1.58-.19-.65-.29-1.43-.29-2.32,0-1,.11-1.83.33-2.49.22-.66.51-1.18.89-1.56.42-.41.85-.68,1.31-.81.51-.14,1.04-.21,1.57-.21.56,0,1.11.08,1.64.25.5.16.95.45,1.3.84.36.39.65.91.85,1.56.2.65.31,1.46.31,2.42,0,1.04-.1,1.85-.3,2.44Z"></path>
  <path class="united-domains-blue" d="M187.04,88.81v7.82c-.67-.77-1.54-1.38-2.62-1.81h0c-1.08-.44-2.3-.66-3.69-.66-3,0-5.4.82-7.2,2.45-1.79,1.63-2.69,3.87-2.69,6.71,0,2.47.91,4.49,2.73,6.06,1.82,1.57,4.07,2.36,6.73,2.36,1.62,0,2.97-.22,4.06-.67,1.09-.44,2.06-1.15,2.92-2.13v2.24h5.67v-22.38h-5.93ZM185.89,106.75c-.88.93-2.16,1.39-3.85,1.39s-2.94-.46-3.77-1.4c-.83-.93-1.24-2.18-1.24-3.73,0-1.44.41-2.65,1.23-3.63.81-.97,2.09-1.46,3.83-1.46,1.14,0,2.15.27,3.01.8,1.41.88,2.11,2.36,2.11,4.42,0,1.47-.44,2.67-1.32,3.6Z"></path>
  <path class="united-domains-blue" d="M142.58,78.51c-11.85,0-21.49,9.64-21.49,21.49s9.64,21.49,21.49,21.49,21.49-9.64,21.49-21.49-9.64-21.49-21.49-21.49ZM154.14,82.53l-.05.04-.09-.05-.04-.11c.06.04.12.08.18.12ZM153.12,81.89c.02.05.06.17-.15-.04l-.1-.1c.09.05.17.1.25.15ZM147.65,79.66h0s0,0,0,0h0ZM133.11,81.31s-.03.08-.03.12l-.19.09v-.07h-.04c.09-.05.18-.09.27-.14ZM161.28,109.46c-3.47,6.81-10.54,11.5-18.7,11.5-1.87,0-3.69-.25-5.42-.71l.36.06s.45.04.52.06c.09.03.19.04.28.03.13,0,.29.02.44.02s.15.04.2-.02l.13-.17c.08-.11.19-.22.2-.25.01-.04-.07-.09-.08-.13-.01-.03-.07-.09-.07-.15s0-.12.02-.15c.02-.04.15-.18.15-.18,0,0-.4-.17.07-.3.47-.13.56-.2.56-.2,0,0,.12-.06.18-.07l.55-.12s1.83-.28,1.94-.35c.11-.06.64-.11.77-.14.13-.04,1.68-.73,1.88-.88.2-.16.61-.33.69-.42.08-.09.3-.25.3-.25,0,0,.18-.19.21-.23.07-.07.14-.13.21-.19.06-.05.06-.12.12-.18.05-.06.09-.12.13-.19l-.32-.03-.08.05-.19.02-.19.02-.19.05-.19.02-.21-.02-.06.03-.14-.03s0-.11-.14-.09c-.07,0-.13.02-.19.05l-.16.05-.21.02-.13-.05-.16-.05s-.05,0-.22.03c-.17.03-.09.1-.22.05-.13-.05-.32-.14-.32-.14,0,0-.03-.06-.08-.13-.04-.06-.11-.17-.11-.17l-.24-.1.25-.08s.06-.06.06-.13-.02-.1-.02-.14c0-.05-.02-.05-.08-.14-.07-.11-.13-.22-.19-.34-.05-.09-.11-.18-.19-.25-.06-.06-.1-.13-.16-.18-.06-.05-.22-.13-.26-.17-.03-.05.06.17-.09-.09-.16-.27-.14-.33-.14-.41v-.35s.05-.21.02-.27c-.03-.06-.06-.14-.13-.21-.06-.06.05-.05-.14-.17-.19-.13-.27-.21-.24-.26.04-.1.07-.21.08-.31.02-.11.11-.31.14-.38.04-.14.07-.28.08-.43.02-.13.05-.14.02-.22-.03-.08-.14-.27-.14-.27l-.21-.21.09-.17s.06-.21.06-.26-.02-.29-.03-.33c-.02-.09-.04-.18-.06-.27l-.05-.68s-.01-.17-.03-.24c-.02-.06-.05-.14-.02-.24.03-.09.06-.13.06-.19s-.02-.06-.08-.16c-.06-.07-.09-.15-.11-.24,0-.05-.02-.35-.02-.4s.03-.12.03-.12l.05-.16c.03-.16.05-.33.06-.49l-.32-.37h-.14l-.29-.03s.11.06-.22.03c-.33-.03-.19.18-.37-.06-.11-.15-.24-.28-.38-.4l-.71-.46-.08-.11c-.1-.11-.2-.23-.3-.33l-.16-.08-.21-.22-.02-.14s-.06-.22-.08-.27c-.02-.05-.62-.56-1.14-.11,0,0-.08.1-.08.16s-.11.21-.11.21c0,0-.38.18-.46.14-.08-.03-.25-.28-.25-.28,0,0-.06-.35-.1-.4-.03-.05-.49-.08-.7-.53-.21-.44.09-.47.02-.66-.08-.19-.28-.38-.28-.38,0,0-.18-.24-.22-.27-.05-.03-.27-.19-.32-.3-.04-.1-.09-.19-.14-.28-.03-.05-.06-.24-.06-.24,0,0-.03-.14-.05-.19-.02-.05-.16-.3-.16-.3,0,0,.65.14.73-.25.08-.4.06-.52.06-.52,0,0,.05-.05.11-.05s.25-.03.25-.03c0,0-.19-.08-.21-.13-.02-.05-.02-.13-.02-.17s-.46-.28-.46-.28c0,0-.22-.07-.27-.11-.05-.05-.16-.21-.16-.21l-.41-.16s-.35-.16-.38-.22c-.03-.06-.08-.21-.13-.27-.05-.06-.1-.13-.16-.19l-.56-.29s-.4-.33-.52-.29c-.13.05-.14.06-.21-.02-.06-.08.05-.16-.28-.18-.33-.02-.37.1-.4-.02-.02-.09-.06-.17-.09-.25-.02-.05-.06-.1-.09-.14l-.24-.25s-.13-.51-.06-.54c.06-.03-.08-.13-.08-.13l-.19.16-.4.16-.32.03s-.22-.08-.29-.09c-.08-.02-.17-.03-.25-.05l-.21.08s-.55.22-.55.27-.16.21-.21.27c-.05.06-.22.21-.27.21s-.08.02-.24-.05c-.16-.06-.35,0-.44-.11-.1-.11-.14-.16-.22-.16s-.19.06-.27.09c-.08.03-.13.11-.21.11s-.32,0-.6.27c0,0-.56-.03-.87.32,0,0-.08.02-.13-.06-.05-.08-.21.32-.21.38s-.59,1.6-1.16,1.63l-.1-.06s.11.29.05.39c-.06.11-.12.33-.12.33l.18.42-.27-.38-.06.24.1.24-.1.05.13.28.12.43-.23-.2s.11.91.09.96c-.01.05-.08.39-.09.45-.01.06-.05.2-.04.25.01.05.19.97.2,1.04.01.06.05.38.07.43.02.05.31,1.12.33,1.17.02.05.01.08.13.21.12.13-.01-.03.3.33.31.37.3.39.39.51.09.12.18.25.18.25l.1-.11.03.22s-.06.22.08.34c.14.13.13.14.27.25.14.11.46.26.64.37.18.11.42.18.57.34.16.17.62.58.62.58,0,0,.13.81.14.93.01.12.2.36.31.44l.43.33.06-.12.06.21.11.12v.15s.22.18.22.23v.17s-.07.27-.07.27l-.12.1-.12.05.07.19-.18.03.21.29-.25-.15h-.08s-.12.02-.12.02c0,0-.02.05.01.16.04.11.24.64.32.76.08.12.25.45.25.45l.21.55.07.22s.14.33.15.4c.01.07.14.32.06.31s-.12,0-.12,0c0,0,.33.48.18.58-.15.11-.25-.02-.25-.02h-.11l-.21.17v.2l.04.04c-4.39-3.85-7.16-9.48-7.16-15.76,0-7.95,4.45-14.88,10.98-18.43v.07l-.05.07v.1l.03.12.14-.03.12-.07.09-.05s.26-.21.26-.29.07-.05.07-.05l.26-.09s.09-.03.17-.05c.07-.02.09-.12.09-.12l.1-.05s.09.02.14.02h.19s.17-.24.17-.31c0-.07.02-.14.02-.14h-.01s.19-.08.19-.08l.08.1.07.02-.05.17s-.17.14-.26.24c-.09.09-.14.14-.21.21-.07.07-.02.09-.02.09l.05.14.24.19.4-.12.12-.05.24-.14.14-.1h.17l.14-.12.12-.14.31-.14.19-.14c.19-.14.21-.03.21-.03l.12-.03c.12-.02.6-.17.6-.17,0,0,.14-.07,1-.12.86-.05.12-.09.12-.09l-.29-.05c-.28-.05-.07,0-.14,0s-.07,0-.17-.05c-.1-.05-.02-.07-.02-.14s.12-.07.12-.07c0,0,.07-.05.19-.07.12-.03.38,0,.38,0,0,0,.21-.03.55-.07.33-.05.07,0,.26-.02.19-.03.38-.05.45-.1.07-.05.09-.05.31-.14.07-.03.11-.05.13-.05l.11-.14s-.26.03-.33.03h-.36c-.09,0-.14,0-.21-.03-.07-.02-.09-.02-.09-.02l-.36-.02-.26.02-.09.02-.17.05-.07.03c-.07.02-.14,0-.14,0h-.12l-.09-.03c1.43-.32,2.89-.5,4.35-.52l.14.09.05.1.14.07-.52-.09-.24-.05h-.12l-.28.02v.07l-.36.07.17.02.28.05h.6c.5,0,.09.05.09.05l.07.05s.1.05.17.1c.04.03.08.06.12.09l.67.02.14.05v.1l.05.17-.43-.02h-.38c-.24,0-.21.05-.21.05,0,0-.38-.03-.55-.05-.17-.02-.12,0-.12,0,0,0-.09-.02-.21-.05l-.21-.07-.19-.14.12-.14-.24.02-.17.05h-.07l-.07.07-.19.12h-.09l-.12-.02h-.17l-.6.24-.12.02-.26.14-.05.12.17-.05.52-.31.02.12-.12.07h-.07l-.26.14h.4l.43-.02.07-.02.21-.05.17-.03.09.07-.05.1-.07.02-.09.05s-.09,0-.17.02c-.04.01-.08.02-.12.02h-.21l.24.09.17.03h.14l.31-.05.21-.07.14-.07.45.03.64.02h.5l.6-.19h.26l.21-.14.05-.1h.48l.33.02c.33.02.26,0,.26,0l-.05-.07-.02-.09-.86-.29.1.02s.07,0,.5.03h.14c.25.02.14,0,.14,0l.12-.07-.19-.05-.14-.05-.07-.02-.09-.03-.24-.02-.07-.07h.17l.36-.02.1-.07.04-.08.25.03-.02.14v.12l.12.07.19.12.12.05s0,.02.12.05c.12.03.02,0,.12.03.06.02.13.02.19.02v.07s-.03.02-.1.02h-.22s-.09-.04-.13-.05l-.21-.07h-.38l.14.24.07.07h.09l.33-.09.07.07-.28.12s.07,0-.07.02c-.14.03-.28.07-.28.07h-.07l.03.07.28.14h.07s.09.03.18.06c.05.04.1.1.18.17.76.74.29.33.29.33l-.69-.07-.14.05-.12-.05-.09-.02-.07.12s-.05.07-.12.09l-.26.1-.57.14-.47.07-.12-.05-.36-.07-.17-.02-.19-.03-.07.05-.1.07-.17.12h-.24l-.28.02.09-.05.07-.07.09-.09-.03-.07-.14-.02-.21.07-.14.14-.36.07-.26-.14-.09-.05h-.21l-.09.02h-.21l-.36-.07-.36.14-.55.17-.41.03-.38.12s0,.07-.12.17c-.12.09-.26.07-.26.07l-.19.14-.02.09s.64-.43-.22.17c-.86.59-.17.31-.17.31l.48.07.38-.09.57-.07c.36.09.55.14.55.14l.4-.12h.1l.24.14-.02.12.07.14c.09.07.17.12.17.12l.43.07h.55s.03.05.03.12c0,.07.17.38.17.38.21.17.21.19.31.21.09.03.14.05.29.07l.14.02s.12.29.1,0l-.03-.28v-.14s.03-.07.1-.07.19-.02.19-.02c0,0,.02.02.1.02s.05,0,.21-.07c.17-.07.21,0,.19.07-.02.07-.05.13-.09.19-.05.07.14-.19-.05.07-.19.26-.9.21-.19.26.71.05.83,0,.83,0,0,0-.14-.14-.14-.21s.02-.17.02-.17c0,0-.05.02.07-.09l.12-.12s.02-.17.07-.05c.03.08.04.17.02.26,0,0,.02-.03.12.05.12.09.21.14.21.14h.1l.14-.12h.17s-.02-.02.07.05l.09.07.26-.1.07-.07.55-.12.02-.07.52-.21.12.09s.02.03.14.07c.12.05.17.12.17.12,0,0-.38-.07-.45.07l-.07.14.57.14.14.07.17.09s.03-.02.07.07l.12.24.09.24.17.1s.07.02.14-.02c.05-.03.11-.06.17-.07h.57l.14.02.21-.07.29.17.42.2s.05.05.11.11c.21.22.31.22.31.22l.12-.03.09-.05.21-.1h.12l.19-.12.21.12.24.12c.14.28.05.19.14.28.1.09,0,.07.1.09l.09.02.19-.09s.09-.02.4.14c.31.17.33.07.31.17-.03.09-.09.12-.09.12,0,0,.02.05,0,.12-.03.07-.05.17-.05.17l.24-.17.07.02.29.29.24.07s.14.05.05-.07c-.09-.12-.28-.33-.28-.33l.14-.05s-.07.17.07,0l.14-.17s.09-.12.12-.05c.02.07-.05,0,0,.17.05.17,0-.02.05.17.05.19.12.29.12.29,0,0,.02.05.12.1.09.05.31.09.31.09l-.05-.14-.05-.1s0-.02-.05-.12c-.05-.09-.02-.02-.07-.19-.04-.14.13-.15.18-.14,0,0,.03.03.25.12l.33.14.14.14.31.31s.19.05.19.12.12.24.12.24l.1-.02.1-.07.19.05.09.02.05.12s-.02-.07.07.07l.14.21.12.07.07-.05.1-.24v-.07s-.03-.12.09-.02c.12.1.05.05.17.17l.12.12.05-.1s.12.12-.02-.12l-.14-.24-.19-.29-.14-.21-.02-.17.14.12s.07.07.14.09c.07.03.02.1.07.03.02-.03.06,0,.07,0-.04-.05-.08-.1-.12-.15-.21-.28-.17-.09-.21-.28-.05-.19-.07-.26-.07-.26,0,0,.02-.07,0-.14-.04-.13-.07-.25-.1-.38l.1-.02.46-.16c-.05-.06-.09-.13-.13-.19-.19-.31-.29-.38-.29-.38l-.07-.09-.17-.14-.19-.31c.09-.05.31,0,.31,0h.12v-.24c.28.23.56.47.84.72l.02.05h-.17l.12.17.07.07.05.17s.02.07.02.14.05.19.05.19c0,0,.14.19.14.26s-.14.02.05.21c.19.19.14.12.19.19.05.07-.05-.09.05.07.1.17.21.33.21.33l-.07.09s-.03.02,0,.09c.02.07.07.14.07.14,0,0,.07.12,0,.14-.07.02-.14.02-.14.02l-.24-.19-.24-.1-.05-.02s.07.24.07.31-.05.14-.05.14l-.12.12-.12.12-.07.45v.17c0,.14.02.29.02.36s-.19-.14-.19-.14l-.03-.09c-.02-.1-.09-.26-.09-.26,0,0-.02-.05-.05-.12-.02-.06-.04-.11-.07-.17l-.09-.02.03.64-.12-.12s.05.07-.07-.07c-.12-.14-.22-.26-.22-.26l-.14-.12s-.1.09-.17-.09l-.07-.19-.07.1-.12.02s-.02.07-.07.16c-.05.09-.08.19-.1.29,0,.07-.09.1,0,.22.1.12.05.07.12.19.07.12.02-.05.07.12.05.17.12.07.05.17l-.07.09-.21.1-.12.14.05.17.09.07s-.05-.05.12.05c.17.09.26.21.26.21,0,0-.02-.05.05.07.07.12,0-.02.07.12.07.14.21.33.21.33,0,0-.23-.08.02.1l.1.07.12.08.28.18s-.73-.39-.76-.51c-.02-.12-.08-.22-.17-.3-.1-.07-.17-.14-.17-.14l-.19-.05-.09-.07h-.17s0,.05.03.14l.05.19.05.07.1.21-.1.12s-.05-.02-.05.14-.09-.05,0,.17l.1.21s-.05.05.09.05h.14l.47.19s0,.07.03.17c.02.09.14.21.14.21,0,0-.02.02.12.12.14.09.21.17.21.17l-.43-.24-.24-.31-.12-.1s-.1-.05-.12.03c-.02.07-.05.16-.05.16l.07.26.12.12-.1.21s.02.19-.07.21c-.1.02-.33-.02-.33-.02l.07-.12s.02-.07.02-.14.02-.24.02-.24l-.05-.17s-.05-.07-.07-.14c-.02-.07-.05-.09-.07-.19-.02-.09-.07-.07-.14-.24-.07-.17-.07-.19-.09-.26l-.17-.52-.19-.43-.19-.17h-.07s-.05.05-.05.14v.24s.02,0,0,.1c-.02.09-.02.21-.02.21l.05.14.17.38v.14s-.28-.21.05.07c.33.29.31.12.33.29l.02.17-.22.05-.76-.5-.1-.07-.55-.36.14.33.07.14.09.17-.02.1s.14,0-.07.02l-.22.02h-.43l-.14.02-.24-.31-.14.14s-.07.07-.14.1c-.07.02-.19.07-.19.07l-.38.26s.05.12-.12.1c-.17-.02-.12.38-.26-.02l-.14-.41.17-.1h.12v-.09s-.05-.1-.12-.12c-.07-.02-.24-.09-.24-.09l-.02.12-.02.12s-.05.07-.05.14.05.12.05.19-.02.22-.02.22l-.09.12s-.02.05-.14.03c-.12-.03-.22-.03-.22-.03l-.24.05-.03.07-.06-.07v.17l-.07.12-.07.19h-.09l-.12-.12-.09-.02-.07-.12c-.04-.07-.1-.14-.17-.19,0,0-.02,0-.02.07s-.03-.14,0,.07c.02.21.09.5.09.5,0,0,.07.1-.02.07-.14-.05-.29-.09-.43-.14l-.05-.19s-.03-.26-.03-.33v-.19c0-.07.03-.12.07-.19.05-.07,0-.09-.03-.24l.03-.14.52.36c.14.09.12.05.12.05,0,0,.12,0,.22-.02q.09-.02.38-.14c.29-.12.07-.28.07-.28l-.09-.17-.14-.17-.07-.07s-.02-.09-.09-.17c-.07-.07-.12-.14-.12-.14l-.07-.07c-.07-.07-.07-.12-.07-.12l-.12-.14-.26-.24s-.12.03-.28-.07c-.17-.1,0,0-.07-.1-.07-.09.02-.14.02-.14l.03-.07c.02-.07-.05-.07-.12-.12-.07-.05-.07-.07-.14-.14-.07-.07-.07-.02-.07-.02,0,0-.07-.05-.17-.14-.06-.06-.11-.11-.17-.17l-.24-.05-.17.12s.24.29-.71.02c-.28-.08-.44-.12-.53-.15-.09.05-.38.23-.43.29-.05.07-.03.07-.1.14-.07.07-.38-.02-.38-.02l-.24.09c-.24.1,0,0-.07.07-.07.07-.02.1-.02.1,0,0-.45.14-.62.19-.17.05-.1,0-.17,0s-.12.07-.12.07l-.17.07s-.05.07-.17.1c-.12.02-.5.05-.5.05l-.05-.07-.07-.07-.24.07-.38-.07-.21.14-.14.17s-.12-.02-.19-.02-.09.14-.09.14l-.02.14c-.02.1-.01.12,0,.12-.1.03-.19.07-.28.12l-.07.19-.24.05s.02.09.02.19.17.26.17.26l.07.09s.17.05.38.05h.31l.12-.02.19-.07v.17c0,.09-.05.12-.12.21-.07.09-.14.38-.19.45-.05.07-.05.14-.05.14l-.05.24-.09.22-.05.09-.17.14-.09.09.22.21.07.07h.07s.07-.02.28-.17l.17.02h.12l.26-.09s.12-.1.28-.26c.17-.17,0,0,.05-.07.05-.07.12-.09.21-.19.1-.09.26-.07.26-.07,0,0,.07.03.14.03s.17-.12.17-.12l.26-.26v-.33s.03-.14.05-.24c.02-.09.02-.12.02-.12,0,0,.09-.1.24-.19.14-.09.1-.05.21-.14l.22-.14s.09-.02.28-.05c.19-.02,0,0,.21-.02.21-.02.09-.02.17-.07.07-.05.24-.19.24-.19,0,0,.22-.09.33-.14.05-.02.1-.04.14-.07l.12.02.26.19v.19l-.07.17-.4.12c-.41.12,0,0-.1.02-.09.03-.12.03-.24.07-.12.05-.17,0-.17,0l-.26.17s-.14.09-.22.21c-.07.12,0,0-.02.12-.02.12-.05.17-.05.17,0,0-.05.09-.12.19-.07.09-.07.12-.07.12v.26l.03.19.17.05h.07l.09.05s.07.05.33.12c.26.07,0,0,.38.03.38.02.43.17.43.17l.02.12c.02.12.12.09.12.09,0,0,.12.17.17.29.05.12.07.02.07.02,0,0,.05-.09.07-.17.02-.07.02-.09.02-.24v-.24c0-.07.07,0,.07,0l.17.02.07.07.07.07.11.06v.15s-.11.21-.11.21l-.14.07-.14.05-.2.04c-.04-.08-.09-.06-.09-.06l-.09-.09c-.09-.09-.06-.06-.14-.06h-.33c-.28,0-.03.06-.03.06l-.09.16-.09.14-.05.07v.07l.02.08-.09.06s-.05-.03-.09-.11c-.05-.08,0-.06.02-.16.01-.1,0,0,.01-.05.02-.05.06-.06.14-.16.08-.09.06-.08.13-.09.06-.02-.03-.06-.03-.06,0,0-.03-.02-.14-.11-.11-.09-.08-.03-.25-.16-.18-.13,0,0-.05-.03-.05-.03-.21-.05-.29-.06-.08-.02-.06.02-.13.02s-.06.08-.06.08l-.14.05v.14c0,.08.04.08.04.08l.1.06-.05.11s-.06.08-.16.19c-.1.11-.02.08-.02.13s-.09.09-.24.05c-.14-.05,0,0-.01-.05-.02-.05-.03-.05-.05-.09-.02-.05-.02-.06-.03-.19-.02-.13-.03-.13-.03-.13l-.27.08-.19.14-.1.05s.1-.05-.06.08c-.16.13-.06.11-.06.11,0,0-.05.16-.05.24s.03.14.03.14l-.28.13s-.03-.02-.11-.05c-.08-.03-.06-.02-.11-.06-.05-.05-.05-.03-.11-.03s0,0,0,.06c0,.06,0,.08.02.13.01.03,0,.06-.02.08l-.24-.08c-.24-.08,0,0-.13-.05-.13-.05,0,0-.02-.06-.02-.06-.02-.05-.05-.16-.03-.11-.02-.05-.02-.09v-.05h-.24c-.16,0,0,0-.14-.03-.14-.03-.1-.06-.21-.09-.11-.03-.27-.02-.32-.02h-.14s-.05,0-.13.06l-.03.14-.02.05s-.01.05,0,.08l-.08-.02.02-.11-.03-.24s-.01-.08-.02-.12h0c0-.08,0-.06.02-.19,0-.03,0-.07.01-.1l-.03-.06-.14.02-.22-.02h-.05c-.08-.09-.21-.17-.21-.17l-.05-.19c-.05-.19-.02-.12-.02-.12,0,0,.02-.12.05-.26.02-.14,0,0,.12-.1.02-.02.04-.03.07-.04v.02s.03.12.03.12l.03.07h.09c.05-.09.05-.19.05-.19l-.04-.04c.07-.06.13-.12.18-.2.09-.14,0,0,.17,0s0,0,0-.07,0-.07.02-.14c.02-.07.07-.07.07-.07l.14-.14c.07-.07-.05-.12-.05-.12l-.14.07-.07-.02-.09-.12-.12-.03-.12.1.14.02.05.1-.05.09-.1.05-.12-.07-.12-.03-.05.07-.05.09-.14.1-.05.09v.09l-.02.09-.07.17-.02.12c-.02.12-.21.09-.21.09l-.06.09s-.04,0-.21.06c-.18.06,0,0-.07-.08-.07-.08,0,0-.07-.17-.07-.16,0,0-.18.14-.18.14-.05.03-.11.01-.06-.02-.02-.06-.07-.25-.05-.19-.03-.06-.18-.04-.15.02-.01.05-.25.25-.24.2-.08.03-.18.01s0,0,.03-.13c.02-.13.06-.13.05-.19-.01-.06-.08.05-.22.13-.13.08-.05.03-.14.07-.1.04-.05.03-.11.09-.06.07-.02.06-.05.18-.02.12-.08,0-.12-.01-.03-.01,0-.1,0-.1,0,0-.11-.04-.19-.04s-.06,0-.21-.06c-.16-.06-.04-.01-.17-.1-.13-.08-.06,0-.13.07-.07.07-.08.02-.2.14-.12.12-.12,0-.27.01-.16.01,0,0-.08-.08-.08-.08,0,0-.08-.01-.08-.01-.04.06-.06.13-.02.07-.04.01-.19-.07-.16-.08-.06-.03-.14-.19-.08-.15,0-.03.01-.17.01-.13-.03-.07-.12-.1-.08-.02-.05.07-.08.19-.04.12-.01.03-.14.12-.13.08-.03,0-.07-.02-.03-.03-.12-.06-.25-.17-.13-.11-.02-.07-.05-.18-.02-.11-.08-.05-.2-.09-.12-.05-.05-.07-.12-.11-.07-.03-.03.06-.11.16-.07.1-.03.12-.01.15.01.04.04.08.07.12.05.06,0,0,.08.12.08.12.01.04.01.33,0,.07,0,.11,0,.13,0,0-.01,0-.02.01-.08.06-.02.05-.13.18-.11.13,0,.12.01.2.01.08.03.07-.02.18-.06.11-.08.06-.13.15-.05.09,0,.07-.06.19-.06.12-.07-.05-.14-.02-.07.02-.04.01-.09.05-.06.03-.06.11-.09.18-.04.07.03.09-.37.17-.41.07-.04.08-.19.15-.15.07-.08-.06-.23-.18-.14-.12-.03-.13-.03-.13h-.12c-.07,0-.08-.09-.12-.17-.04-.07-.06-.11-.06-.18s-.05-.05-.26-.36c-.21-.31-.14-.19-.18-.26-.03-.07-.15-.18-.21-.25-.06-.07-.09,0-.16-.02-.06-.01-.06,0-.15-.06-.1-.06-.05-.02-.08,0-.03.02-.03.13-.17.31-.13.18-.11.05-.11.05,0,0-.11.08-.14.13-.04.05-.19.28-.19.28,0,0-.2.14-.31.22-.11.08-.16.07-.2.11-.05.03-.15.05-.31.11-.16.06-.07.12-.07.17,0,.05.03.08.03.17s-.14.17-.25.3c-.11.13-.05.11-.07.17-.02.06-.05.09,0,.15.05.06,0,0,.18.14.18.14.03.03.02.49-.01.45-.05.13-.07.21-.02.08,0,.11,0,.11l.37.1.08.07s.06.11.15.24c.09.13.17.17.21.19.05.03.09.06.18.11.08.05.13-.02.13-.02l.12-.05c.12-.05.19.06.19.06,0,0,.05.11.14,0,.09-.11.43-.12.43-.12h.08s.02-.03.03-.19c.01-.15.04-.05.06-.09.03-.05.12-.08.19-.11.07-.03.11-.07.25-.08.14-.01.09-.06.13-.07.03-.01.13-.03.2-.07.07-.04.06,0,.13.04.07.03.08.03.15.05.07.01.14.01.19.05.05.04.09,0,.36,0s.11-.05.19-.11c.08-.06.1-.14.16-.3.06-.16.02-.05.07-.05s.19.02.26.04c.07.01.07.02.15.06.08.04.1.1.1.1l.02.08h.11s.01.04.01.11c0,.07.02.11.04.15.01.06.04.11.07.17.05.09.01.04.12.06.11.03.05-.02.25-.08.2-.06.05.01.25.12.2.11.08.01.33,0,.25-.03.06-.03.13-.03s.12.05.12.05l.09.2s.05.14.08.26c.04.12,0,.06-.04.15-.04.09-.02.09-.05.18-.02.08-.02.07-.07.17-.05.1.01.1.01.2s.02.12.04.18c.01.06.01.12.02.19.01.07.01.1.03.14.03.05-.02.17-.02.17v.04s.07.18.09.21c.04.05.08.09.12.13.08.08.06.05.1.12.03.07.03.08.03.17s.01.1.05.19c.04.09.05,0,.05,0l.04.08s.01.08.01.13-.03.06-.04.12c-.01.06,0,.05.03.1.04.05.03.05.07.08.05.03-.01.14-.01.19s-.02.14-.02.18-.04.06-.1.13c-.06.07-.04.05-.09.07-.06.02-.04.05-.07.08-.03.03-.02.06-.08.12-.06.06,0,0-.07.03-.07.04,0,0-.03.04-.02.04.04.11.04.11h.12s.07-.08.17-.08.17-.12.17-.12l.21-.14c.07-.05,0-.17,0-.17,0,0,.09-.09.14-.17.05-.07.07-.05.14-.05h.1l.12.07-.02.14c-.02.14,0,0,.02.12.02.12,0,0,.09,0s.09-.1.09-.1v-.17l-.05-.14c-.02-.07-.05-.07-.05-.07l-.07-.12-.07-.12-.05-.07-.1-.17-.04-.21.12-.1-.07-.05c-.07-.05-.09-.05-.09-.05,0,0-.07,0-.14-.12-.07-.12,0,0-.07-.07-.07-.07-.02-.09-.05-.19-.03-.09-.03-.12-.03-.21s.03-.17.05-.26c.02-.1.07-.14.07-.21s-.02-.14-.02-.14c0,0-.05-.07-.07-.14-.03-.07-.03-.1-.03-.24s.05-.14.07-.24c.02-.1.02-.12.14-.17.12-.05.03-.12.03-.12h0c.06,0,.15,0,.18,0h.14s.11.03.21.03,0,0,.03.08c.03.08-.08.08-.16.18-.08.09,0,0-.08.21-.08.21.03.06.09.02.06-.05.08-.03.21-.08.12-.05.08,0,.08,0l.08.11-.08.19c-.08.19-.03.06-.01.13.01.1,0,.2-.03.3-.03.11,0,.09,0,.24s.02.06.08.21c.06.14.02.05.11.13.09.08.08.13.16.16.08.03,0,.05.03.16.03.11.05.1.09.13.05.03.09.17.09.17,0,0,.03.24.03.35s0,.05.08.18c.08.13.02.06,0,.11-.02.05-.09.08-.09.08l-.03.14h-.09s-.02.17-.02.17c0,0-.05.03-.14.05-.1.01-.02.1-.02.14s.02.06.05.21c.03.14.03.17.03.17l.02.22.02.13.06.17-.05.02h-.1s-.06.03-.06.03c0,0,.02.08.06.14l.13.17.06.05s.03.03.13.03.05.03.14.06c.1.03.08.06.14.11.06.05.05.11.05.11l.22.18.08-.16v-.09s.35.17-.13-.25c-.47-.43,0-.16,0-.16,0,0,.05-.02.08-.09.03-.08,0-.14,0-.19s.05-.03.05-.08.02-.06.03-.14c.02-.08.05-.03.14.02.09.05,0,.06,0,.06l.28.16s.05-.08.05-.14.06-.08.06-.08h.09s.13.05.13.05c0,0,.05.02.09.05.05.03.11-.01.11-.01l.05-.02s.05.05.05.05l.03.08.18.02s.03.05.06.17c.03.13.03.08.03.08l.18.14.08-.09h.06l.03-.11s.03.03.08.05c.05.01.29.24.4.36.04.04.08.07.13.09h-.03s-.04.02-.04.02l-.06.05s-.19.03-.22-.03c-.03-.06-.06-.05-.11-.13l-.05-.08s-.03.06-.03.11v.05l-.13-.11-.09-.05-.11-.08-.11-.02s-.05-.02-.06.05l-.02.06-.22.09-.03.09s-.08.02-.08.06-.08.13.03.14l.11.02s.05-.18.08-.06c.03.11.05.14.05.19s-.03.21-.03.21l-.17-.07s-.05-.02-.05.03.08.21.08.21c0,0,.05.12.03.17t-.02.09v.13s.08.18.09.22c.02.05-.02.05.03.11.05.06.06.08.1.14.04.08.09.16.14.24.03.05.05.21.18.27.13.06.16.11.22.09.06-.02-.09-.08.14-.08s.14-.11.32,0c.17.11.11.05.27.21.16.16.4.45.52.51.13.06-.09.1.18.02.27-.08.41-.18.41-.18,0,0,.06-.02.13,0,.06.02.35.22.35.22l-.06.11s-.03-.02-.05.08c-.02.09-.09.6-.14.65-.05.05-.08.05-.13.08-.05.03-.13.06-.19.13-.06.06-.19.09-.27.17-.08.08-.06.08-.19.19-.13.11-.13.06-.22.19-.09.13-.22.26-.22.26,0,0-.08.14-.14.19-.06.05-.14.08-.14.08,0,0,0,.05-.16.02-.16-.03-.03-.03-.22-.1-.19-.06-.21-.11-.25-.09-.05.01-.03-.03-.08.09q-.05.13-.06.19c-.02.06-.03.03-.02.14.02.11.02.14.02.19s.03.11.03.27-.02.16.02.24c.03.08-.05-.06.03.16.08.22.05.21.08.27.03.06-.14.16.08.09.22-.06.37-.09.37-.19s-.17.03.05-.19l.22-.22s.11.05.03.11c-.08.06-.16.25-.21.36-.05.11-.1.02-.06.14.03.13.06.21.06.21,0,0,.19.35.19.4s-.03.03,0,.22c.03.19.09.44.11.56.02.11.03.11.03.17s.01.1-.03.16c-.05.06-.14.05-.05.14.09.09.22.27.22.27,0,0-.05-.32.06.11.11.43.14.52.14.61s.09-.08,0,.13c-.09.2-.13.2-.13.28v.18s-.03,0,.03.13c.06.13.05.13.09.2.05.08-.13-.27.13.13q.25.39.25.48c0,.08-.02.08,0,.16.02.08.03.11.05.16.02.05-.03-.03.06.15.09.17.11.24.11.24,0,0,.03-.11.06.09.03.21.11-.14.02.32-.09.46-.17.65-.17.65,0,0-.03-.01-.03.09s-.02.29-.03.35c-.02.06-.21.03-.02.17.19.14-.41.19.25.19s.05,0,.75-.05c.7-.04.4-.06.81-.06s.65.03.79,0c.14-.03-.08.13.22-.06.3-.19.54-.4.54-.4,0,0-.08-.02.09-.02s.49.04.57.04.01.05.08,0c.06-.04.3-.2.3-.2,0,0,.06-.05.3-.08.24-.04.16-.02.35-.04.19-.01-.03.14.44-.03.48-.17.21-.25.21-.25,0,0-.1-.04.09-.08q.19-.05.25-.08c.06-.03-.06-.03.14-.1.21-.06.08-.03.27-.11.19-.08.21-.08.27-.13.06-.04.13-.11.16-.17.03-.06.06-.16.06-.16l.08-.12.13-.14s.09.02.14.02-.11.21.27-.21c.38-.41.3-.35.38-.41.08-.07.13-.05.13-.13s-.13-.19-.13-.19l-.05-.12c-.06-.01-.12-.03-.18-.05-.27-.08-.79-.31-.67-.78.13-.46.08-.38.08-.38l-.11.1s-.05.02-.13.14c-.06.1-.14.26-.17.31l-.04.02c-.09.04-.18.08-.27.11t-.11.06-.16.1c-.1.04-.2.05-.3.03-.05-.02.14-.02-.1-.02h-.33c-.14,0-.09.07-.21-.01-.11-.08.08-.02-.14-.1-.22-.08-.35,0-.22-.08.13-.08.1-.05.17-.13.08-.08.13-.14.16-.19.03-.05,0,.1.03-.05.03-.15.05-.27.05-.32,0-.05-.19,0-.19,0,0,0-.02.06-.05.11l-.14.22s-.08.08-.11-.03c-.03-.11-.03-.05-.03-.11v-.11c0-.06-.02-.1.02-.14.03-.05.08-.11.08-.16,0-.05-.09-.07-.11-.13-.02-.06-.05-.11-.08-.17-.03-.06-.06-.14-.06-.14,0,0-.06-.05-.11-.17-.05-.13.01-.11,0-.18-.02-.06.05.03-.03-.13-.08-.16-.09-.19-.11-.24-.02-.05-.11-.16-.11-.21,0-.05-.17.04,0-.05.18-.1.21-.13.26-.16.04-.02.08-.04.13-.06l.35-.14.09.03s.06-.08.18.13c.11.21.11.14.16.32.05.17.06.14.06.25s.02.29.03.34c.02.04,0,.03.03.08.03.05,0,.03.09.11.16.13.33.26.51.38.06.03-.41-.1.11.1.52.19.3.12.41.11.11-.01.11,0,.18-.05.08-.06.18-.1.29-.11.16-.03.05-.03.22-.08.17-.05.16-.18.19,0,.03.17.05.28.05.33,0,.04-.19.03.02.11.21.08-.46-.08.21.08.67.16.46.14.78.18.32.03.54.04.63.06.09.02.03.03.18,0,.14-.03.21-.08.28-.08s.53-.06.57-.08c.05-.02.08.08.35-.05.13-.06.2-.09.25-.11l-.02.18.09.03.12.02v.26l.02.07.12-.07.24-.12.36-.12c.17-.12,0-.05.17-.12.17-.07.03,0,.17-.07.14-.07.21-.12.21-.12,0,0,.09.12.03.19-.07.08-.19.24-.19.24,0,0,.05,0-.07.05l-.12.05c-.12.05-.19.05-.19.05l-.14-.05-.12.09s-.07-.02-.12.05c-.03.05-.05.11-.07.17l.17.07s-.14.14.12.02c.26-.12.19-.02.26-.12.07-.09.19-.17.14-.07-.05.09-.17.24-.17.24,0,0-.07.07-.16.12-.1.05-.24.1-.24.1,0,0-.07,0,0,.1.07.09-.05,0,.07.09.12.1.19.14.19.14h.12s.17,0,.29-.09l.12-.09.19-.24.12-.14s.14.19.12.26c-.03.07-.09.09-.12.19-.02.1-.02.07-.07.19-.05.12-.05.26-.07.33-.02.07-.05.07-.07.17,0,0,0,.02,0,.03,0-.01.01-.04-.02.19-.05.33-.05.45-.05.45v.26c0,.07-.02.1,0,.26.02.17.05.19.05.38,0,.12-.07.12-.12.1.04.2.06.39.07.59,0,0-.05.05-.05.14,0,.1.02.17.02.17,0,0-.12.19.07.02.19-.17.12-.02.19-.17.07-.14.07-.19.17-.26.1-.07.19-.12.24-.19.05-.07.02-.04.17-.19l.26-.26c.1-.1.14-.17.21-.26.07-.1.17-.36.17-.36,0,0-.02-.09.05-.19.07-.09-.19.19.14-.31.33-.5.17-.33.33-.5.17-.17-.14.07.29-.31.43-.38.24-.14.33-.28.09-.14.05-.19.21-.36.17-.17.33-.36.43-.45l.6-.6s.05-.14.09-.26c.05-.12.07-.05.12-.29.03-.18.11-.35.21-.5l.07-.1s.07-.09.14-.12c.07-.02.19-.09.19-.09,0,0,.02-.02.12-.12.09-.09.19-.24.19-.24l.14-.19s.03.07.03.17.02.19.02.19l.1.1.09.09v.2h0ZM145.72,80.66s-.05-.03-.12-.09c.06.03.11.06.12.09ZM150.45,102.03s-.07,0,.07.07l.14.07.1.24v.26l.17.17.09.02.09.19-.12.31-.02.09.07.17s.05.17-.02.24c-.07.07,0-.17-.07.07-.07.24.24.4.24.4,0,.19-.07.24-.07.24v.09l.09.14s-.02.05-.02.12c0,.07-.02.14-.05.21l-.05.24v.19l-.05.07-.05.14-.14.04s-.05.03-.12.05c-.07.02.07.02-.19.02-.17,0-.34,0-.51-.02-.03-.06-.06-.12-.09-.17l-.09-.14s0,.05-.17-.12l-.17-.17s-.14-.19-.14-.29-.03-.07,0-.17c.02-.09.12-.29.12-.29l.19-.12.02-.24.12-.12c.07-.07.07-.09.17-.09h.1s.14-.02.05-.1c-.05-.04-.11-.07-.17-.09,0,0-.03-.05-.07-.12-.05-.07-.02-.07-.05-.17-.02-.1-.07-.17-.09-.26-.02-.09-.09-.21-.09-.21,0,0-.19-.14-.21-.31-.02-.17-.02-.07-.02-.17s-.03-.24-.03-.24c0,0-.07-.05.03-.1.09-.05.17-.14.17-.14l-.05-.04h-.02s-.07-.06-.07-.06l-.14-.09-.02-.12.05-.07.17-.14s.07.14.14-.05l.07-.19.07-.24.12.1.19.02.1-.12.09-.1.21-.02s-.28-.05.05-.07l.33-.02.52.02s0-.07.02.12c.02.19.05.07,0,.31-.05.24.14.33-.07.33h-.22l-.21.05s-.07-.05-.07.09v.14l-.09.19c-.07-.14-.05-.19-.07-.14-.02.05-.26-.09-.26-.09l.03.14h0ZM148.34,104.95l-.07-.07v-.02l.07.08ZM146.93,100.01l-.14-.02.02.19s.14.17-.02.17h-.36l-.09-.03-.14.03.12.19-.02.12s-.02.07.03.14c.05.07.05.12.09.19.05.07.12.12.12.12,0,0,.02.1.09.14.07.05.17.19.19.26.02.07.05.12.07.19.02.07.07.05.12.12.05.07-.1-.09.05.07.14.17.09.07.17.26.07.19.07.41.07.41l-.09.14s-.07.07-.14.09c-.07.03-.17.07-.17.07l-.17.07-.12.03-.22-.17s-.16-.3-.13.06l-.05-.02-.16-.07s-.03-.03-.13-.09c-.09-.06-.06-.16-.16-.16s-.06-.03-.19-.1c-.13-.06-.13,0-.22-.16-.1-.16.06-.03-.1-.16-.16-.13-.19-.16-.29-.19-.09-.03-.22-.1-.22-.1l-.28-.13h-.13c-.09,0-.09-.03-.25-.03h-.16s.05-.03-.22.03l-.27.06s-.27-.11-.37-.14c-.09-.03-.11-.11-.17-.14-.06-.03-.06-.08-.13-.13-.05-.04-.11-.08-.16-.11-.05-.03-.03-.06-.03-.06l-.06-.08-.05-.08-.02-.09v-.07l.02-.14-.02-.05-.03-.09.03-.08.09-.06.09-.05.05-.09s.05-.03.09-.05l.09-.03.14-.03.05-.14.06-.09.02-.09.1-.13.06-.05.08-.02s.06.03.16.06c.08.03.08.03.08.03l.08-.03v-.09l-.08-.11.13-.13v-.08l.11-.05s.05-.03.13-.03.14.03.14.03l.09-.11.05-.06h.25l.1-.11.17.38.09-.12.07.12v.12l.03.07.02.1.17.14.07.03.07-.03.12-.05.12-.02h.07l.17.02c.12-.02.19-.05.26-.05s-.05.02.07,0c.12-.02.05-.05.26,0l.22.05.28.07s.02.02.09.02h.07s.38-.14.26,0c-.12.14-.14.21-.14.21h-.17s.07,0-.07-.02ZM142.91,104.96l.12.02h.26l.09-.12.21-.09h-.33l-.21-.07-.36-.02.03.17.19.12ZM143.91,92.42s0,0-.02.03c.04-.02.02-.03.02-.03h0ZM144.76,92.85c.02-.07.02-.14.02-.14l-.19-.05-.09.09-.1.05.24.03s.1.09.12.02ZM156.23,85.11h-.02s.02,0,.02,0h0ZM140.13,79.65h0s.04-.01,0,0ZM151.6,111.86h0s0,0,0,0ZM155.8,114.35l.05.03c-.03-.15-.05-.03-.05-.03ZM145.89,93.41h0s-.03.04,0,0ZM146.12,88.24l.03-.02s-.22-.05-.03.02h0ZM144.62,91.75l-.03-.1-.12-.02-.02.14.09.1.07-.12ZM136.46,97.46h.05s.19-.12.19-.12c0,0,.09-.12.12-.17l.08-.18h-.06c-.06,0-.06-.01-.11-.03-.05-.02-.06-.04-.1-.01-.03.02-.07.07-.07.07,0,0-.03.08-.05.14-.02.06-.06.12-.08.2-.03.08.02.09.02.09ZM136.89,99.96c-.07-.07-.12-.1-.14-.14-.03-.05-.03-.13-.07-.13s-.13-.05-.13-.05c-.03-.02-.14-.03-.14-.03v.25s.06.05.08.08c.02.04.04.09.06.14.01.04.05.05.06.11.01.06.07.12.14.19.07.07.06.18.06.21,0,.03.03.09.03.09l.1-.09s.08.05.09-.04c.01-.08.01-.1.04-.13.02-.03-.15.01.07-.07l.23-.08.06-.11s-.35-.18-.38-.18-.08.05-.15-.02ZM136.22,97.58s-.12-.02-.15-.04c-.03-.01-.08-.09-.08-.09l-.09.23s-.01.15-.02.19c-.02.06-.05.11-.08.15-.05.06-.08.12-.18.18-.09.06-.05.1-.05.1l.08.11s.05-.06.08-.08c.04-.02.09.11.09.14l.13-.07.27-.33c.06-.07.13-.13.13-.13,0,0,.02-.15.03-.19.01-.04-.02-.12-.02-.12l-.14-.03h0ZM139.69,102.4c.06-.05.05-.06.06-.11t.05-.18c.03-.13.13.06.22,0,.05-.03.09-.08.11-.14l-.43-.28s-.09-.11-.14-.16c-.05-.05-.11-.03-.11-.03h-.13s-.05.09-.05.14c0,.05.03.06,0,.24-.03.17-.06.08-.1.14-.03.06.02.08.02.08l.16.03s-.02.09-.03.22c-.02.13.02-.03.11-.05.1-.02.06.02.1.08.03.06.03.17.03.17,0,0,.06-.11.13-.16h0ZM145.55,100.24l-.05-.07c-.05-.07,0-.1,0-.19s-.07-.12-.07-.12l-.26.02s-.12-.02-.24-.02h-.14c-.07,0-.03.07-.03.07,0,0,.1.09.17.07.07-.02.09.17.09.17l-.12.19s0,.12.12.21c.12.1,0,0,.07,0l.21.1.29-.07s.12,0,.26-.02c.14-.02,0,0,.17-.09.05-.03.08-.05.1-.05l-.22-.06-.36-.12ZM140.37,103.56l-.06-.06s-.03-.05-.09-.06c-.06-.02-.13-.09-.13-.09l-.05-.03s-.06-.06-.08-.09l-.22-.08-.17-.1s-.02.05.02.11c.06.08.13.14.21.19.03.02.06.05.08.08l.08.08.09.16.27.03.11.03s.03-.05.02-.09c-.02-.05-.06-.06-.06-.06ZM146.14,100.43s.02-.02-.02,0h.02ZM137.59,90.56l-.09-.05-.14-.09-.07.05v.12l-.1.12h-.19c-.07,0-.09-.05-.09-.05l-.14.07.05.07.02.09.1.14.12.05c.12.05.05.12.05.12h-.19l-.24-.07s-.09-.05-.17-.07c-.07-.02-.12,0-.12,0h-.07l-.31.1.24.14.21.14.07-.03.33.17.07.07.14.12.14.17.09.1c.09.09.17.12.17.12l.17-.05-.03-.14-.02-.09c1,.14.6-.41.6-.41l-.1-.12.07-.14v-.12l.09-.12.14-.14.05-.14s-.07-.05-.07-.12.07-.14.07-.14l.09-.07c.09-.07.02-.09.05-.26,0-.03,0-.06.01-.09l.11-.17.07-.07.12-.07.17-.05c.17-.05,0,0,.14-.09.14-.09.07-.21.07-.21l-.05-.07c-.05-.07-.02-.09-.02-.09l.05-.09.07-.02h.07l.19-.09-.02-.14s-.38.05-.45.07l-.14.05-.09-.05-.12.05-.03.07-.12.05-.19.05-.14.07.21.02-.04.09-.07.07-.26.17.14.07-.07.14-.12.02c-.12.03-.14.07-.14.07l-.03.07.17.05.05.12-.07.05c-.07.05-.05.07-.05.07v.22l-.12.14h-.19c-.11,0-.12.01-.1.03ZM139.74,85.28c.02.07.02.09.05.17.02.07.07.17.07.17l.12.14.41.05.09.02.14.12.28-.05h.1l.07-.09c.07-.09.03-.07.07-.14.05-.07.05-.09.05-.17s0-.07-.02-.14c-.02-.07-.09-.05-.14-.14-.05-.09,0,0-.26-.19-.26-.19-.09-.09-.17-.19-.07-.09,0,0,0-.07,0-.07-.02-.15-.05-.22-.02-.07-.14.05-.14.05v.07c0,.07-.05.12-.05.12l-.19.02h-.09s0,.09-.09.12c-.09.02-.07.05-.26.14-.19.09,0,.14.02.21ZM151.64,89.37c.07.12-.14-.05.14.21l.29.26s.02.07.09.1c.07.02.33.02.33.02l-.02-.1-.14-.17-.05-.07s-.07-.07-.09-.19c-.03-.12-.05-.09-.05-.21v-.24s-.02-.12.02-.19c.04-.06.07-.12.09-.19l.1-.17.02-.14.26-.36c.17-.07.21-.05.24-.12.02-.07.07-.12.07-.19,0-.07.05-.14-.03-.14-.07,0-.09-.02-.14.05-.05.07.02-.05-.05.07-.07.12.05.12-.07.12s.03.02-.12,0l-.14-.02-.12.12-.07.12-.1.09-.12.14s-.02.05-.05.14c-.02.1,0,.14-.05.22l-.09.14s-.05.19-.09.31c-.05.12-.12.17-.12.17,0,0-.1.02-.03.12.07.09,0-.02.07.09h0ZM141.43,92.27l-.12.09-.05.1-.03.17-.17.02-.02-.07-.1-.07v.12l.14.12h.09l.12-.05.14-.09s.09-.07.16-.14l.07-.07.05-.07-.21-.05s-.1,0-.1,0ZM132.79,82.73l.17-.09.09-.07s.03-.07.12-.19c.09-.12.17.02.17.02l.17-.02c.17-.03.12-.17.12-.17l.14-.07c.14-.07.17-.12.17-.12,0,0,.09-.03.31-.12.21-.09-.07,0-.07,0,0,0-.07,0-.26.03-.19.02,0,0-.43-.07-.43-.07,0,0-.24,0h-.07s-.36.43-.43.55l-.07.12-.14.17-.12.07-.02.12s.07-.03.17-.03l.24-.12h0ZM136.34,90.08l.07.07.26.09.14-.03.29-.19c.07-.05.07-.09.07-.09l.12-.02.09-.03.19-.02.09-.21v-.31l-.05-.14-.36.09-.35-.09c-.36-.1-.19,0-.19,0l-.07.17v.07l-.02.12-.09.09-.12-.02h-.09l-.09-.02-.12.05-.09.09-.07.12.12.17s.29.05.29.05ZM143.55,92.72l.07-.02s.14,0,.21-.14c.03-.06.04-.09.05-.11-.03.02-.07.03-.1.04l-.17.05-.14.07-.19.14v.07s-.02.08-.02.08l.19-.14s.02,0,.09-.02h0Z"></path>
  <path class="united-domains-blue" d="M105.04,88.81v7.82c-.67-.77-1.54-1.38-2.62-1.81-1.08-.44-2.3-.66-3.68-.66-3,0-5.4.82-7.2,2.45-1.79,1.63-2.69,3.87-2.69,6.71,0,2.47.91,4.49,2.73,6.06,1.82,1.57,4.07,2.36,6.73,2.36,1.62,0,2.97-.22,4.06-.67,1.09-.44,2.06-1.15,2.91-2.13v2.24h5.67v-22.38h-5.93ZM103.89,106.75c-.88.93-2.16,1.39-3.85,1.39s-2.94-.46-3.77-1.4c-.83-.93-1.24-2.18-1.24-3.73,0-1.44.41-2.65,1.22-3.63.81-.97,2.09-1.46,3.84-1.46,1.14,0,2.15.27,3.01.8,1.41.88,2.11,2.36,2.11,4.42,0,1.47-.44,2.67-1.32,3.6Z"></path>
  <path class="united-domains-blue" d="M86.95,103.58c0-5-2.56-9.43-9.62-9.43-5.93,0-10.21,3.23-10.21,8.78s4.79,8.81,11.09,8.81c2.45,0,4.87-.32,6.99-1.06v-4.1c-1.98.93-4.02,1.29-5.82,1.29-3.22,0-5.23-.9-5.6-3.23h13.17v-1.06ZM73.7,101.35c.15-1.94,1.28-3.52,3.66-3.52,2.64,0,3.66,1.58,3.66,3.52h-7.32Z"></path>
  <path class="united-domains-blue" d="M66.24,98.18v-3.68h-5.78v-5.93h-2.51l-3.7,2.32v3.62h-2.53v3.68h2.53v7.97c0,2.08.59,3.56,1.76,4.41,1.18.86,2.97,1.3,5.38,1.3,1.08,0,1.99-.05,2.74-.13.71-.08,1.42-.2,2.12-.36v-3.74h-.52c-.21.11-.57.22-1.09.35-.52.13-.94.19-1.26.19-.78,0-1.37-.1-1.77-.31-.41-.21-.69-.49-.85-.84-.18-.38-.27-.79-.27-1.2-.01-.45-.02-.97-.02-1.57v-6.06h5.78Z"></path>
  <rect class="united-domains-blue" x="42.7" y="94.67" width="6.22" height="16.41"></rect>
  <ellipse class="united-domains-blue" cx="45.78" cy="90.44" rx="3.31" ry="2.76"></ellipse>
  <path class="united-domains-blue" d="M32.89,111.11v-8.77c0-2.08-.55-3.55-3.15-3.55s-3.15,1.47-3.15,3.55v8.77h-6.31v-9.89c0-5.41,4.12-7.07,9.46-7.07s9.46,1.66,9.46,7.07v9.89h-6.31Z"></path>
  <path class="united-domains-blue" d="M5.69,94.33v9.05c0,2.15.5,3.67,2.84,3.67s2.85-1.52,2.85-3.67v-9.05h5.69v10.21c0,5.59-3.72,7.31-8.54,7.31s-8.54-1.72-8.54-7.31v-10.21h5.69Z"></path>
</svg>
