<?xml version="1.0" encoding="UTF-8" standalone="no"?>
<svg
   id="arsys"
   viewBox="0 0 184 52"
   version="1.1"
   sodipodi:docname="arsys.svg"
   width="184"
   height="52"
   inkscape:version="1.4.2 (1:1.4.2+202505120737+ebf0e940d0)"
   xmlns:inkscape="http://www.inkscape.org/namespaces/inkscape"
   xmlns:sodipodi="http://sodipodi.sourceforge.net/DTD/sodipodi-0.dtd"
   xmlns="http://www.w3.org/2000/svg"
   xmlns:svg="http://www.w3.org/2000/svg">
  <sodipodi:namedview
     id="namedview5"
     pagecolor="#ffffff"
     bordercolor="#666666"
     borderopacity="1.0"
     inkscape:showpageshadow="2"
     inkscape:pageopacity="0.0"
     inkscape:pagecheckerboard="0"
     inkscape:deskcolor="#d1d1d1"
     inkscape:zoom="1.9843184"
     inkscape:cx="160.00456"
     inkscape:cy="102.30213"
     inkscape:window-width="1725"
     inkscape:window-height="1211"
     inkscape:window-x="1712"
     inkscape:window-y="66"
     inkscape:window-maximized="0"
     inkscape:current-layer="arsys" />
  <defs
     id="defs1">
    <style
       id="style1">.arsys-gray{fill:#323232;}</style>
  </defs>
  <g
     id="g5"
     transform="translate(-67.98,-79.25)">
    <path
       class="arsys-gray"
       d="m 221.02,117.29 c 2.74,2.31 7.06,3.46 12.82,3.46 6.05,0 10.66,-1.15 13.54,-3.31 3.03,-2.31 4.61,-5.48 4.61,-9.8 0,-2.88 -0.86,-5.04 -2.59,-6.77 -2.02,-1.73 -5.62,-3.17 -10.81,-4.47 l -3.03,-0.58 c -6.34,-1.3 -9.22,-3.03 -9.22,-5.48 0,-1.73 0.72,-3.03 2.02,-3.89 1.3,-0.72 3.03,-1.15 5.48,-1.15 2.45,0 4.47,0.58 6.05,1.73 l 0.14,0.14 0.43,0.43 c 0.32,0.3 0.61,0.64 0.86,1.01 1.44,1.73 2.31,2.31 3.6,2.31 h 5.48 c -0.43,-3.31 -1.87,-6.05 -4.32,-8.21 -3.03,-2.31 -7.2,-3.46 -12.39,-3.46 -4.75,0 -8.65,1.15 -11.67,3.46 -2.74,2.45 -4.18,5.33 -4.18,9.08 0,2.88 0.86,5.04 2.74,6.77 1.73,1.73 5.33,3.31 10.66,4.61 h 0.14 c 0.86,0.29 2.31,0.58 4.18,0.86 2.02,0.43 7.78,1.58 7.78,5.48 0,1.15 -0.43,2.88 -2.45,4.03 -1.58,0.86 -3.46,1.3 -5.62,1.3 -2.88,0 -5.33,-0.58 -7.06,-1.73 -1.58,-1.15 -2.45,-2.59 -2.74,-4.61 h -8.5 c 0,3.75 1.44,6.77 4.03,8.79 z"
       id="path1" />
    <path
       class="arsys-gray"
       d="m 194.36,128.96 c 1.73,-1.3 3.17,-3.46 4.32,-6.48 l 15.27,-43.23 h -5.91 c -2.16,0 -3.46,0.86 -3.89,2.74 l -8.5,27.81 -9.22,-30.55 h -9.65 L 190.76,117 c 1.15,3.17 0,4.9 -1.01,5.76 -1.44,1.15 -2.74,1.01 -5.62,1.01 h -0.72 v 6.77 h 2.31 c 4.03,0 6.92,-0.14 8.65,-1.58 z"
       id="path2" />
    <path
       class="arsys-gray"
       d="m 144.22,117.29 c 2.74,2.31 7.06,3.46 12.82,3.46 6.05,0 10.66,-1.15 13.54,-3.31 3.03,-2.31 4.61,-5.48 4.61,-9.8 0,-2.88 -0.86,-5.04 -2.59,-6.77 -2.02,-1.73 -5.62,-3.17 -10.81,-4.47 l -3.03,-0.58 c -6.34,-1.3 -9.22,-3.03 -9.22,-5.48 0,-1.73 0.72,-3.03 2.02,-3.89 1.3,-0.72 3.03,-1.15 5.48,-1.15 2.45,0 4.47,0.58 6.05,1.73 l 0.14,0.14 0.43,0.43 c 0.32,0.3 0.61,0.64 0.86,1.01 1.44,1.73 2.31,2.31 3.6,2.31 h 5.48 c -0.43,-3.31 -1.87,-6.05 -4.32,-8.21 -3.03,-2.31 -7.2,-3.46 -12.39,-3.46 -4.75,0 -8.65,1.15 -11.67,3.46 -2.74,2.45 -4.18,5.33 -4.18,9.08 0,2.88 0.86,5.04 2.74,6.77 1.73,1.73 5.33,3.31 10.66,4.61 h 0.14 c 0.86,0.29 2.31,0.58 4.18,0.86 2.02,0.43 7.78,1.58 7.78,5.48 0,1.15 -0.43,2.88 -2.45,4.03 -1.58,0.86 -3.46,1.3 -5.62,1.3 -2.88,0 -5.33,-0.58 -7.06,-1.73 -1.58,-1.15 -2.45,-2.59 -2.74,-4.61 h -8.5 c 0,3.75 1.44,6.77 4.03,8.79 z"
       id="path3" />
    <path
       class="arsys-gray"
       d="m 120.59,99.28 v 21.61 h -9.51 v -20.17 c 0,-4.18 0.72,-7.64 2.02,-10.37 1.3,-2.73 3.31,-4.9 5.62,-6.48 2.31,-1.58 5.04,-2.74 8.21,-3.46 3.21,-0.75 6.5,-1.13 9.8,-1.15 v 7.92 h -2.31 c -4.47,0 -7.78,1.01 -10.09,3.03 -2.45,1.73 -3.75,4.9 -3.75,9.08 z"
       id="path4" />
    <path
       class="arsys-gray"
       d="m 100.13,82.13 c -3.03,-1.87 -7.78,-2.88 -13.98,-2.88 -5.48,0 -9.65,1.15 -12.54,3.46 -1.62,1.1 -2.88,2.65 -3.6,4.47 -0.29,0.43 -0.29,1.44 1.15,1.44 h 7.64 c 0.72,-1.15 1.87,-1.87 3.31,-2.16 1.54,-0.47 3.14,-0.71 4.75,-0.72 1.8,-0.03 3.6,0.22 5.33,0.72 2.45,0.72 3.6,2.31 3.6,4.32 0,4.18 -6.63,5.04 -8.79,5.33 l -4.9,0.58 c -4.18,0.58 -7.78,1.73 -10.37,3.6 -2.59,1.73 -3.75,4.61 -3.75,8.65 0,4.47 1.44,7.49 4.18,9.37 2.88,1.87 6.34,2.88 10.23,2.88 l 7.06,-0.43 c 2.59,-0.29 5.04,-0.86 7.35,-2.02 2.02,-1.01 3.89,-2.59 5.48,-4.75 1.58,-2.31 2.31,-5.33 2.31,-9.37 V 90.07 c 0,-3.46 -1.44,-6.05 -4.47,-7.92 z m -4.18,22.05 c 0,3.31 -1.01,6.05 -3.17,7.92 -2.16,1.87 -4.9,2.88 -8.5,2.88 -2.31,0 -4.03,-0.58 -5.33,-1.58 -1.3,-1.15 -2.02,-2.74 -2.02,-4.75 0,-1.44 0.14,-3.17 1.58,-4.47 1.15,-1.01 2.74,-1.73 5.04,-2.31 l 4.03,-0.86 c 2.74,-0.58 4.9,-1.3 6.48,-2.02 l 1.73,-0.86 h 0.14 v 6.05 z"
       id="path5" />
  </g>
</svg>
