<?xml version="1.0" encoding="UTF-8"?>
<svg xmlns="http://www.w3.org/2000/svg" id="home-pl" viewBox="0 0 320 200">
  <defs>
    <style>.home-pl-red{fill:#e20000;}.home-pl-gray{fill:#1b1b1b;}</style>
  </defs>
  <polygon class="home-pl-gray" points="247.05 121.13 257.5 121.13 257.5 75.68 247.05 75.68 247.05 121.13 247.05 121.13"></polygon>
  <path class="home-pl-gray" d="M233.24,88.08c-2.45,0-4.77,1.29-6.71,3.74v-2.84h-10.2v41.83h10.45v-12.52c1.68,1.94,3.61,2.97,6.19,2.97,6.71-.13,10.97-6.2,10.97-17.43,0-10.2-4-15.75-10.71-15.75ZM230.4,115.32c-1.03,0-2.19-.65-3.36-1.94v-17.3c1.16-1.29,2.32-1.94,3.36-1.94,2.84.13,2.84,3.36,2.84,10.59s0,10.59-2.84,10.59Z"></path>
  <polygon class="home-pl-gray" points="200.85 121.13 211.94 121.13 211.94 109.64 200.85 109.64 200.85 121.13 200.85 121.13"></polygon>
  <path class="home-pl-red" d="M196.59,104.73c0-10.72-4.9-16.66-13.42-16.66s-14.32,6.33-14.32,16.66,5.68,17.17,14.58,17.17c5.81,0,10.32-2.97,12.91-8.78l-7.1-2.58c-1.16,2.97-3.23,4.52-5.42,4.52-2.97,0-4.65-2.71-4.65-7.88h17.42v-2.45M186.78,100.86h-7.87v-.39c0-3.74,1.55-5.68,4-5.68s3.87,1.94,3.87,5.55v.52"></path>
  <path class="home-pl-gray" d="M165.87,121.13v-24.79c0-5.68-2.06-8.39-6.84-8.39-3.36,0-6.19,1.68-9.03,5.04-.65-3.23-3.1-5.04-6.58-5.04s-5.94,1.55-8.9,4.65v-3.87h-10.45v32.28h10.45v-23.37c1.29-1.42,2.32-2.07,3.36-2.07,1.55,0,1.94,1.16,1.94,3.49v22.08h10.32v-23.37c1.16-1.42,2.32-2.07,3.36-2.07,1.55,0,1.94,1.16,1.94,3.49v22.08h10.45v-.13h0Z"></path>
  <path class="home-pl-gray" d="M106.38,88.08c-8.9,0-14.58,6.2-14.58,16.91s5.68,16.91,14.58,16.91,14.58-6.2,14.58-16.91-5.55-16.91-14.58-16.91ZM106.25,115.06c-2.97,0-3.61-3.23-3.61-10.07s.77-10.07,3.61-10.07c3.1,0,3.61,3.23,3.61,10.07s-.65,10.07-3.61,10.07Z"></path>
  <path class="home-pl-gray" d="M88.7,121.13v-24.79c0-5.55-2.19-8.39-6.84-8.39-3.36,0-6.07,1.55-8.9,4.65v-17.04h-10.45v45.45h10.45v-23.37c1.29-1.42,2.32-2.07,3.36-2.07,1.55,0,1.94,1.16,1.94,3.49v22.08h10.45Z"></path>
</svg>
