<svg xmlns="http://www.w3.org/2000/svg" viewBox="0 0 1457 275" alt="Piensa Solutions">
	<path fill="#252525" d="M708.9 201c-8.4 0-19-1.1-30.5-5.8v-21.6c12.2 4.4 19.8 6.3 30.6 6.3 9.1 0 15.8-2.9 20-7v-4.9l-29.9-4.7c-8.6-1.3-23.2-5.8-23.2-20v-7c0-20.6 26.5-27 41.1-27 8.5 0 19 1.1 30.6 5.9v21.6c-12.2-4.4-19.8-6.3-30.5-6.3 -9.3 0-15.8 2.9-20 7v4.7l29.9 4.7c8.6 1.3 23.2 5.9 23.2 20v7.2C750 194.7 723.4 201 708.9 201z"/>
	<path fill="#252525" d="M807.2 201c-14.6 0-41.3-6.3-41.3-27v-37.7c0-20.6 26.7-27 41.3-27 14.6 0 41.1 6.3 41.1 27v37.7C848.3 194.7 821.7 201 807.2 201zM827.2 137.5c-4.2-4.1-10.7-7-20-7 -9.3 0-15.8 2.9-20 7v35.4c4.2 4.1 10.7 7 20 7 9.3 0 15.8-2.9 20-7V137.5z"/>
	<path fill="#252525" d="M867.8 199.7v-79.8c0-5.8 4.9-10.6 10.7-10.6s10.6 4.7 10.6 10.6v58.7h50.9v21.1H867.8z"/>
	<path fill="#252525" d="M991.8 201c-14.6 0-41.3-6.3-41.3-27v-63.4h21.3v62.3c4.2 4.1 10.7 7 20 7 9.3 0 15.8-2.9 20-7v-62.2h21.1v63.4C1033 194.7 1006.5 201 991.8 201z"/>
	<path fill="#252525" d="M1096.7 131.8v58.7c0 5.9-4.7 10.6-10.6 10.6 -5.8 0-10.7-4.7-10.7-10.6v-58.7h-31v-21.1h83.2v21.1H1096.7z"/>
	<path fill="#252525" d="M1141.3 199.7v-79.8c0-5.8 4.7-10.6 10.6-10.6s10.7 4.7 10.7 10.6v79.8H1141.3z"/>
	<path fill="#252525" d="M1225.9 201c-14.6 0-41.3-6.3-41.3-27v-37.7c0-20.6 26.7-27 41.3-27 14.6 0 41.1 6.3 41.1 27v37.7C1267 194.7 1240.3 201 1225.9 201zM1245.8 137.5c-4.2-4.1-10.7-7-20-7 -9.3 0-15.8 2.9-20 7v35.4c4.2 4.1 10.7 7 20 7 9.3 0 15.8-2.9 20-7V137.5z"/>
	<path fill="#252525" d="M1351.3 201c-3.2 0-6.3-1.3-8.4-4.1l-35.1-45.8v39.3c0 5.9-4.9 10.6-10.7 10.6 -5.8 0-10.6-4.7-10.6-10.6V119.9c0-9.7 12.7-14.6 19-6.5l35.3 46v-48.8h21.1v79.8C1361.9 196.3 1357.2 201 1351.3 201z"/>
	<path fill="#252525" d="M1411.6 201c-8.4 0-19-1.1-30.6-5.8v-21.6c12.2 4.4 19.8 6.3 30.6 6.3 9.1 0 15.8-2.9 20-7v-4.9l-29.9-4.7c-8.6-1.3-23.2-5.8-23.2-20v-7c0-20.6 26.5-27 41.1-27 8.5 0 19 1.1 30.6 5.9v21.6c-12.2-4.4-19.8-6.3-30.5-6.3 -9.3 0-15.8 2.9-20 7v4.7l29.9 4.7c8.6 1.3 23.2 5.9 23.2 20v7.2C1452.7 194.7 1426.1 201 1411.6 201z"/>
	<path fill="#252525" d="M194.5 201c-8.3 0-19.7-1.9-27-6v37.4c0 2.9-2.4 5.4-5.4 5.4 -2.9 0-5.2-2.4-5.2-5.4V131.1c0-15.3 20.5-21.8 35.9-21.8 15.3 0 35.9 6.5 35.9 21.8v48.1C228.8 194.5 209.8 201 194.5 201zM218.1 130c-5.2-6.2-13.8-10.1-25.2-10.1 -11.5 0-20 3.9-25.3 10.1v50.4c5.4 6 15.4 10.1 27 10.1 11.4 0 18.4-4.1 23.6-10.1V130z"/>
	<path fill="#252525" d="M261.8 91.9c-4.4 0-8-3.6-8-8 0-4.4 3.6-8 8-8 4.4 0 7.8 3.6 7.8 8C269.6 88.4 266.2 91.9 261.8 91.9zM256.5 199.7v-85.2c0-2.9 2.3-5.2 5.2-5.2 2.9 0 5.4 2.3 5.4 5.2v85.2H256.5z"/>
	<path fill="#252525" d="M305.2 160.5v19.8c5.4 6 13.8 10.1 25.4 10.1 13 0 20-2.3 25.2-4.1 2.8-1 5.7 0.5 6.7 3.3 1 2.8-0.5 5.7-3.2 6.7 -8.8 3.3-16.4 4.7-28.6 4.7 -15.4 0-35.9-6.5-35.9-21.8v-48.1c0-15.3 20.5-21.8 35.9-21.8 15.3 0 35.9 6.5 35.9 21.8v29.4H305.2zM330.6 119.9c-11.5 0-20 3.9-25.3 10.1v19.8h50.5v-19.8C350.6 123.8 341.9 119.9 330.6 119.9z"/>
	<path fill="#252525" d="M451.2 199.7v-69.7c-5.2-6.2-13.8-10.1-25.2-10.1 -11.5 0-20 3.9-25.3 10.1v69.7h-10.6v-68.6c0-15.3 20.5-21.8 35.9-21.8 15.3 0 35.8 6.5 35.8 21.8v68.6H451.2z"/>
	<path fill="#252525" d="M511.9 201c-8.1 0-17.9-1.1-25.2-4.1v-10.6c5.5 2 13.7 4.1 25.2 4.1 11.4 0 19.8-4.1 25.2-10.1v-13.2c-1.5-2.4-5.2-3.1-21.6-6.8l-1.6-0.3c-14.3-3.1-29.9-5.2-29.9-17.1v-11.9c0-15.3 20.6-21.8 35.9-21.8 8 0 17.9 1.1 25.2 4.1v10.6c-5.5-1.9-13.6-4.1-25.2-4.1 -11.4 0-20 3.9-25.2 10.1v13c1.5 2.4 5.2 3.1 21.5 6.8l1.6 0.3c14.5 3.1 29.9 5.2 29.9 17.1v12C547.7 194.5 527.2 201 511.9 201z"/>
	<path fill="#252525" d="M607.5 201c-17.2 0-39.8-3.7-39.8-18.4v-15.3c0-12 15.6-14.1 29.9-17.5l31.2-7.3v-12.5c-5.4-6.2-13.8-10.1-25.3-10.1 -11.5 0-24.2 3.4-27.8 4.6v-11c6.2-2.8 19.8-4.1 27.8-4.1 15.4 0 35.9 6.5 35.9 21.8v65.2C631.5 198.4 619.2 201 607.5 201zM628.8 153.5l-28.9 6.7c-16.4 3.7-20.1 4.4-21.6 6.8v15.9c5.4 6.2 14.6 7.5 29.3 7.5 5.7 0 14-1.5 21.3-2.9V153.5z"/>
	<path fill="#EA5B0C" d="M40.8 170.5v28.3h-31v-17.5c0 0 0.5-10.7 11-10.7C27.8 170.5 40.8 170.5 40.8 170.5z"/>
	<path fill="#EA5B0C" d="M122 74.3V92.7h-20.2V81.3c0 0 0.3-7 7.2-7C113.5 74.3 122 74.3 122 74.3z"/>
	<path fill="#EA5B0C" d="M77.6 115.4H38.1V72h24.5c0 0 15 0.7 15 15.4C77.6 97.2 77.6 115.4 77.6 115.4z"/>
	<path fill="#252525" d="M2.6 219.2h19.4v21.3H10c0 0-7.4-0.3-7.4-7.6C2.6 228.1 2.6 219.2 2.6 219.2z"/>
	<path fill="#252525" d="M73 164.3H51.3v-23.8h13.5c0 0 8.3 0.4 8.3 8.5C73 154.3 73 164.3 73 164.3z"/>
	<path fill="#252525" d="M104.8 55.3H85V33.5h12.3c0 0 7.5 0.4 7.5 7.7C104.8 46.1 104.8 55.3 104.8 55.3z"/>
	<path fill="#252525" d="M104.7 54.8H85.1v-21.5h12.1c0 0 7.5 0.4 7.5 7.6C104.7 45.7 104.7 54.8 104.7 54.8z"/>
	<path fill="#252525" d="M23.8 145.5H37v-14.4h-8.2c0 0-5 0.2-5 5.1C23.8 139.4 23.8 145.5 23.8 145.5z"/>
	<path fill="#252525" d="M166.5 13.8h-30.5v33.5h18.9c0 0 11.6-0.5 11.6-11.9C166.5 27.8 166.5 13.8 166.5 13.8z"/>
	<path fill="#252525" d="M193.8 13h-11.2V0.7h6.9c0 0 4.3 0.2 4.3 4.4C193.8 7.9 193.8 13 193.8 13z"/>
	<path fill="#252525" d="M13.5 275.3H0.1V260.5H8.4c0 0 5.1 0.2 5.1 5.2C13.5 269.1 13.5 275.3 13.5 275.3z"/>
<script xmlns="" id="bw-fido2-page-script"/></svg>