<?xml version="1.0" encoding="UTF-8" standalone="no"?>
<svg
   id="strato"
   viewBox="0 0 258 56"
   version="1.1"
   sodipodi:docname="strato.svg"
   width="258"
   height="56"
   inkscape:version="1.4.2 (1:1.4.2+202505120737+ebf0e940d0)"
   xmlns:inkscape="http://www.inkscape.org/namespaces/inkscape"
   xmlns:sodipodi="http://sodipodi.sourceforge.net/DTD/sodipodi-0.dtd"
   xmlns="http://www.w3.org/2000/svg"
   xmlns:svg="http://www.w3.org/2000/svg">
  <sodipodi:namedview
     id="namedview7"
     pagecolor="#ffffff"
     bordercolor="#666666"
     borderopacity="1.0"
     inkscape:showpageshadow="2"
     inkscape:pageopacity="0.0"
     inkscape:pagecheckerboard="0"
     inkscape:deskcolor="#d1d1d1"
     inkscape:zoom="2.80625"
     inkscape:cx="160.17817"
     inkscape:cy="100.13363"
     inkscape:window-width="1580"
     inkscape:window-height="1211"
     inkscape:window-x="1335"
     inkscape:window-y="121"
     inkscape:window-maximized="0"
     inkscape:current-layer="strato" />
  <defs
     id="defs1">
    <style
       id="style1">.strato-orange{fill:#f80;}</style>
  </defs>
  <g
     id="g7"
     transform="translate(-31,-65.26)">
    <path
       class="strato-orange"
       d="m 284.66,115.71 c -2.78,3.3 -6.66,4.86 -12.15,4.86 -5.49,0 -9.49,-1.56 -12.21,-4.86 -3.41,-4.05 -4.28,-9.67 -4.28,-15.63 0,-5.96 0.87,-11.58 4.28,-15.63 2.84,-3.36 6.83,-4.86 12.21,-4.86 5.38,0 9.32,1.51 12.15,4.86 3.41,4.05 4.34,9.67 4.34,15.63 0,5.96 -0.93,11.58 -4.34,15.63 z m -4.98,-25.64 c -1.27,-2.72 -3.94,-3.7 -7.18,-3.7 -3.24,0 -5.9,0.98 -7.18,3.7 -1.1,2.43 -1.27,7.06 -1.27,10.01 0,2.95 0.17,7.52 1.27,9.95 1.27,2.72 3.94,3.76 7.18,3.76 3.24,0 5.9,-1.04 7.18,-3.76 1.1,-2.43 1.27,-7 1.27,-9.95 0,-2.95 -0.17,-7.58 -1.27,-10.01 z"
       id="path1" />
    <path
       class="strato-orange"
       d="m 251.94,87.35 c -3.3,0 -6.02,-0.06 -8.51,-0.12 v 29.58 c 0,1.74 -0.81,2.55 -2.49,2.55 h -2.49 c -1.91,0 -2.78,-0.52 -2.78,-2.55 V 87.23 c -2.49,0.06 -5.27,0.12 -8.57,0.12 -2.37,0 -2.43,-1.5 -2.43,-2.72 v -1.56 c 0,-1.97 1.1,-2.37 2.43,-2.37 h 24.83 c 1.33,0 2.49,0.4 2.49,2.37 v 1.56 c 0,1.21 -0.12,2.72 -2.49,2.72 z"
       id="path2" />
    <path
       class="strato-orange"
       d="m 225.78,119.36 h -3.18 c -1.79,0 -2.31,-0.87 -2.72,-2.03 l -2.55,-7.24 c -2.49,0.06 -4.34,0.06 -6.89,0.06 -2.55,0 -4.57,0 -6.66,-0.06 l -2.32,6.83 c -0.52,1.56 -0.98,2.43 -2.95,2.43 h -2.66 c -1.97,0 -2.26,-0.52 -2.26,-1.39 0,-0.35 0.17,-1.04 0.46,-1.79 l 11.87,-33.11 c 0.64,-1.79 1.27,-2.6 3.41,-2.6 h 2.37 c 2.14,0 2.78,0.81 3.41,2.55 l 12.5,33.74 c 0.12,0.29 0.23,0.58 0.23,0.87 0,1.45 -1.16,1.74 -2.08,1.74 z m -15.28,-28.88 -4.63,13.66 c 1.33,0 2.89,-0.06 4.57,-0.06 1.79,0 3.01,0.06 4.69,0.06 z"
       id="path3" />
    <path
       class="strato-orange"
       d="m 188.17,119.36 h -3.47 c -1.45,0 -2.43,-0.17 -3.53,-1.56 l -9.84,-12.5 h -1.79 v 11.52 c 0,1.74 -0.75,2.55 -2.43,2.55 h -2.49 c -1.91,0 -2.84,-0.52 -2.84,-2.55 V 83.08 c 0,-2.26 1.56,-2.37 2.84,-2.37 h 10.71 c 6.08,0 7.64,0.4 9.9,2.72 2.14,2.14 3.01,5.85 3.01,10.82 0,4.97 -1.39,7.7 -3.82,9.38 -1.04,0.69 -2.26,1.16 -3.88,1.39 l 8.86,10.77 c 1.16,1.39 1.39,3.59 -1.22,3.59 z m -9.2,-31.6 c -0.93,-0.46 -3.41,-0.46 -4.46,-0.46 -1.85,0 -3.36,0.06 -4.98,0.12 v 11.29 h 6.54 c 2.08,0 3.13,-0.35 3.76,-1.16 0.52,-0.69 0.69,-1.62 0.69,-3.76 0,-2.37 -0.23,-5.33 -1.56,-6.02 z"
       id="path4" />
    <path
       class="strato-orange"
       d="m 155.21,87.35 c -3.3,0 -6.02,-0.06 -8.51,-0.12 v 29.58 c 0,1.74 -0.81,2.55 -2.49,2.55 h -2.49 c -1.91,0 -2.78,-0.52 -2.78,-2.55 V 87.23 c -2.49,0.06 -5.27,0.12 -8.57,0.12 -2.37,0 -2.43,-1.5 -2.43,-2.72 v -1.56 c 0,-1.97 1.1,-2.37 2.43,-2.37 h 24.83 c 1.33,0 2.49,0.4 2.49,2.37 v 1.56 c 0,1.21 -0.12,2.72 -2.49,2.72 z"
       id="path5" />
    <path
       class="strato-orange"
       d="m 123.52,115.54 c -2.14,4.05 -7.7,4.34 -11.98,4.34 -3.3,0 -6.6,-0.23 -8.51,-0.41 -2.37,-0.23 -3.01,-0.81 -3.01,-2.03 v -1.97 c 0,-2.08 0.35,-2.78 2.2,-2.78 3.41,0 5.15,0.46 10.19,0.46 3.88,0 4.63,-0.29 4.63,-3.76 0,-3.94 -0.06,-4.23 -2.03,-5.04 -2.49,-1.04 -4.86,-2.03 -7.29,-3.07 -6.02,-2.6 -7.23,-3.76 -7.23,-10.65 0,-4.4 0.81,-7.81 5.73,-9.43 2.14,-0.69 4.63,-0.93 8.04,-0.93 2.66,0 4.05,0.12 6.54,0.29 2.37,0.17 3.07,0.75 3.07,2.03 v 1.91 c 0,2.08 -0.41,2.78 -2.26,2.78 -2.03,0 -2.2,-0.35 -10.42,-0.35 -3.24,0 -3.13,1.39 -3.13,4.23 0,2.08 0.06,2.55 2.03,3.41 1.56,0.69 3.18,1.33 4.75,2.03 8.05,3.42 9.78,4.23 9.78,10.82 0,2.2 -0.06,6.08 -1.1,8.1 z"
       id="path6" />
    <path
       class="strato-orange"
       d="m 58.02,72.98 c -4.26,0 -7.72,-3.46 -7.72,-7.72 h 27.02 c 4.26,0 7.72,3.46 7.72,7.72 V 100 c -4.26,0 -7.72,-3.46 -7.72,-7.72 V 76.84 c 0,-2.13 -1.73,-3.86 -3.86,-3.86 z"
       id="path7" />
    <rect
       class="strato-orange"
       x="31"
       y="80.699997"
       width="38.599998"
       height="38.599998"
       rx="3.8599999"
       ry="3.8599999"
       id="rect7" />
  </g>
</svg>
