<svg xmlns="http://www.w3.org/2000/svg" viewBox="0 0 48 48">
    <path d="M22.6 18c0 .3-.2.9-.2 1.2l3.2 2.3c.5-.6 1.2-1 2-1 1.4 0 2.5 1.1 2.5 2.5s-1.1 2.5-2.5 2.5-2.5-1.1-2.5-2.5c0-.2 0-.5.1-.7l-3.3-2.4c-.6.6-1.2.7-1.8.7-1.4.1-2.5-1.2-2.5-2.6 0-1.4 1.1-2.5 2.5-2.5.8 0 1.5.4 2 1l3.3-2.4c-.1-.2-.3-.9-.3-1.1 0-1.4 1.1-2.5 2.5-2.5S30 11.6 30 13s-1 2.6-2.4 2.6c-.8 0-1.4-.1-1.9-.7l-3.3 2.3c.1.3.2.5.2.8z"/>
    <path d="M7 31h34c.5 0 1-.5 1-1V5c0-.5-.5-1-1-1H7c-.5 0-1 .6-1 1v25c0 .5.5 1 1 1zM9 8c0-.5.5-1.1 1-1.1h28c.5 0 1 .5 1 1.1v19c.1.7-.3 1-1 1H10c-.5 0-1.1-.5-1-1V8zm38.4 31-5.1-5.7c-.2-.2-.4-.3-.8-.3H6.7c-.4 0-.9.1-1.2.5L.6 39c-.3.2-.6.6-.6 1v2c0 .5.5 1 1 1h46c.5 0 1-.5 1-1v-2c0-.4-.3-.8-.6-1zm-21.2.4-.4.4c-.1.1-.3.2-.6.2h-3.4c-.2 0-.4-.1-.5-.2l-.5-.6c-.2-.4.1-.4.3-.4h4.7c.6.1.6.3.4.6zM39.6 38H8.1c-.4 0-.3-.2-.1-.5l.9-1.3c.1-.1.4-.2.8-.2h28.8c.3 0 .6.1.7.4l.9 1.1c.4.4 0 .5-.5.5z" fill-rule="evenodd" clip-rule="evenodd"/>
</svg>
