<svg viewBox="0 0 20 20" xmlns="http://www.w3.org/2000/svg">
    <path d="M9.91 19.92c-4 0-8.67-.99-8.69-3.77-.02-1.68 1.85-2.34 2.55-2.59l.17-.06c1.83-.68 2.32-1.03 2.96-1.46.13-.09.16-.27.16-.42-.59-.61-.77-1.86-.82-2.54C5.72 8.7 5.43 8 5.36 7c0 0 0 .07-.01-.1-.02-.28-.07-1.1.45-1.52-.05-.81-.05-1.86-.05-2.01C5.87.96 7.98.1 9.91.08h.16c2.51.03 4.06 1.25 4.16 3.26 0 .18 0 1.23-.05 2.05.53.42.47 1.24.45 1.51 0 .02 0 .05-.01.07-.07 1.03-.36 1.73-.87 2.11-.05.68-.23 1.93-.82 2.54 0 .15.03.33.16.42.63.43 1.13.78 2.95 1.46l.18.07c.7.25 2.57.9 2.55 2.59-.03 2.78-4.69 3.76-8.68 3.76h-.17zm.01-1.51h.13c3.98 0 7.2-1.02 7.21-2.28.01-.61-1.08-.99-1.55-1.16l-.21-.07c-1.84-.69-2.46-1.07-3.26-1.62-.89-.61-.88-1.7-.74-2.25.06-.21.2-.39.39-.48.18-.27.36-1.26.38-1.95a.76.76 0 0 1 .54-.7c.01 0 .25-.08.31-1 0-.04.01-.09.01-.14V6.7c-.3-.1-.52-.38-.52-.71 0-.04 0-.09.01-.13.08-.43.1-1.73.1-2.5-.08-1.53-1.71-1.78-2.68-1.79h-.13c-.95.01-2.59.27-2.66 1.83 0 .73.03 2.03.1 2.46.01.04.01.09.01.13 0 .33-.22.62-.52.71v.05c.01.05.01.1.01.14.06.91.3.99.31 1 .32.09.54.39.54.72.03.67.2 1.66.38 1.92.19.1.34.27.39.48.14.55.15 1.64-.74 2.25-.8.55-1.42.93-3.27 1.63l-.21.08c-.46.16-1.55.55-1.55 1.16.01 1.26 3.23 2.28 7.18 2.28zM5.56 7.36s0 .01 0 0zm-.01 0s.01 0 0 0z"/>
</svg>
