<svg xmlns="http://www.w3.org/2000/svg" width="32" height="32">
    <path d="M15.26 18.672c-1.896 0-3.712-1.561-4.048-3.479-.172-.981.055-1.903.638-2.596.561-.668 1.385-1.036 2.32-1.036 1.896 0 3.713 1.56 4.049 3.479.172.98-.054 1.902-.637 2.596-.562.668-1.386 1.037-2.321 1.037zm-1.091-6.222c-.668 0-1.25.255-1.64.719-.411.489-.568 1.154-.443 1.871.265 1.513 1.689 2.744 3.173 2.744.668 0 1.251-.256 1.641-.72.411-.488.568-1.153.442-1.87-.265-1.512-1.688-2.743-3.173-2.743z"/>
    <path d="M29.221 8.76c-.006.002-.121.036-.314.089v.603c.168-.048.32-.092.444-.125V24.01c-.619.267-2.95 1.387-6.223 1.387-1.992 0-3.796-.608-5.705-1.251-2.066-.696-4.201-1.415-6.739-1.415-3.644 0-6.818.875-7.999 1.333v-.447c-.161.112-.245.181-.251.184l-.194.094v1.104l.638-.309c.032-.015 3.189-1.515 7.805-1.515 2.392 0 4.457.696 6.455 1.369 1.98.667 3.851 1.297 5.989 1.297 4.322 0 6.356-1.116 6.441-1.164l.227-.128V8.582l-.575.176z"/>
    <path d="M30.555 10.14c-.006.002-.121.036-.314.089v.603c.168-.048.32-.092.444-.125V25.39c-.619.267-2.95 1.387-6.223 1.387-1.992 0-3.796-.608-5.705-1.251-2.066-.696-4.201-1.416-6.739-1.416-3.644 0-6.818.875-7.999 1.333v-.446c-.161.111-.245.181-.251.184l-.194.093v1.104l.638-.308c.032-.016 3.189-1.516 7.805-1.516 2.392 0 4.457.696 6.455 1.369 1.98.667 3.851 1.297 5.989 1.297 4.322 0 6.356-1.116 6.441-1.164l.227-.127V9.962l-.575.175z"/>
    <path d="M27.853 7.362c-.035.011-3.585 1.083-6.977 1.083-2.821 0-4.588-.681-6.297-1.34-1.694-.653-3.446-1.328-6.14-1.328-5.444 0-7.35 1.94-7.428 2.022l-.122.129v15.673l.638-.308c.032-.015 3.187-1.515 7.8-1.515 2.39 0 4.455.696 6.451 1.368 1.979.668 3.849 1.298 5.985 1.298 4.32 0 6.353-1.116 6.437-1.164l.226-.128V7.185l-.574.176zm-.314 3.345a2.766 2.766 0 0 1-2.018-1.87c.852-.167 1.56-.341 2.018-.464v2.333zM4.25 7.173c.003.05.012.099.012.15 0 1.416-1.082 2.589-2.484 2.79V8.308c.278-.221 1.044-.739 2.472-1.134zM1.778 19.448c1.136.164 2.075.965 2.389 2.041a18.444 18.444 0 0 0-2.389.734v-2.775zm14.285 2.856c-2.064-.696-4.199-1.415-6.735-1.415-1.739 0-3.266.2-4.519.458-.383-1.363-1.588-2.377-3.031-2.546v-8.055c1.761-.205 3.131-1.661 3.131-3.424 0-.104-.015-.204-.024-.305.94-.205 2.11-.351 3.556-.351 2.528 0 4.127.616 5.82 1.268 1.784.688 3.63 1.399 6.616 1.399 1.409 0 2.824-.173 4.025-.382a3.394 3.394 0 0 0 2.637 2.4v8.791c-1.696.22-3.014 1.58-3.069 3.242-.764.102-1.664.171-2.706.171-1.991 0-3.793-.608-5.701-1.251zm9.059.98c.1-1.277 1.112-2.312 2.417-2.52v1.849c-.362.156-1.162.452-2.417.672z"/>
</svg>
