<svg xmlns="http://www.w3.org/2000/svg" width="32" height="32">
    <path fill="#c1cad6" d="M15.994 0c-2.048 2.712-5.506 4.072-8.924 4.072C5.304 4.072 2 4 2 4s.514 8.206 1.284 12.728c.392 2.48.776 5.406 2.138 7.574 1.196 2.09 3.052 3.798 5.046 5.122a22.213 22.213 0 0 0 4.874 2.436c.272.098.482.14.674.14.332 0 .614-.126 1.1-.312 3.94-1.51 8.172-4.284 9.91-8.274 1.568-3.55 1.912-7.768 2.312-11.58C29.648 8.892 30 4 30 4s-3.316.072-5.082.072c-3.42 0-6.878-1.358-8.924-4.072zm0 2.908c2.318 2.01 5.508 3.164 8.924 3.164.806 0 1.93-.014 2.922-.032-.13 1.666-.318 3.946-.492 5.586l-.084.814c-.362 3.518-.738 7.154-2.072 10.176-1.81 4.154-6.752 6.422-8.79 7.204l-.168.064-.228.09a20.143 20.143 0 0 1-4.432-2.216c-2.002-1.33-3.488-2.826-4.458-4.52-1.054-1.676-1.438-4.144-1.778-6.322l-.082-.524c-.504-2.962-.902-7.63-1.108-10.352.99.018 2.116.032 2.922.032 3.414 0 6.604-1.154 8.924-3.164zm6.764 7.304a.728.728 0 0 0-1.026 0l-7.914 7.99-3.548-3.59a.733.733 0 0 0-1.03 0l-1.026 1.026a.72.72 0 0 0 0 1.026l5.09 5.124a.733.733 0 0 0 1.03 0l9.452-9.526a.722.722 0 0 0 0-1.024l-1.028-1.026z"/>
</svg>
