<svg xmlns="http://www.w3.org/2000/svg" id="ionos" version="1.1" viewBox="0 0 685 200">
	<path id="path1" fill="#003d8f" stroke-width="3.704" d="M630.829 199.39c-3.075 0-6.89-.518-9.928-1.26-14.52-3.074-27.003-11.964-34.375-24.447v-.518c-3.815-7.372-1.259-16.299 5.594-20.114 2.556-1.26 5.112-1.778 7.371-1.778 5.593 0 10.705 3.074 13.261 7.371l.519.519 1.778 1.778 1.778 1.778c2.556 2.556 6.371 3.815 9.927 5.111 5.593 1.26 11.965 0 16.817-3.815 5.112-3.815 8.15-9.409 8.668-15.039.518-6.371-1.778-12.483-5.593-16.298 0 0-45.6-46.858-47.636-49.414-1.26-1.26-3.075-3.075-5.594-6.371-6.37-9.41-8.149-20.114-7.371-30.079.519-7.37 2.556-14.52 6.371-21.41 0 0 1.778-3.815 2.556-4.334 2.556-3.815 6.89-8.149 10.705-10.705 3.075-2.556 7.372-4.334 8.668-5.112 8.668-4.333 20.114-6.37 31.337-3.815 13.743 3.075 26.226 11.965 33.116 23.707 1.778 3.074 2.556 7.371 1.778 11.224-1.26 3.815-3.815 7.371-6.89 9.408-2.556 1.26-5.112 1.778-7.371 1.778-5.594 0-10.705-3.074-13.261-7.371-3.075-5.112-7.372-8.15-13.261-9.409-5.853-1.26-11.224 0-16.299 3.816-4.334 3.074-6.89 8.149-7.371 14.52-.519 5.593 1.26 11.224 5.593 15.04l46.377 47.635c9.927 10.705 15.557 24.966 14.52 39.487-1.26 15.039-8.668 28.263-20.114 36.93-9.667 7.372-20.891 11.224-31.596 11.224m-147.316-.037c-27.522 0-50.192-22.41-50.192-50.192V50.852c0-27.522 22.41-50.192 50.192-50.192 27.781 0 50.192 22.41 50.192 50.192v98.828c0 27.263-22.67 49.673-50.192 49.673m0-168.318c-10.705 0-20.114 8.667-20.114 20.113v98.828c0 11.224 8.668 20.114 20.114 20.114 10.705 0 20.114-8.668 20.114-20.114V51.148c0-10.705-9.409-20.113-20.114-20.113M371.498 159.903V15.96c0-8.668-6.89-15.04-15.039-15.04-8.668 0-15.039 6.89-15.039 15.04v82.01l30.078 61.897zM288.45 9.883s0-.777 0 0c-2.556-5.111-8.15-8.667-13.743-8.667-1.259 0-1.778 0-3.074.518-6.89 1.26-11.965 7.372-11.965 14.52v3.816l82.53 171.43c2.556 5.112 8.15 8.15 13.26 8.15 1.26 0 2.557 0 3.816-.52 6.89-1.259 11.965-7.37 11.965-14.52v-3.074c-.26-.26-80.492-167.355-82.789-171.69m1.26 93.272v81.27c0 8.668-6.89 15.04-15.04 15.04-8.149 0-15.039-6.89-15.039-15.04V40.443ZM146.801 199.39c-13.261 0-25.744-5.112-35.153-14.52-9.409-9.409-14.52-21.892-14.52-35.153V50.889c0-13.26 5.111-25.744 14.52-35.153 9.409-9.408 21.892-14.52 35.153-14.52 13.26 0 25.744 5.112 35.152 14.52 9.41 9.409 14.52 21.892 14.52 35.153v98.828c0 13.26-5.11 25.744-14.52 35.153-9.408 9.408-21.891 14.52-35.152 14.52m0-168.355c-5.112 0-9.928 1.778-13.743 5.593-3.815 3.815-5.593 8.668-5.593 13.742v98.828c0 5.594 1.778 10.705 5.593 13.743 3.815 3.815 8.668 5.593 13.743 5.593 5.074 0 9.927-1.778 13.742-5.593 3.816-3.815 5.594-8.668 5.594-13.743V50.852c0-5.112-1.778-9.927-5.594-13.743-3.556-3.556-8.668-6.111-13.742-6.111M17.377 199.39c-9.408 0-16.298-7.371-16.298-16.298V16.736C1.079 8.07 8.45.438 17.377.438c7.372 0 13.743 5.112 15.558 11.965v169.652c1.26 9.927-6.371 17.335-15.558 17.335"/>
</svg>
