<svg xmlns="http://www.w3.org/2000/svg" fill="none" viewBox="0 0 64 64"><path fill="#95caeb" d="M32 8.465A11.97 11.97 0 0 0 22.667 4c-6.628 0-12 5.372-12 12 0 1.139.169 2.236.465 3.279C6.982 20.739 4 24.683 4 29.333c0 3.58 1.77 6.742 4.476 8.676A12 12 0 0 0 8 41.333c0 5.446 3.63 10.038 8.601 11.504C18.052 57.004 22.005 60 26.667 60c1.945 0 3.762-.53 5.333-1.439z"/><path fill="#1474c4" d="M32 8.465A11.97 11.97 0 0 1 41.333 4c6.628 0 12 5.372 12 12 0 1.139-.169 2.236-.465 3.279C57.018 20.739 60 24.683 60 29.333c0 3.58-1.77 6.742-4.476 8.676A12 12 0 0 1 56 41.333c0 5.446-3.63 10.038-8.601 11.504C45.948 57.004 41.995 60 37.333 60c-1.945 0-3.762-.53-5.333-1.439z"/><path fill="#fff" d="M51.333 25.333c-.678 0-1.308.206-1.836.555l-6.053-6.053c.35-.527.555-1.158.555-1.836a3.336 3.336 0 0 0-3.334-3.334A3.336 3.336 0 0 0 37.332 18a3.34 3.34 0 0 0 2.667 3.265v21.468a3.34 3.34 0 0 0-2.667 3.265 3.336 3.336 0 0 0 3.333 3.334A3.336 3.336 0 0 0 44 45.997a3.34 3.34 0 0 0-2.667-3.265V21.265a3.3 3.3 0 0 0 1.17-.488l6.053 6.054A3.3 3.3 0 0 0 48 28.667 3.336 3.336 0 0 0 51.333 32a3.336 3.336 0 0 0 3.334-3.333 3.336 3.336 0 0 0-3.334-3.334M38.667 18c0-1.103.897-2 2-2s2 .897 2 2-.898 2-2 2c-1.103 0-2-.897-2-2m4 28c0 1.103-.898 2-2 2-1.103 0-2-.897-2-2s.897-2 2-2 2 .897 2 2m8.666-15.333c-1.102 0-2-.898-2-2 0-1.103.898-2 2-2 1.103 0 2 .897 2 2s-.897 2-2 2"/><path fill="#001b41" d="M19.333 40a.667.667 0 0 1-.666-.667c0-4.778-3.888-8.666-8.667-8.666a.667.667 0 0 1 0-1.334c5.515 0 10 4.486 10 10a.667.667 0 0 1-.667.667M32 22.667h-.667c-4.778 0-8.666-3.888-8.666-8.667a.667.667 0 0 0-1.334 0c0 2.31.795 4.432 2.114 6.125A6.01 6.01 0 0 0 18.667 26 .667.667 0 0 0 20 26c0-2.539 2.041-4.603 4.568-4.657A9.95 9.95 0 0 0 31.333 24H32zm0 18.666h-.667c-4.778 0-8.666 3.888-8.666 8.667A.667.667 0 0 0 24 50c0-4.043 3.29-7.333 7.333-7.333H32z"/></svg>