<svg viewBox="0 0 64 64" fill="none" xmlns="http://www.w3.org/2000/svg">
<path d="M2.66669 12C2.66669 11.264 3.26402 10.6667 4.00002 10.6667H60C60.736 10.6667 61.3334 11.264 61.3334 12V16H2.66669V12Z" fill="#1474C4"/>
<path d="M2.66669 16H61.3334V52C61.3334 52.736 60.736 53.3333 60 53.3333H4.00002C3.26402 53.3333 2.66669 52.736 2.66669 52V16Z" fill="#95CAEB"/>
<path d="M4.66669 13.3333C4.66669 12.9653 4.96535 12.6667 5.33335 12.6667C5.70135 12.6667 6.00002 12.9653 6.00002 13.3333C6.00002 13.7013 5.70135 14 5.33335 14C4.96535 14 4.66669 13.7013 4.66669 13.3333ZM10.6667 14C11.0347 14 11.3334 13.7013 11.3334 13.3333C11.3334 12.9653 11.0347 12.6667 10.6667 12.6667C10.2987 12.6667 10 12.9653 10 13.3333C10 13.7013 10.2987 14 10.6667 14ZM8.00002 14C8.36802 14 8.66669 13.7013 8.66669 13.3333C8.66669 12.9653 8.36802 12.6667 8.00002 12.6667C7.63202 12.6667 7.33335 12.9653 7.33335 13.3333C7.33335 13.7013 7.63202 14 8.00002 14Z" fill="white"/>
<path d="M54 21.3333H36.6667C36.2987 21.3333 36 21.0347 36 20.6667C36 20.2987 36.2987 20 36.6667 20H54C54.368 20 54.6667 20.2987 54.6667 20.6667C54.6667 21.0347 54.368 21.3333 54 21.3333ZM54.6667 24.6667C54.6667 24.2987 54.368 24 54 24H36.6667C36.2987 24 36 24.2987 36 24.6667C36 25.0347 36.2987 25.3333 36.6667 25.3333H54C54.368 25.3333 54.6667 25.0347 54.6667 24.6667ZM49.3333 28.6667C49.3333 28.2987 49.0347 28 48.6667 28H36.6667C36.2987 28 36 28.2987 36 28.6667C36 29.0347 36.2987 29.3333 36.6667 29.3333H48.6667C49.0347 29.3333 49.3333 29.0347 49.3333 28.6667Z" fill="#001B41"/>
<path d="M33.3334 20H6.66669V49.3333H33.3334V20Z" fill="#1474C4"/>
<path d="M46.6667 53.3333L44 42.6667L54.6667 45.3333L52 48L56 52L53.3333 54.6667L49.3333 50.6667L46.6667 53.3333Z" fill="#001B41"/>
<path d="M38.6667 40C37.1933 40 36 38.8067 36 37.3333C36 35.86 37.1933 34.6667 38.6667 34.6667H46.6667C48.14 34.6667 49.3333 35.86 49.3333 37.3333C49.3333 38.8067 48.14 40 46.6667 40H38.6667Z" fill="#1474C4"/>
</svg>
