<svg xmlns="http://www.w3.org/2000/svg" width="96" height="96" fill="none">
    <path fill="#0FA954" d="M10 12a2 2 0 0 1 2-2h72a2 2 0 0 1 2 2v6H10v-6Z"/>
    <path fill="#46EFA0" d="M10 18h76v46a2 2 0 0 1-2 2H12a2 2 0 0 1-2-2V18Z"/>
    <path fill="#0FA954" d="M16 24h30v36H16V24Z"/>
    <path fill="#001B41"
          d="M79 26H51a1 1 0 0 1 0-2h28a1 1 0 0 1 0 2Zm1 5a1 1 0 0 0-1-1H51a1 1 0 0 0 0 2h28a1 1 0 0 0 1-1Zm-8 6a1 1 0 0 0-1-1H51a1 1 0 0 0 0 2h20a1 1 0 0 0 1-1Z"/>
    <path fill="#fff"
          d="M13 14a1 1 0 1 1 2 0 1 1 0 0 1-2 0Zm9 1a1 1 0 1 0 0-2 1 1 0 0 0 0 2Zm-4 0a1 1 0 1 0 0-2 1 1 0 0 0 0 2Z"/>
    <path fill="#001B41"
          d="M68 71v-6l-4.698-1.678a15.862 15.862 0 0 0-1.176-2.83l2.138-4.512-4.242-4.242-4.512 2.138a15.862 15.862 0 0 0-2.83-1.176l-1.678-4.698h-6L43.324 52.7c-.988.302-1.934.698-2.83 1.176l-4.512-2.138-4.242 4.242 2.138 4.512a15.862 15.862 0 0 0-1.176 2.83L28.004 65v6l4.698 1.678c.302.988.698 1.934 1.176 2.83L31.74 80.02l4.242 4.242 4.512-2.138c.896.478 1.842.874 2.83 1.176l1.678 4.698h6L52.68 83.3a15.862 15.862 0 0 0 2.83-1.176l4.512 2.138 4.242-4.242-2.138-4.512c.478-.896.874-1.842 1.176-2.83L68 71Z"/>
    <path fill="#46EFA0"
          d="M45.334 77c-.334 0-.646-.168-.832-.446l-5.334-8a1 1 0 1 1 1.664-1.108l4.502 6.752 9.834-14.752c.308-.46.932-.58 1.386-.278.458.306.584.928.278 1.386l-10.666 16a1.002 1.002 0 0 1-.832.446Z"/>
</svg>