<svg xmlns="http://www.w3.org/2000/svg" id="arsys" version="1.1" viewBox="0 0 720 200">
	<path fill="#323232" stroke-width="3.853" d="M590.855 148.378c10.557 8.9 27.202 13.331 49.395 13.331 23.311 0 41.074-4.43 52.17-12.753 11.675-8.9 17.763-21.115 17.763-37.76 0-11.096-3.314-19.419-9.98-26.084-7.783-6.666-21.654-12.214-41.65-17.223l-11.675-2.235c-24.428-5.009-35.525-11.675-35.525-21.115 0-6.665 2.774-11.674 7.783-14.988 5.009-2.774 11.675-4.43 21.114-4.43 9.44 0 17.223 2.234 23.311 6.665l.54.54 1.656 1.656a22.974 22.974 0 0 1 3.314 3.892c5.548 6.665 8.9 8.9 13.87 8.9h21.115c-1.656-12.753-7.205-23.31-16.645-31.633C675.737 6.24 659.67 1.81 639.673 1.81c-18.302 0-33.329 4.43-44.965 13.33-10.557 9.44-16.106 20.537-16.106 34.986 0 11.097 3.314 19.42 10.558 26.085 6.665 6.666 20.536 12.754 41.073 17.763h.54c3.313 1.117 8.9 2.234 16.105 3.313 7.783 1.657 29.976 6.088 29.976 21.115 0 4.43-1.657 11.096-9.44 15.527-6.088 3.314-13.331 5.01-21.654 5.01-11.096 0-20.536-2.236-27.202-6.667-6.088-4.43-9.44-9.979-10.557-17.762h-32.75c0 14.449 5.548 26.085 15.527 33.868zm-102.721 44.965c6.665-5.01 12.214-13.332 16.645-24.968L563.614 1.81h-22.771c-8.323 0-13.332 3.313-14.988 10.557l-32.751 107.152-35.525-117.71h-37.181l53.865 145.452c4.43 12.214 0 18.88-3.892 22.193-5.548 4.43-10.557 3.892-21.654 3.892h-2.774v26.084h8.9c15.528 0 26.663-.539 33.33-6.087zm-193.19-44.965c10.557 8.9 27.202 13.331 49.395 13.331 23.311 0 41.073-4.43 52.17-12.753 11.675-8.9 17.762-21.115 17.762-37.76 0-11.096-3.313-19.419-9.979-26.084-7.783-6.666-21.654-12.214-41.65-17.223l-11.675-2.235c-24.429-5.009-35.525-11.675-35.525-21.115 0-6.665 2.774-11.674 7.783-14.988 5.009-2.774 11.674-4.43 21.114-4.43 9.44 0 17.223 2.234 23.311 6.665l.54.54 1.656 1.656a22.974 22.974 0 0 1 3.314 3.892c5.548 6.665 8.9 8.9 13.87 8.9h21.115c-1.657-12.753-7.205-23.31-16.645-31.633C379.826 6.24 363.76 1.81 343.761 1.81c-18.301 0-33.328 4.43-44.964 13.33-10.557 9.44-16.106 20.537-16.106 34.986 0 11.097 3.314 19.42 10.557 26.085 6.666 6.666 20.537 12.754 41.074 17.763h.539c3.314 1.117 8.9 2.234 16.106 3.313 7.783 1.657 29.976 6.088 29.976 21.115 0 4.43-1.657 11.096-9.44 15.527-6.088 3.314-13.331 5.01-21.654 5.01-11.097 0-20.536-2.236-27.202-6.667-6.088-4.43-9.44-9.979-10.557-17.762h-32.75c0 14.449 5.547 26.085 15.527 33.868zm-91.047-69.393v83.264h-36.642V84.534c0-16.106 2.774-29.437 7.783-39.956 5.009-10.519 12.754-18.88 21.654-24.968 8.9-6.087 19.42-10.557 31.633-13.331 12.368-2.89 25.045-4.354 37.76-4.43v30.515h-8.9c-17.224 0-29.977 3.891-38.878 11.675-9.44 6.665-14.448 18.88-14.448 34.985zm-78.832-66.079C113.39 5.701 95.088 1.81 71.199 1.81c-21.114 0-37.181 4.43-48.316 13.33A37.54 37.54 0 0 0 9.012 32.365c-1.117 1.657-1.117 5.548 4.43 5.548H42.88c2.774-4.43 7.205-7.205 12.753-8.322a64.045 64.045 0 0 1 18.302-2.774c6.936-.116 13.87.847 20.537 2.774 9.44 2.774 13.87 8.9 13.87 16.645 0 16.105-25.545 19.419-33.867 20.536l-18.88 2.235c-16.106 2.235-29.977 6.666-39.956 13.87C5.66 89.544 1.19 100.64 1.19 116.207c0 17.222 5.549 28.858 16.106 36.102 11.097 7.205 24.428 11.097 39.416 11.097l27.202-1.657c9.98-1.117 19.42-3.314 28.32-7.783 7.783-3.892 14.988-9.98 21.115-18.302 6.087-8.9 8.9-20.536 8.9-36.103V43.5c0-13.332-5.548-23.312-17.223-30.517zm-16.106 84.96c0 12.753-3.892 23.31-12.214 30.515-8.323 7.205-18.88 11.097-32.75 11.097-8.901 0-15.528-2.235-20.537-6.088-5.01-4.431-7.783-10.557-7.783-18.302 0-5.548.54-12.214 6.087-17.223 4.431-3.891 10.558-6.666 19.42-8.9l15.527-3.314c10.558-2.235 18.88-5.009 24.968-7.783l6.665-3.314h.54v23.311z"/>
</svg>
